<ttFont>
    <TTGlyph name="A" xMin="61" yMin="0" xMax="681" yMax="732">
      <contour>
        <pt x="380" y="515" on="1"/>
        <pt x="371" y="548" on="1"/>
        <pt x="357" y="498" on="0"/>
        <pt x="315" y="404" on="0"/>
        <pt x="295" y="356" on="1"/>
        <pt x="447" y="356" on="1"/>
        <pt x="430" y="396" on="0"/>
        <pt x="397" y="475" on="0"/>
      </contour>
      <contour>
        <pt x="681" y="0" on="1"/>
        <pt x="598" y="0" on="1"/>
        <pt x="569" y="69" on="0"/>
        <pt x="510" y="208" on="0"/>
        <pt x="481" y="277" on="1"/>
        <pt x="261" y="277" on="1"/>
        <pt x="232" y="208" on="0"/>
        <pt x="173" y="69" on="0"/>
        <pt x="144" y="0" on="1"/>
        <pt x="61" y="0" on="1"/>
        <pt x="139" y="184" on="0"/>
        <pt x="293" y="548" on="0"/>
        <pt x="371" y="732" on="1"/>
        <pt x="449" y="548" on="0"/>
        <pt x="603" y="184" on="0"/>
      </contour>
    </TTGlyph>
    <TTGlyph name="AE" xMin="60" yMin="0" xMax="720" yMax="700">
      <contour>
        <pt x="370" y="343" on="1"/>
        <pt x="370" y="548" on="1"/>
        <pt x="356" y="496" on="0"/>
        <pt x="309" y="394" on="0"/>
        <pt x="288" y="343" on="1"/>
      </contour>
      <contour>
        <pt x="60" y="0" on="1"/>
        <pt x="135" y="176" on="0"/>
        <pt x="281" y="524" on="0"/>
        <pt x="356" y="700" on="1"/>
        <pt x="706" y="700" on="1"/>
        <pt x="706" y="621" on="1"/>
        <pt x="453" y="621" on="1"/>
        <pt x="453" y="392" on="1"/>
        <pt x="667" y="392" on="1"/>
        <pt x="667" y="313" on="1"/>
        <pt x="453" y="313" on="1"/>
        <pt x="453" y="79" on="1"/>
        <pt x="720" y="79" on="1"/>
        <pt x="720" y="0" on="1"/>
        <pt x="370" y="0" on="1"/>
        <pt x="370" y="264" on="1"/>
        <pt x="255" y="264" on="1"/>
        <pt x="227" y="198" on="0"/>
        <pt x="171" y="66" on="0"/>
        <pt x="143" y="0" on="1"/>
      </contour>
    </TTGlyph>
    <TTGlyph name="Aacute" xMin="61" yMin="0" xMax="681" yMax="883">
      <component glyphName="A" x="0" y="0" flags="0x204"/>
      <component glyphName="acute" x="242" y="271" flags="0x4"/>
    </TTGlyph>
    <TTGlyph name="Acircumflex" xMin="61" yMin="0" xMax="681" yMax="931">
      <component glyphName="A" x="0" y="0" flags="0x204"/>
      <component glyphName="asciicircum" x="139" y="271" flags="0x4"/>
    </TTGlyph>
    <TTGlyph name="Adieresis" xMin="61" yMin="0" xMax="681" yMax="863">
      <component glyphName="A" x="0" y="0" flags="0x204"/>
      <component glyphName="dieresis" x="188" y="290" flags="0x4"/>
    </TTGlyph>
    <TTGlyph name="Agrave" xMin="61" yMin="0" xMax="681" yMax="883">
      <component glyphName="A" x="0" y="0" flags="0x204"/>
      <component glyphName="grave" x="266" y="271" flags="0x4"/>
    </TTGlyph>
    <TTGlyph name="Aring" xMin="61" yMin="0" xMax="681" yMax="925">
      <contour>
        <pt x="339" y="837" on="1"/>
        <pt x="339" y="823" on="0"/>
        <pt x="357" y="805" on="0"/>
        <pt x="371" y="805" on="1"/>
        <pt x="385" y="805" on="0"/>
        <pt x="404" y="823" on="0"/>
        <pt x="404" y="837" on="1"/>
        <pt x="404" y="851" on="0"/>
        <pt x="385" y="870" on="0"/>
        <pt x="371" y="870" on="1"/>
        <pt x="357" y="870" on="0"/>
        <pt x="339" y="851" on="0"/>
      </contour>
      <contour>
        <pt x="284" y="838" on="1"/>
        <pt x="284" y="856" on="0"/>
        <pt x="298" y="887" on="0"/>
        <pt x="322" y="911" on="0"/>
        <pt x="353" y="925" on="0"/>
        <pt x="371" y="925" on="1"/>
        <pt x="389" y="925" on="0"/>
        <pt x="420" y="911" on="0"/>
        <pt x="444" y="887" on="0"/>
        <pt x="458" y="856" on="0"/>
        <pt x="458" y="838" on="1"/>
        <pt x="458" y="820" on="0"/>
        <pt x="444" y="789" on="0"/>
        <pt x="420" y="765" on="0"/>
        <pt x="389" y="751" on="0"/>
        <pt x="371" y="751" on="1"/>
        <pt x="353" y="751" on="0"/>
        <pt x="322" y="765" on="0"/>
        <pt x="298" y="789" on="0"/>
        <pt x="284" y="820" on="0"/>
      </contour>
      <contour>
        <pt x="380" y="515" on="1"/>
        <pt x="371" y="548" on="1"/>
        <pt x="357" y="498" on="0"/>
        <pt x="315" y="404" on="0"/>
        <pt x="295" y="356" on="1"/>
        <pt x="447" y="356" on="1"/>
        <pt x="430" y="396" on="0"/>
        <pt x="397" y="475" on="0"/>
      </contour>
      <contour>
        <pt x="681" y="0" on="1"/>
        <pt x="598" y="0" on="1"/>
        <pt x="569" y="69" on="0"/>
        <pt x="510" y="208" on="0"/>
        <pt x="481" y="277" on="1"/>
        <pt x="261" y="277" on="1"/>
        <pt x="232" y="208" on="0"/>
        <pt x="173" y="69" on="0"/>
        <pt x="144" y="0" on="1"/>
        <pt x="61" y="0" on="1"/>
        <pt x="139" y="184" on="0"/>
        <pt x="293" y="548" on="0"/>
        <pt x="371" y="732" on="1"/>
        <pt x="449" y="548" on="0"/>
        <pt x="603" y="184" on="0"/>
      </contour>
    </TTGlyph>
    <TTGlyph name="Atilde" xMin="61" yMin="0" xMax="681" yMax="856">
      <component glyphName="A" x="0" y="0" flags="0x204"/>
      <component glyphName="asciitilde" x="91" y="304" flags="0x4"/>
    </TTGlyph>
    <TTGlyph name="B" xMin="58" yMin="0" xMax="485" yMax="700">
      <contour>
        <pt x="141" y="621" on="1"/>
        <pt x="141" y="392" on="1"/>
        <pt x="249" y="392" on="1"/>
        <pt x="308" y="392" on="0"/>
        <pt x="377" y="458" on="0"/>
        <pt x="377" y="512" on="1"/>
        <pt x="377" y="571" on="0"/>
        <pt x="305" y="621" on="0"/>
        <pt x="247" y="621" on="1"/>
      </contour>
      <contour>
        <pt x="141" y="313" on="1"/>
        <pt x="141" y="79" on="1"/>
        <pt x="252" y="79" on="1"/>
        <pt x="283" y="79" on="0"/>
        <pt x="337" y="93" on="0"/>
        <pt x="378" y="122" on="0"/>
        <pt x="402" y="164" on="0"/>
        <pt x="402" y="193" on="1"/>
        <pt x="402" y="224" on="0"/>
        <pt x="374" y="270" on="0"/>
        <pt x="329" y="299" on="0"/>
        <pt x="269" y="313" on="0"/>
        <pt x="238" y="313" on="1"/>
      </contour>
      <contour>
        <pt x="58" y="0" on="1"/>
        <pt x="58" y="700" on="1"/>
        <pt x="241" y="700" on="1"/>
        <pt x="290" y="700" on="0"/>
        <pt x="371" y="680" on="0"/>
        <pt x="428" y="638" on="0"/>
        <pt x="460" y="571" on="0"/>
        <pt x="460" y="525" on="1"/>
        <pt x="460" y="463" on="0"/>
        <pt x="401" y="369" on="0"/>
        <pt x="341" y="352" on="1"/>
        <pt x="369" y="346" on="0"/>
        <pt x="422" y="318" on="0"/>
        <pt x="461" y="274" on="0"/>
        <pt x="485" y="216" on="0"/>
        <pt x="485" y="180" on="1"/>
        <pt x="485" y="135" on="0"/>
        <pt x="447" y="68" on="0"/>
        <pt x="384" y="23" on="0"/>
        <pt x="302" y="0" on="0"/>
        <pt x="259" y="0" on="1"/>
      </contour>
    </TTGlyph>
    <TTGlyph name="C" xMin="62" yMin="-8" xMax="602" yMax="708">
      <contour>
        <pt x="556" y="108" on="1"/>
        <pt x="601" y="42" on="1"/>
        <pt x="561" y="19" on="0"/>
        <pt x="470" y="-8" on="0"/>
        <pt x="419" y="-8" on="1"/>
        <pt x="345" y="-8" on="0"/>
        <pt x="215" y="48" on="0"/>
        <pt x="118" y="145" on="0"/>
        <pt x="62" y="275" on="0"/>
        <pt x="62" y="349" on="1"/>
        <pt x="62" y="423" on="0"/>
        <pt x="118" y="554" on="0"/>
        <pt x="215" y="651" on="0"/>
        <pt x="345" y="708" on="0"/>
        <pt x="419" y="708" on="1"/>
        <pt x="470" y="708" on="0"/>
        <pt x="561" y="682" on="0"/>
        <pt x="602" y="658" on="1"/>
        <pt x="591" y="641" on="0"/>
        <pt x="567" y="608" on="0"/>
        <pt x="556" y="591" on="1"/>
        <pt x="525" y="609" on="0"/>
        <pt x="457" y="629" on="0"/>
        <pt x="419" y="629" on="1"/>
        <pt x="362" y="629" on="0"/>
        <pt x="263" y="585" on="0"/>
        <pt x="188" y="508" on="0"/>
        <pt x="145" y="406" on="0"/>
        <pt x="145" y="349" on="1"/>
        <pt x="145" y="292" on="0"/>
        <pt x="188" y="190" on="0"/>
        <pt x="263" y="115" on="0"/>
        <pt x="362" y="71" on="0"/>
        <pt x="419" y="71" on="1"/>
        <pt x="493" y="71" on="0"/>
      </contour>
    </TTGlyph>
    <TTGlyph name="Ccedilla" xMin="62" yMin="-250" xMax="602" yMax="708">
      <contour>
        <pt x="556" y="108" on="1"/>
        <pt x="601" y="42" on="1"/>
        <pt x="563" y="20" on="0"/>
        <pt x="479" y="-6" on="0"/>
        <pt x="433" y="-8" on="1"/>
        <pt x="433" y="-22" on="0"/>
        <pt x="442" y="-39" on="0"/>
        <pt x="454" y="-50" on="0"/>
        <pt x="469" y="-57" on="0"/>
        <pt x="475" y="-61" on="1"/>
        <pt x="496" y="-77" on="0"/>
        <pt x="513" y="-117" on="0"/>
        <pt x="513" y="-142" on="1"/>
        <pt x="513" y="-163" on="0"/>
        <pt x="500" y="-202" on="0"/>
        <pt x="473" y="-232" on="0"/>
        <pt x="434" y="-250" on="0"/>
        <pt x="408" y="-250" on="1"/>
        <pt x="374" y="-250" on="0"/>
        <pt x="317" y="-213" on="0"/>
        <pt x="304" y="-175" on="1"/>
        <pt x="315" y="-169" on="0"/>
        <pt x="339" y="-157" on="0"/>
        <pt x="350" y="-151" on="1"/>
        <pt x="355" y="-167" on="0"/>
        <pt x="381" y="-188" on="0"/>
        <pt x="401" y="-188" on="1"/>
        <pt x="425" y="-188" on="0"/>
        <pt x="451" y="-156" on="0"/>
        <pt x="451" y="-132" on="1"/>
        <pt x="451" y="-112" on="0"/>
        <pt x="429" y="-89" on="0"/>
        <pt x="404" y="-71" on="0"/>
        <pt x="382" y="-51" on="0"/>
        <pt x="382" y="-34" on="1"/>
        <pt x="382" y="-6" on="1"/>
        <pt x="314" y="1" on="0"/>
        <pt x="198" y="61" on="0"/>
        <pt x="111" y="156" on="0"/>
        <pt x="62" y="280" on="0"/>
        <pt x="62" y="349" on="1"/>
        <pt x="62" y="423" on="0"/>
        <pt x="118" y="554" on="0"/>
        <pt x="215" y="651" on="0"/>
        <pt x="345" y="708" on="0"/>
        <pt x="419" y="708" on="1"/>
        <pt x="470" y="708" on="0"/>
        <pt x="561" y="682" on="0"/>
        <pt x="602" y="658" on="1"/>
        <pt x="591" y="641" on="0"/>
        <pt x="567" y="608" on="0"/>
        <pt x="556" y="591" on="1"/>
        <pt x="525" y="609" on="0"/>
        <pt x="457" y="629" on="0"/>
        <pt x="419" y="629" on="1"/>
        <pt x="362" y="629" on="0"/>
        <pt x="263" y="585" on="0"/>
        <pt x="188" y="508" on="0"/>
        <pt x="145" y="406" on="0"/>
        <pt x="145" y="349" on="1"/>
        <pt x="145" y="292" on="0"/>
        <pt x="188" y="190" on="0"/>
        <pt x="263" y="115" on="0"/>
        <pt x="362" y="71" on="0"/>
        <pt x="419" y="71" on="1"/>
        <pt x="493" y="71" on="0"/>
      </contour>
    </TTGlyph>
    <TTGlyph name="D" xMin="60" yMin="0" xMax="575" yMax="700">
      <contour>
        <pt x="60" y="700" on="1"/>
        <pt x="223" y="700" on="1"/>
        <pt x="295" y="700" on="0"/>
        <pt x="423" y="651" on="0"/>
        <pt x="519" y="559" on="0"/>
        <pt x="575" y="430" on="0"/>
        <pt x="575" y="349" on="1"/>
        <pt x="575" y="290" on="0"/>
        <pt x="534" y="166" on="0"/>
        <pt x="442" y="65" on="0"/>
        <pt x="295" y="0" on="0"/>
        <pt x="189" y="0" on="1"/>
        <pt x="60" y="0" on="1"/>
      </contour>
      <contour>
        <pt x="143" y="621" on="1"/>
        <pt x="143" y="80" on="1"/>
        <pt x="213" y="80" on="1"/>
        <pt x="272" y="80" on="0"/>
        <pt x="374" y="118" on="0"/>
        <pt x="449" y="189" on="0"/>
        <pt x="492" y="288" on="0"/>
        <pt x="492" y="350" on="1"/>
        <pt x="492" y="412" on="0"/>
        <pt x="449" y="512" on="0"/>
        <pt x="374" y="583" on="0"/>
        <pt x="272" y="621" on="0"/>
        <pt x="213" y="621" on="1"/>
      </contour>
    </TTGlyph>
    <TTGlyph name="E" xMin="69" yMin="0" xMax="514" yMax="700">
      <contour>
        <pt x="69" y="0" on="1"/>
        <pt x="69" y="700" on="1"/>
        <pt x="500" y="700" on="1"/>
        <pt x="500" y="621" on="1"/>
        <pt x="152" y="621" on="1"/>
        <pt x="152" y="392" on="1"/>
        <pt x="461" y="392" on="1"/>
        <pt x="461" y="313" on="1"/>
        <pt x="152" y="313" on="1"/>
        <pt x="152" y="79" on="1"/>
        <pt x="514" y="79" on="1"/>
        <pt x="514" y="0" on="1"/>
      </contour>
    </TTGlyph>
    <TTGlyph name="Eacute" xMin="69" yMin="0" xMax="514" yMax="883">
      <component glyphName="E" x="0" y="0" flags="0x204"/>
      <component glyphName="acute" x="163" y="271" flags="0x4"/>
    </TTGlyph>
    <TTGlyph name="Ecircumflex" xMin="69" yMin="0" xMax="514" yMax="931">
      <component glyphName="E" x="0" y="0" flags="0x204"/>
      <component glyphName="asciicircum" x="68" y="271" flags="0x4"/>
    </TTGlyph>
    <TTGlyph name="Edieresis" xMin="69" yMin="0" xMax="514" yMax="863">
      <component glyphName="E" x="0" y="0" flags="0x204"/>
      <component glyphName="dieresis" x="107" y="290" flags="0x4"/>
    </TTGlyph>
    <TTGlyph name="Egrave" xMin="69" yMin="0" xMax="514" yMax="883">
      <component glyphName="E" x="0" y="0" flags="0x204"/>
      <component glyphName="grave" x="196" y="271" flags="0x4"/>
    </TTGlyph>
    <TTGlyph name="Eth" xMin="22" yMin="0" xMax="603" yMax="700">
      <contour>
        <pt x="143" y="309" on="1"/>
        <pt x="143" y="79" on="1"/>
        <pt x="218" y="79" on="1"/>
        <pt x="282" y="79" on="0"/>
        <pt x="393" y="117" on="0"/>
        <pt x="474" y="188" on="0"/>
        <pt x="520" y="288" on="0"/>
        <pt x="520" y="350" on="1"/>
        <pt x="520" y="412" on="0"/>
        <pt x="474" y="513" on="0"/>
        <pt x="393" y="584" on="0"/>
        <pt x="282" y="622" on="0"/>
        <pt x="218" y="622" on="1"/>
        <pt x="143" y="622" on="1"/>
        <pt x="143" y="390" on="1"/>
        <pt x="324" y="390" on="1"/>
        <pt x="324" y="309" on="1"/>
      </contour>
      <contour>
        <pt x="60" y="390" on="1"/>
        <pt x="60" y="700" on="1"/>
        <pt x="212" y="700" on="1"/>
        <pt x="291" y="700" on="0"/>
        <pt x="434" y="651" on="0"/>
        <pt x="540" y="560" on="0"/>
        <pt x="603" y="430" on="0"/>
        <pt x="603" y="350" on="1"/>
        <pt x="603" y="291" on="0"/>
        <pt x="557" y="167" on="0"/>
        <pt x="455" y="65" on="0"/>
        <pt x="291" y="0" on="0"/>
        <pt x="173" y="0" on="1"/>
        <pt x="60" y="0" on="1"/>
        <pt x="60" y="309" on="1"/>
        <pt x="22" y="309" on="1"/>
        <pt x="22" y="390" on="1"/>
      </contour>
    </TTGlyph>
    <TTGlyph name="F" xMin="69" yMin="0" xMax="500" yMax="700">
      <contour>
        <pt x="69" y="0" on="1"/>
        <pt x="69" y="700" on="1"/>
        <pt x="500" y="700" on="1"/>
        <pt x="500" y="621" on="1"/>
        <pt x="152" y="621" on="1"/>
        <pt x="152" y="392" on="1"/>
        <pt x="461" y="392" on="1"/>
        <pt x="461" y="313" on="1"/>
        <pt x="152" y="313" on="1"/>
        <pt x="152" y="0" on="1"/>
      </contour>
    </TTGlyph>
    <TTGlyph name="G" xMin="62" yMin="-8" xMax="602" yMax="708">
      <contour>
        <pt x="415" y="221" on="1"/>
        <pt x="415" y="300" on="1"/>
        <pt x="553" y="300" on="1"/>
        <pt x="582" y="300" on="0"/>
        <pt x="601" y="271" on="0"/>
        <pt x="601" y="240" on="1"/>
        <pt x="601" y="42" on="1"/>
        <pt x="561" y="19" on="0"/>
        <pt x="470" y="-8" on="0"/>
        <pt x="419" y="-8" on="1"/>
        <pt x="345" y="-8" on="0"/>
        <pt x="215" y="48" on="0"/>
        <pt x="118" y="145" on="0"/>
        <pt x="62" y="275" on="0"/>
        <pt x="62" y="349" on="1"/>
        <pt x="62" y="423" on="0"/>
        <pt x="118" y="554" on="0"/>
        <pt x="215" y="651" on="0"/>
        <pt x="345" y="708" on="0"/>
        <pt x="419" y="708" on="1"/>
        <pt x="470" y="708" on="0"/>
        <pt x="561" y="682" on="0"/>
        <pt x="602" y="658" on="1"/>
        <pt x="591" y="641" on="0"/>
        <pt x="567" y="608" on="0"/>
        <pt x="556" y="591" on="1"/>
        <pt x="525" y="609" on="0"/>
        <pt x="457" y="629" on="0"/>
        <pt x="419" y="629" on="1"/>
        <pt x="362" y="629" on="0"/>
        <pt x="263" y="585" on="0"/>
        <pt x="188" y="508" on="0"/>
        <pt x="145" y="406" on="0"/>
        <pt x="145" y="349" on="1"/>
        <pt x="145" y="292" on="0"/>
        <pt x="188" y="190" on="0"/>
        <pt x="263" y="115" on="0"/>
        <pt x="362" y="71" on="0"/>
        <pt x="419" y="71" on="1"/>
        <pt x="471" y="71" on="0"/>
        <pt x="518" y="89" on="1"/>
        <pt x="518" y="191" on="1"/>
        <pt x="518" y="208" on="0"/>
        <pt x="511" y="221" on="0"/>
        <pt x="495" y="221" on="1"/>
      </contour>
    </TTGlyph>
    <TTGlyph name="H" xMin="78" yMin="0" xMax="622" yMax="700">
      <contour>
        <pt x="78" y="0" on="1"/>
        <pt x="78" y="700" on="1"/>
        <pt x="161" y="700" on="1"/>
        <pt x="161" y="392" on="1"/>
        <pt x="539" y="392" on="1"/>
        <pt x="539" y="700" on="1"/>
        <pt x="622" y="700" on="1"/>
        <pt x="622" y="0" on="1"/>
        <pt x="539" y="0" on="1"/>
        <pt x="539" y="313" on="1"/>
        <pt x="161" y="313" on="1"/>
        <pt x="161" y="0" on="1"/>
      </contour>
    </TTGlyph>
    <TTGlyph name="I" xMin="99" yMin="0" xMax="182" yMax="700">
      <contour>
        <pt x="99" y="700" on="1"/>
        <pt x="182" y="700" on="1"/>
        <pt x="182" y="0" on="1"/>
        <pt x="99" y="0" on="1"/>
      </contour>
    </TTGlyph>
    <TTGlyph name="Iacute" xMin="99" yMin="0" xMax="297" yMax="883">
      <component glyphName="I" x="0" y="0" flags="0x4"/>
      <component glyphName="acute" x="23" y="271" flags="0x4"/>
    </TTGlyph>
    <TTGlyph name="Icircumflex" xMin="21" yMin="0" xMax="261" yMax="931">
      <component glyphName="I" x="0" y="0" flags="0x4"/>
      <component glyphName="asciicircum" x="-91" y="271" flags="0x4"/>
    </TTGlyph>
    <TTGlyph name="Idieresis" xMin="4" yMin="0" xMax="273" yMax="863">
      <component glyphName="I" x="0" y="0" flags="0x4"/>
      <component glyphName="dieresis" x="-45" y="290" flags="0x4"/>
    </TTGlyph>
    <TTGlyph name="Igrave" xMin="-15" yMin="0" xMax="182" yMax="883">
      <component glyphName="I" x="0" y="0" flags="0x4"/>
      <component glyphName="grave" x="36" y="271" flags="0x4"/>
    </TTGlyph>
    <TTGlyph name="J" xMin="17" yMin="-144" xMax="258" yMax="700">
      <contour>
        <pt x="17" y="-144" on="1"/>
        <pt x="17" y="-65" on="1"/>
        <pt x="86" y="-61" on="0"/>
        <pt x="175" y="19" on="0"/>
        <pt x="175" y="93" on="1"/>
        <pt x="175" y="700" on="1"/>
        <pt x="258" y="700" on="1"/>
        <pt x="258" y="90" on="1"/>
        <pt x="258" y="34" on="0"/>
        <pt x="221" y="-52" on="0"/>
        <pt x="157" y="-111" on="0"/>
        <pt x="68" y="-143" on="0"/>
      </contour>
    </TTGlyph>
    <TTGlyph name="K" xMin="51" yMin="0" xMax="581" yMax="700">
      <contour>
        <pt x="581" y="0" on="1"/>
        <pt x="482" y="0" on="1"/>
        <pt x="410" y="91" on="0"/>
        <pt x="268" y="272" on="0"/>
        <pt x="196" y="363" on="1"/>
        <pt x="180" y="348" on="0"/>
        <pt x="150" y="319" on="0"/>
        <pt x="134" y="304" on="1"/>
        <pt x="134" y="0" on="1"/>
        <pt x="51" y="0" on="1"/>
        <pt x="51" y="700" on="1"/>
        <pt x="134" y="700" on="1"/>
        <pt x="134" y="426" on="1"/>
        <pt x="133" y="418" on="0"/>
        <pt x="132" y="402" on="0"/>
        <pt x="131" y="394" on="1"/>
        <pt x="136" y="400" on="0"/>
        <pt x="145" y="411" on="0"/>
        <pt x="150" y="417" on="1"/>
        <pt x="225" y="488" on="0"/>
        <pt x="372" y="629" on="0"/>
        <pt x="447" y="700" on="1"/>
        <pt x="549" y="700" on="1"/>
        <pt x="474" y="628" on="0"/>
        <pt x="326" y="488" on="0"/>
        <pt x="251" y="416" on="1"/>
        <pt x="334" y="311" on="0"/>
        <pt x="498" y="105" on="0"/>
      </contour>
    </TTGlyph>
    <TTGlyph name="L" xMin="69" yMin="0" xMax="514" yMax="700">
      <contour>
        <pt x="69" y="0" on="1"/>
        <pt x="69" y="700" on="1"/>
        <pt x="152" y="700" on="1"/>
        <pt x="152" y="79" on="1"/>
        <pt x="514" y="79" on="1"/>
        <pt x="514" y="0" on="1"/>
      </contour>
    </TTGlyph>
    <TTGlyph name="M" xMin="100" yMin="0" xMax="832" yMax="732">
      <contour>
        <pt x="100" y="732" on="1"/>
        <pt x="192" y="613" on="0"/>
        <pt x="374" y="376" on="0"/>
        <pt x="466" y="257" on="1"/>
        <pt x="558" y="376" on="0"/>
        <pt x="740" y="613" on="0"/>
        <pt x="832" y="732" on="1"/>
        <pt x="832" y="0" on="1"/>
        <pt x="749" y="0" on="1"/>
        <pt x="749" y="470" on="1"/>
        <pt x="750" y="478" on="0"/>
        <pt x="751" y="494" on="0"/>
        <pt x="752" y="502" on="1"/>
        <pt x="686" y="404" on="0"/>
        <pt x="538" y="219" on="0"/>
        <pt x="466" y="125" on="1"/>
        <pt x="399" y="213" on="0"/>
        <pt x="265" y="387" on="0"/>
        <pt x="198" y="475" on="1"/>
        <pt x="180" y="502" on="1"/>
        <pt x="181" y="494" on="0"/>
        <pt x="182" y="478" on="0"/>
        <pt x="183" y="470" on="1"/>
        <pt x="183" y="0" on="1"/>
        <pt x="100" y="0" on="1"/>
      </contour>
    </TTGlyph>
    <TTGlyph name="N" xMin="100" yMin="-32" xMax="711" yMax="732">
      <contour>
        <pt x="711" y="700" on="1"/>
        <pt x="711" y="-32" on="1"/>
        <pt x="582" y="105" on="0"/>
        <pt x="328" y="375" on="0"/>
        <pt x="199" y="512" on="1"/>
        <pt x="194" y="519" on="0"/>
        <pt x="185" y="531" on="0"/>
        <pt x="180" y="538" on="1"/>
        <pt x="181" y="530" on="0"/>
        <pt x="182" y="514" on="0"/>
        <pt x="183" y="506" on="1"/>
        <pt x="183" y="0" on="1"/>
        <pt x="100" y="0" on="1"/>
        <pt x="100" y="732" on="1"/>
        <pt x="229" y="592" on="0"/>
        <pt x="483" y="317" on="0"/>
        <pt x="612" y="177" on="1"/>
        <pt x="617" y="170" on="0"/>
        <pt x="626" y="158" on="0"/>
        <pt x="631" y="151" on="1"/>
        <pt x="630" y="159" on="0"/>
        <pt x="629" y="175" on="0"/>
        <pt x="628" y="183" on="1"/>
        <pt x="628" y="700" on="1"/>
      </contour>
    </TTGlyph>
    <TTGlyph name="Ntilde" xMin="100" yMin="-32" xMax="711" yMax="844">
      <component glyphName="N" x="0" y="0" flags="0x204"/>
      <component glyphName="asciitilde" x="131" y="292" flags="0x4"/>
    </TTGlyph>
    <TTGlyph name="O" xMin="62" yMin="-8" xMax="778" yMax="708">
      <contour>
        <pt x="62" y="349" on="1"/>
        <pt x="62" y="422" on="0"/>
        <pt x="118" y="553" on="0"/>
        <pt x="215" y="651" on="0"/>
        <pt x="345" y="708" on="0"/>
        <pt x="419" y="708" on="1"/>
        <pt x="492" y="708" on="0"/>
        <pt x="623" y="651" on="0"/>
        <pt x="721" y="553" on="0"/>
        <pt x="778" y="422" on="0"/>
        <pt x="778" y="349" on="1"/>
        <pt x="778" y="275" on="0"/>
        <pt x="721" y="145" on="0"/>
        <pt x="623" y="48" on="0"/>
        <pt x="492" y="-8" on="0"/>
        <pt x="419" y="-8" on="1"/>
        <pt x="345" y="-8" on="0"/>
        <pt x="215" y="48" on="0"/>
        <pt x="118" y="145" on="0"/>
        <pt x="62" y="275" on="0"/>
      </contour>
      <contour>
        <pt x="145" y="349" on="1"/>
        <pt x="145" y="291" on="0"/>
        <pt x="188" y="190" on="0"/>
        <pt x="263" y="115" on="0"/>
        <pt x="363" y="71" on="0"/>
        <pt x="420" y="71" on="1"/>
        <pt x="477" y="71" on="0"/>
        <pt x="577" y="115" on="0"/>
        <pt x="652" y="190" on="0"/>
        <pt x="695" y="291" on="0"/>
        <pt x="695" y="349" on="1"/>
        <pt x="695" y="407" on="0"/>
        <pt x="652" y="508" on="0"/>
        <pt x="577" y="584" on="0"/>
        <pt x="477" y="628" on="0"/>
        <pt x="420" y="628" on="1"/>
        <pt x="363" y="628" on="0"/>
        <pt x="263" y="584" on="0"/>
        <pt x="188" y="508" on="0"/>
        <pt x="145" y="407" on="0"/>
      </contour>
    </TTGlyph>
    <TTGlyph name="Oacute" xMin="60" yMin="-8" xMax="776" yMax="883">
      <component glyphName="O" x="-2" y="0" flags="0x204"/>
      <component glyphName="acute" x="300" y="271" flags="0x4"/>
    </TTGlyph>
    <TTGlyph name="Ocircumflex" xMin="60" yMin="-8" xMax="776" yMax="931">
      <component glyphName="O" x="-2" y="0" flags="0x4"/>
      <component glyphName="asciicircum" x="185" y="271" flags="0x4"/>
    </TTGlyph>
    <TTGlyph name="Odieresis" xMin="60" yMin="-8" xMax="776" yMax="863">
      <component glyphName="O" x="-2" y="0" flags="0x4"/>
      <component glyphName="dieresis" x="235" y="290" flags="0x4"/>
    </TTGlyph>
    <TTGlyph name="Ograve" xMin="60" yMin="-8" xMax="776" yMax="883">
      <component glyphName="O" x="-2" y="0" flags="0x4"/>
      <component glyphName="grave" x="311" y="271" flags="0x4"/>
    </TTGlyph>
    <TTGlyph name="Oslash" xMin="62" yMin="-17" xMax="778" yMax="719">
      <contour>
        <pt x="145" y="349" on="1"/>
        <pt x="145" y="296" on="0"/>
        <pt x="181" y="203" on="0"/>
        <pt x="213" y="166" on="1"/>
        <pt x="303" y="271" on="0"/>
        <pt x="480" y="477" on="0"/>
        <pt x="570" y="582" on="1"/>
        <pt x="537" y="604" on="0"/>
        <pt x="461" y="629" on="0"/>
        <pt x="419" y="629" on="1"/>
        <pt x="362" y="629" on="0"/>
        <pt x="263" y="585" on="0"/>
        <pt x="188" y="508" on="0"/>
        <pt x="145" y="406" on="0"/>
      </contour>
      <contour>
        <pt x="419" y="71" on="1"/>
        <pt x="476" y="71" on="0"/>
        <pt x="576" y="115" on="0"/>
        <pt x="651" y="190" on="0"/>
        <pt x="695" y="292" on="0"/>
        <pt x="695" y="349" on="1"/>
        <pt x="695" y="401" on="0"/>
        <pt x="659" y="494" on="0"/>
        <pt x="627" y="531" on="1"/>
        <pt x="537" y="426" on="0"/>
        <pt x="361" y="220" on="0"/>
        <pt x="271" y="115" on="1"/>
        <pt x="303" y="94" on="0"/>
        <pt x="377" y="71" on="0"/>
      </contour>
      <contour>
        <pt x="62" y="349" on="1"/>
        <pt x="62" y="423" on="0"/>
        <pt x="118" y="554" on="0"/>
        <pt x="215" y="651" on="0"/>
        <pt x="345" y="708" on="0"/>
        <pt x="419" y="708" on="1"/>
        <pt x="476" y="708" on="0"/>
        <pt x="579" y="674" on="0"/>
        <pt x="623" y="644" on="1"/>
        <pt x="639" y="663" on="0"/>
        <pt x="671" y="700" on="0"/>
        <pt x="687" y="719" on="1"/>
        <pt x="701" y="706" on="0"/>
        <pt x="731" y="681" on="0"/>
        <pt x="745" y="668" on="1"/>
        <pt x="729" y="649" on="0"/>
        <pt x="697" y="613" on="0"/>
        <pt x="681" y="594" on="1"/>
        <pt x="726" y="546" on="0"/>
        <pt x="778" y="420" on="0"/>
        <pt x="778" y="349" on="1"/>
        <pt x="778" y="275" on="0"/>
        <pt x="721" y="145" on="0"/>
        <pt x="624" y="48" on="0"/>
        <pt x="493" y="-8" on="0"/>
        <pt x="419" y="-8" on="1"/>
        <pt x="362" y="-8" on="0"/>
        <pt x="261" y="24" on="0"/>
        <pt x="218" y="53" on="1"/>
        <pt x="203" y="36" on="0"/>
        <pt x="173" y="0" on="0"/>
        <pt x="158" y="-17" on="1"/>
        <pt x="144" y="-4" on="0"/>
        <pt x="114" y="21" on="0"/>
        <pt x="100" y="34" on="1"/>
        <pt x="115" y="51" on="0"/>
        <pt x="144" y="86" on="0"/>
        <pt x="159" y="103" on="1"/>
        <pt x="114" y="151" on="0"/>
        <pt x="62" y="277" on="0"/>
      </contour>
    </TTGlyph>
    <TTGlyph name="Otilde" xMin="60" yMin="-8" xMax="776" yMax="879">
      <component glyphName="O" x="-2" y="0" flags="0x4"/>
      <component glyphName="asciitilde" x="141" y="327" flags="0x4"/>
    </TTGlyph>
    <TTGlyph name="P" xMin="58" yMin="0" xMax="460" yMax="700">
      <contour>
        <pt x="141" y="392" on="1"/>
        <pt x="228" y="392" on="1"/>
        <pt x="272" y="392" on="0"/>
        <pt x="329" y="415" on="0"/>
        <pt x="363" y="449" on="0"/>
        <pt x="377" y="491" on="0"/>
        <pt x="377" y="510" on="1"/>
        <pt x="377" y="532" on="0"/>
        <pt x="354" y="573" on="0"/>
        <pt x="315" y="604" on="0"/>
        <pt x="260" y="622" on="0"/>
        <pt x="229" y="622" on="1"/>
        <pt x="141" y="622" on="1"/>
      </contour>
      <contour>
        <pt x="58" y="0" on="1"/>
        <pt x="58" y="700" on="1"/>
        <pt x="223" y="700" on="1"/>
        <pt x="257" y="700" on="0"/>
        <pt x="340" y="679" on="0"/>
        <pt x="412" y="633" on="0"/>
        <pt x="460" y="561" on="0"/>
        <pt x="460" y="510" on="1"/>
        <pt x="460" y="419" on="0"/>
        <pt x="352" y="312" on="0"/>
        <pt x="250" y="312" on="1"/>
        <pt x="141" y="312" on="1"/>
        <pt x="141" y="0" on="1"/>
      </contour>
    </TTGlyph>
    <TTGlyph name="Q" xMin="62" yMin="-8" xMax="800" yMax="708">
      <contour>
        <pt x="145" y="349" on="1"/>
        <pt x="145" y="292" on="0"/>
        <pt x="188" y="190" on="0"/>
        <pt x="263" y="115" on="0"/>
        <pt x="362" y="71" on="0"/>
        <pt x="419" y="71" on="1"/>
        <pt x="476" y="71" on="0"/>
        <pt x="576" y="115" on="0"/>
        <pt x="651" y="190" on="0"/>
        <pt x="695" y="292" on="0"/>
        <pt x="695" y="349" on="1"/>
        <pt x="695" y="406" on="0"/>
        <pt x="651" y="508" on="0"/>
        <pt x="576" y="585" on="0"/>
        <pt x="476" y="629" on="0"/>
        <pt x="419" y="629" on="1"/>
        <pt x="362" y="629" on="0"/>
        <pt x="263" y="585" on="0"/>
        <pt x="188" y="508" on="0"/>
        <pt x="145" y="406" on="0"/>
      </contour>
      <contour>
        <pt x="62" y="349" on="1"/>
        <pt x="62" y="423" on="0"/>
        <pt x="118" y="554" on="0"/>
        <pt x="215" y="651" on="0"/>
        <pt x="345" y="708" on="0"/>
        <pt x="419" y="708" on="1"/>
        <pt x="493" y="708" on="0"/>
        <pt x="624" y="651" on="0"/>
        <pt x="721" y="554" on="0"/>
        <pt x="778" y="423" on="0"/>
        <pt x="778" y="349" on="1"/>
        <pt x="778" y="268" on="0"/>
        <pt x="710" y="128" on="0"/>
        <pt x="653" y="79" on="1"/>
        <pt x="800" y="79" on="1"/>
        <pt x="800" y="0" on="1"/>
        <pt x="493" y="0" on="1"/>
        <pt x="455" y="-8" on="0"/>
        <pt x="419" y="-8" on="1"/>
        <pt x="345" y="-8" on="0"/>
        <pt x="215" y="48" on="0"/>
        <pt x="118" y="145" on="0"/>
        <pt x="62" y="275" on="0"/>
      </contour>
    </TTGlyph>
    <TTGlyph name="R" xMin="58" yMin="0" xMax="463" yMax="700">
      <contour>
        <pt x="141" y="392" on="1"/>
        <pt x="228" y="392" on="1"/>
        <pt x="272" y="392" on="0"/>
        <pt x="329" y="415" on="0"/>
        <pt x="363" y="449" on="0"/>
        <pt x="377" y="491" on="0"/>
        <pt x="377" y="510" on="1"/>
        <pt x="377" y="532" on="0"/>
        <pt x="354" y="573" on="0"/>
        <pt x="315" y="604" on="0"/>
        <pt x="260" y="622" on="0"/>
        <pt x="229" y="622" on="1"/>
        <pt x="141" y="622" on="1"/>
      </contour>
      <contour>
        <pt x="58" y="0" on="1"/>
        <pt x="58" y="700" on="1"/>
        <pt x="223" y="700" on="1"/>
        <pt x="257" y="700" on="0"/>
        <pt x="340" y="679" on="0"/>
        <pt x="412" y="633" on="0"/>
        <pt x="460" y="561" on="0"/>
        <pt x="460" y="510" on="1"/>
        <pt x="460" y="435" on="0"/>
        <pt x="385" y="334" on="0"/>
        <pt x="313" y="318" on="1"/>
        <pt x="463" y="0" on="1"/>
        <pt x="373" y="0" on="1"/>
        <pt x="226" y="312" on="1"/>
        <pt x="209" y="312" on="1"/>
        <pt x="141" y="312" on="1"/>
        <pt x="141" y="0" on="1"/>
      </contour>
    </TTGlyph>
    <TTGlyph name="S" xMin="46" yMin="-8" xMax="484" yMax="704">
      <contour>
        <pt x="449" y="631" on="1"/>
        <pt x="437" y="616" on="0"/>
        <pt x="414" y="586" on="0"/>
        <pt x="402" y="571" on="1"/>
        <pt x="394" y="579" on="0"/>
        <pt x="368" y="598" on="0"/>
        <pt x="335" y="614" on="0"/>
        <pt x="294" y="625" on="0"/>
        <pt x="271" y="625" on="1"/>
        <pt x="213" y="625" on="0"/>
        <pt x="157" y="559" on="0"/>
        <pt x="157" y="514" on="1"/>
        <pt x="157" y="489" on="0"/>
        <pt x="176" y="455" on="0"/>
        <pt x="207" y="432" on="0"/>
        <pt x="246" y="416" on="0"/>
        <pt x="267" y="409" on="1"/>
        <pt x="300" y="397" on="0"/>
        <pt x="376" y="364" on="0"/>
        <pt x="441" y="313" on="0"/>
        <pt x="484" y="239" on="0"/>
        <pt x="484" y="187" on="1"/>
        <pt x="484" y="142" on="0"/>
        <pt x="451" y="70" on="0"/>
        <pt x="394" y="19" on="0"/>
        <pt x="318" y="-8" on="0"/>
        <pt x="276" y="-8" on="1"/>
        <pt x="238" y="-8" on="0"/>
        <pt x="166" y="13" on="0"/>
        <pt x="106" y="46" on="0"/>
        <pt x="59" y="86" on="0"/>
        <pt x="46" y="106" on="1"/>
        <pt x="98" y="158" on="1"/>
        <pt x="111" y="144" on="0"/>
        <pt x="147" y="113" on="0"/>
        <pt x="189" y="87" on="0"/>
        <pt x="239" y="71" on="0"/>
        <pt x="268" y="71" on="1"/>
        <pt x="294" y="71" on="0"/>
        <pt x="342" y="86" on="0"/>
        <pt x="379" y="115" on="0"/>
        <pt x="401" y="159" on="0"/>
        <pt x="401" y="188" on="1"/>
        <pt x="401" y="228" on="0"/>
        <pt x="362" y="278" on="0"/>
        <pt x="305" y="311" on="0"/>
        <pt x="243" y="331" on="0"/>
        <pt x="220" y="340" on="1"/>
        <pt x="202" y="347" on="0"/>
        <pt x="152" y="371" on="0"/>
        <pt x="107" y="412" on="0"/>
        <pt x="75" y="473" on="0"/>
        <pt x="74" y="517" on="1"/>
        <pt x="73" y="550" on="0"/>
        <pt x="93" y="616" on="0"/>
        <pt x="139" y="670" on="0"/>
        <pt x="215" y="704" on="0"/>
        <pt x="270" y="704" on="1"/>
        <pt x="310" y="704" on="0"/>
        <pt x="396" y="676" on="0"/>
      </contour>
    </TTGlyph>
    <TTGlyph name="T" xMin="0" yMin="0" xMax="553" yMax="700">
      <contour>
        <pt x="553" y="700" on="1"/>
        <pt x="553" y="621" on="1"/>
        <pt x="319" y="621" on="1"/>
        <pt x="319" y="0" on="1"/>
        <pt x="236" y="0" on="1"/>
        <pt x="236" y="621" on="1"/>
        <pt x="0" y="621" on="1"/>
        <pt x="0" y="700" on="1"/>
      </contour>
    </TTGlyph>
    <TTGlyph name="Thorn" xMin="100" yMin="0" xMax="502" yMax="700">
      <contour>
        <pt x="183" y="227" on="1"/>
        <pt x="270" y="227" on="1"/>
        <pt x="314" y="227" on="0"/>
        <pt x="371" y="250" on="0"/>
        <pt x="405" y="284" on="0"/>
        <pt x="419" y="326" on="0"/>
        <pt x="419" y="345" on="1"/>
        <pt x="419" y="367" on="0"/>
        <pt x="396" y="408" on="0"/>
        <pt x="357" y="439" on="0"/>
        <pt x="302" y="457" on="0"/>
        <pt x="271" y="457" on="1"/>
        <pt x="183" y="457" on="1"/>
      </contour>
      <contour>
        <pt x="183" y="0" on="1"/>
        <pt x="100" y="0" on="1"/>
        <pt x="100" y="700" on="1"/>
        <pt x="183" y="700" on="1"/>
        <pt x="183" y="535" on="1"/>
        <pt x="265" y="535" on="1"/>
        <pt x="299" y="535" on="0"/>
        <pt x="382" y="514" on="0"/>
        <pt x="454" y="468" on="0"/>
        <pt x="502" y="396" on="0"/>
        <pt x="502" y="345" on="1"/>
        <pt x="502" y="254" on="0"/>
        <pt x="394" y="147" on="0"/>
        <pt x="292" y="147" on="1"/>
        <pt x="183" y="147" on="1"/>
      </contour>
    </TTGlyph>
    <TTGlyph name="U" xMin="76" yMin="-8" xMax="581" yMax="700">
      <contour>
        <pt x="328" y="-8" on="1"/>
        <pt x="274" y="-8" on="0"/>
        <pt x="182" y="22" on="0"/>
        <pt x="114" y="81" on="0"/>
        <pt x="76" y="169" on="0"/>
        <pt x="76" y="226" on="1"/>
        <pt x="76" y="700" on="1"/>
        <pt x="159" y="700" on="1"/>
        <pt x="159" y="229" on="1"/>
        <pt x="159" y="191" on="0"/>
        <pt x="184" y="132" on="0"/>
        <pt x="229" y="92" on="0"/>
        <pt x="291" y="71" on="0"/>
        <pt x="328" y="71" on="1"/>
        <pt x="365" y="71" on="0"/>
        <pt x="427" y="92" on="0"/>
        <pt x="472" y="132" on="0"/>
        <pt x="498" y="191" on="0"/>
        <pt x="498" y="229" on="1"/>
        <pt x="498" y="700" on="1"/>
        <pt x="581" y="700" on="1"/>
        <pt x="581" y="226" on="1"/>
        <pt x="581" y="169" on="0"/>
        <pt x="542" y="81" on="0"/>
        <pt x="474" y="22" on="0"/>
        <pt x="382" y="-8" on="0"/>
      </contour>
    </TTGlyph>
    <TTGlyph name="Uacute" xMin="76" yMin="-8" xMax="581" yMax="883">
      <component glyphName="U" x="0" y="0" flags="0x204"/>
      <component glyphName="acute" x="200" y="271" flags="0x4"/>
    </TTGlyph>
    <TTGlyph name="Ucircumflex" xMin="76" yMin="-8" xMax="581" yMax="932">
      <component glyphName="U" x="0" y="0" flags="0x204"/>
      <component glyphName="asciicircum" x="94" y="272" flags="0x4"/>
    </TTGlyph>
    <TTGlyph name="Udieresis" xMin="76" yMin="-8" xMax="581" yMax="863">
      <component glyphName="U" x="0" y="0" flags="0x204"/>
      <component glyphName="dieresis" x="147" y="290" flags="0x4"/>
    </TTGlyph>
    <TTGlyph name="Ugrave" xMin="76" yMin="-8" xMax="581" yMax="883">
      <component glyphName="U" x="0" y="0" flags="0x204"/>
      <component glyphName="grave" x="237" y="271" flags="0x4"/>
    </TTGlyph>
    <TTGlyph name="V" xMin="54" yMin="-32" xMax="674" yMax="700">
      <contour>
        <pt x="591" y="700" on="1"/>
        <pt x="674" y="700" on="1"/>
        <pt x="596" y="516" on="0"/>
        <pt x="442" y="152" on="0"/>
        <pt x="364" y="-32" on="1"/>
        <pt x="286" y="152" on="0"/>
        <pt x="132" y="516" on="0"/>
        <pt x="54" y="700" on="1"/>
        <pt x="137" y="700" on="1"/>
        <pt x="192" y="570" on="0"/>
        <pt x="300" y="315" on="0"/>
        <pt x="355" y="185" on="1"/>
        <pt x="364" y="152" on="1"/>
        <pt x="373" y="185" on="1"/>
        <pt x="428" y="315" on="0"/>
        <pt x="536" y="570" on="0"/>
      </contour>
    </TTGlyph>
    <TTGlyph name="W" xMin="54" yMin="-32" xMax="1047" yMax="700">
      <contour>
        <pt x="964" y="700" on="1"/>
        <pt x="1047" y="700" on="1"/>
        <pt x="969" y="516" on="0"/>
        <pt x="815" y="152" on="0"/>
        <pt x="737" y="-32" on="1"/>
        <pt x="560" y="385" on="1"/>
        <pt x="558" y="394" on="0"/>
        <pt x="552" y="411" on="0"/>
        <pt x="550" y="420" on="1"/>
        <pt x="536" y="364" on="0"/>
        <pt x="492" y="249" on="0"/>
        <pt x="440" y="135" on="0"/>
        <pt x="387" y="22" on="0"/>
        <pt x="364" y="-32" on="1"/>
        <pt x="286" y="152" on="0"/>
        <pt x="132" y="516" on="0"/>
        <pt x="54" y="700" on="1"/>
        <pt x="137" y="700" on="1"/>
        <pt x="192" y="570" on="0"/>
        <pt x="300" y="315" on="0"/>
        <pt x="355" y="185" on="1"/>
        <pt x="364" y="152" on="1"/>
        <pt x="376" y="197" on="0"/>
        <pt x="411" y="286" on="0"/>
        <pt x="450" y="375" on="0"/>
        <pt x="491" y="463" on="0"/>
        <pt x="509" y="506" on="1"/>
        <pt x="489" y="555" on="0"/>
        <pt x="447" y="651" on="0"/>
        <pt x="427" y="700" on="1"/>
        <pt x="510" y="700" on="1"/>
        <pt x="565" y="570" on="0"/>
        <pt x="673" y="315" on="0"/>
        <pt x="728" y="185" on="1"/>
        <pt x="737" y="152" on="1"/>
        <pt x="746" y="185" on="1"/>
        <pt x="801" y="315" on="0"/>
        <pt x="909" y="570" on="0"/>
      </contour>
    </TTGlyph>
    <TTGlyph name="X" xMin="93" yMin="0" xMax="661" yMax="700">
      <contour>
        <pt x="326" y="357" on="1"/>
        <pt x="270" y="443" on="0"/>
        <pt x="159" y="614" on="0"/>
        <pt x="103" y="700" on="1"/>
        <pt x="205" y="700" on="1"/>
        <pt x="246" y="637" on="0"/>
        <pt x="327" y="512" on="0"/>
        <pt x="368" y="449" on="1"/>
        <pt x="371" y="442" on="0"/>
        <pt x="378" y="429" on="0"/>
        <pt x="381" y="422" on="1"/>
        <pt x="384" y="429" on="0"/>
        <pt x="391" y="442" on="0"/>
        <pt x="394" y="449" on="1"/>
        <pt x="435" y="512" on="0"/>
        <pt x="516" y="637" on="0"/>
        <pt x="557" y="700" on="1"/>
        <pt x="659" y="700" on="1"/>
        <pt x="602" y="612" on="0"/>
        <pt x="489" y="439" on="0"/>
        <pt x="432" y="351" on="1"/>
        <pt x="489" y="263" on="0"/>
        <pt x="604" y="88" on="0"/>
        <pt x="661" y="0" on="1"/>
        <pt x="558" y="0" on="1"/>
        <pt x="390" y="258" on="1"/>
        <pt x="386" y="265" on="0"/>
        <pt x="380" y="279" on="0"/>
        <pt x="376" y="286" on="1"/>
        <pt x="373" y="279" on="0"/>
        <pt x="366" y="265" on="0"/>
        <pt x="363" y="258" on="1"/>
        <pt x="321" y="193" on="0"/>
        <pt x="238" y="65" on="0"/>
        <pt x="196" y="0" on="1"/>
        <pt x="93" y="0" on="1"/>
        <pt x="152" y="90" on="0"/>
        <pt x="267" y="267" on="0"/>
      </contour>
    </TTGlyph>
    <TTGlyph name="Y" xMin="12" yMin="0" xMax="623" yMax="700">
      <contour>
        <pt x="369" y="269" on="1"/>
        <pt x="369" y="0" on="1"/>
        <pt x="267" y="0" on="1"/>
        <pt x="267" y="270" on="1"/>
        <pt x="203" y="378" on="0"/>
        <pt x="76" y="592" on="0"/>
        <pt x="12" y="700" on="1"/>
        <pt x="114" y="700" on="1"/>
        <pt x="162" y="619" on="0"/>
        <pt x="258" y="458" on="0"/>
        <pt x="306" y="377" on="1"/>
        <pt x="309" y="369" on="0"/>
        <pt x="314" y="354" on="0"/>
        <pt x="317" y="346" on="1"/>
        <pt x="318" y="346" on="1"/>
        <pt x="321" y="354" on="0"/>
        <pt x="327" y="369" on="0"/>
        <pt x="330" y="377" on="1"/>
        <pt x="378" y="458" on="0"/>
        <pt x="473" y="619" on="0"/>
        <pt x="521" y="700" on="1"/>
        <pt x="623" y="700" on="1"/>
        <pt x="559" y="591" on="0"/>
        <pt x="433" y="378" on="0"/>
      </contour>
    </TTGlyph>
    <TTGlyph name="Yacute" xMin="12" yMin="0" xMax="623" yMax="883">
      <component glyphName="Y" x="0" y="0" flags="0x204"/>
      <component glyphName="acute" x="178" y="271" flags="0x4"/>
    </TTGlyph>
    <TTGlyph name="Z" xMin="81" yMin="0" xMax="640" yMax="735">
      <contour>
        <pt x="210" y="700" on="1"/>
        <pt x="611" y="700" on="1"/>
        <pt x="611" y="621" on="1"/>
        <pt x="503" y="485" on="0"/>
        <pt x="291" y="216" on="0"/>
        <pt x="183" y="80" on="1"/>
        <pt x="640" y="80" on="1"/>
        <pt x="640" y="0" on="1"/>
        <pt x="81" y="0" on="1"/>
        <pt x="81" y="80" on="1"/>
        <pt x="189" y="216" on="0"/>
        <pt x="401" y="485" on="0"/>
        <pt x="509" y="621" on="1"/>
        <pt x="171" y="621" on="1"/>
        <pt x="140" y="621" on="0"/>
        <pt x="97" y="657" on="0"/>
        <pt x="97" y="686" on="1"/>
        <pt x="97" y="735" on="1"/>
        <pt x="180" y="735" on="1"/>
        <pt x="180" y="723" on="1"/>
        <pt x="180" y="707" on="0"/>
        <pt x="193" y="700" on="0"/>
      </contour>
    </TTGlyph>
    <TTGlyph name="a" xMin="49" yMin="-9" xMax="450" yMax="384">
      <contour>
        <pt x="133" y="188" on="1"/>
        <pt x="133" y="139" on="0"/>
        <pt x="198" y="72" on="0"/>
        <pt x="250" y="72" on="1"/>
        <pt x="302" y="72" on="0"/>
        <pt x="367" y="139" on="0"/>
        <pt x="367" y="188" on="1"/>
        <pt x="367" y="238" on="0"/>
        <pt x="302" y="303" on="0"/>
        <pt x="250" y="303" on="1"/>
        <pt x="198" y="303" on="0"/>
        <pt x="133" y="238" on="0"/>
      </contour>
      <contour>
        <pt x="49" y="187" on="1"/>
        <pt x="49" y="226" on="0"/>
        <pt x="80" y="298" on="0"/>
        <pt x="134" y="352" on="0"/>
        <pt x="208" y="384" on="0"/>
        <pt x="250" y="384" on="1"/>
        <pt x="277" y="384" on="0"/>
        <pt x="323" y="368" on="0"/>
        <pt x="357" y="349" on="0"/>
        <pt x="377" y="331" on="0"/>
        <pt x="377" y="328" on="1"/>
        <pt x="377" y="339" on="0"/>
        <pt x="381" y="363" on="0"/>
        <pt x="381" y="375" on="1"/>
        <pt x="450" y="375" on="1"/>
        <pt x="450" y="0" on="1"/>
        <pt x="377" y="0" on="1"/>
        <pt x="377" y="32" on="1"/>
        <pt x="377" y="41" on="1"/>
        <pt x="377" y="38" on="0"/>
        <pt x="359" y="22" on="0"/>
        <pt x="327" y="5" on="0"/>
        <pt x="280" y="-9" on="0"/>
        <pt x="250" y="-9" on="1"/>
        <pt x="208" y="-9" on="0"/>
        <pt x="134" y="22" on="0"/>
        <pt x="80" y="76" on="0"/>
        <pt x="49" y="147" on="0"/>
      </contour>
    </TTGlyph>
    <TTGlyph name="aacute" xMin="49" yMin="-9" xMax="450" yMax="612">
      <component glyphName="a" x="0" y="0" flags="0x4"/>
      <component glyphName="acute" x="132" y="0" flags="0x4"/>
    </TTGlyph>
    <TTGlyph name="acircumflex" xMin="49" yMin="-9" xMax="450" yMax="660">
      <component glyphName="a" x="0" y="0" flags="0x4"/>
      <component glyphName="asciicircum" x="29" y="0" flags="0x4"/>
    </TTGlyph>
    <TTGlyph name="acute" xMin="100" yMin="479" xMax="274" yMax="612">
      <contour>
        <pt x="100" y="479" on="1"/>
        <pt x="123" y="512" on="0"/>
        <pt x="167" y="579" on="0"/>
        <pt x="190" y="612" on="1"/>
        <pt x="274" y="612" on="1"/>
        <pt x="245" y="579" on="0"/>
        <pt x="188" y="512" on="0"/>
        <pt x="159" y="479" on="1"/>
      </contour>
    </TTGlyph>
    <TTGlyph name="adieresis" xMin="49" yMin="-9" xMax="450" yMax="573">
      <component glyphName="a" x="0" y="0" flags="0x4"/>
      <component glyphName="dieresis" x="78" y="0" flags="0x4"/>
    </TTGlyph>
    <TTGlyph name="ae" xMin="43" yMin="-8" xMax="586" yMax="385">
      <contour>
        <pt x="360" y="244" on="1"/>
        <pt x="360" y="222" on="1"/>
        <pt x="390" y="233" on="0"/>
        <pt x="450" y="255" on="0"/>
        <pt x="480" y="266" on="1"/>
        <pt x="466" y="283" on="0"/>
        <pt x="431" y="304" on="0"/>
        <pt x="410" y="304" on="1"/>
        <pt x="381" y="304" on="0"/>
        <pt x="357" y="293" on="1"/>
        <pt x="360" y="272" on="0"/>
      </contour>
      <contour>
        <pt x="276" y="136" on="1"/>
        <pt x="220" y="136" on="1"/>
        <pt x="206" y="136" on="0"/>
        <pt x="173" y="134" on="0"/>
        <pt x="145" y="128" on="0"/>
        <pt x="127" y="117" on="0"/>
        <pt x="127" y="108" on="1"/>
        <pt x="127" y="87" on="0"/>
        <pt x="175" y="73" on="0"/>
        <pt x="202" y="73" on="1"/>
        <pt x="213" y="73" on="0"/>
        <pt x="239" y="74" on="0"/>
        <pt x="261" y="80" on="0"/>
        <pt x="276" y="95" on="0"/>
        <pt x="276" y="110" on="1"/>
      </contour>
      <contour>
        <pt x="102" y="276" on="1"/>
        <pt x="91" y="290" on="0"/>
        <pt x="69" y="315" on="0"/>
        <pt x="58" y="329" on="1"/>
        <pt x="69" y="340" on="0"/>
        <pt x="104" y="361" on="0"/>
        <pt x="144" y="376" on="0"/>
        <pt x="186" y="385" on="0"/>
        <pt x="205" y="385" on="1"/>
        <pt x="283" y="385" on="0"/>
        <pt x="317" y="363" on="1"/>
        <pt x="361" y="385" on="0"/>
        <pt x="410" y="385" on="1"/>
        <pt x="441" y="385" on="0"/>
        <pt x="498" y="360" on="0"/>
        <pt x="543" y="316" on="0"/>
        <pt x="577" y="255" on="0"/>
        <pt x="586" y="219" on="1"/>
        <pt x="529" y="198" on="0"/>
        <pt x="417" y="156" on="0"/>
        <pt x="360" y="135" on="1"/>
        <pt x="360" y="131" on="1"/>
        <pt x="360" y="107" on="0"/>
        <pt x="355" y="84" on="1"/>
        <pt x="367" y="78" on="0"/>
        <pt x="395" y="73" on="0"/>
        <pt x="410" y="73" on="1"/>
        <pt x="456" y="73" on="0"/>
        <pt x="486" y="105" on="1"/>
        <pt x="537" y="45" on="1"/>
        <pt x="512" y="20" on="0"/>
        <pt x="448" y="-8" on="0"/>
        <pt x="410" y="-8" on="1"/>
        <pt x="357" y="-8" on="0"/>
        <pt x="312" y="17" on="1"/>
        <pt x="275" y="-8" on="0"/>
        <pt x="203" y="-8" on="1"/>
        <pt x="167" y="-8" on="0"/>
        <pt x="108" y="3" on="0"/>
        <pt x="66" y="31" on="0"/>
        <pt x="43" y="77" on="0"/>
        <pt x="43" y="112" on="1"/>
        <pt x="43" y="143" on="0"/>
        <pt x="67" y="186" on="0"/>
        <pt x="108" y="211" on="0"/>
        <pt x="160" y="222" on="0"/>
        <pt x="187" y="222" on="1"/>
        <pt x="276" y="222" on="1"/>
        <pt x="276" y="246" on="1"/>
        <pt x="276" y="261" on="0"/>
        <pt x="271" y="282" on="0"/>
        <pt x="256" y="297" on="0"/>
        <pt x="227" y="304" on="0"/>
        <pt x="204" y="304" on="1"/>
        <pt x="191" y="304" on="0"/>
        <pt x="162" y="299" on="0"/>
        <pt x="134" y="291" on="0"/>
        <pt x="109" y="281" on="0"/>
      </contour>
    </TTGlyph>
    <TTGlyph name="agrave" xMin="49" yMin="-9" xMax="450" yMax="612">
      <component glyphName="a" x="0" y="0" flags="0x4"/>
      <component glyphName="grave" x="155" y="0" flags="0x4"/>
    </TTGlyph>
    <TTGlyph name="ampersand" xMin="105" yMin="-19" xMax="601" yMax="750">
      <contour>
        <pt x="188" y="188" on="1"/>
        <pt x="188" y="139" on="0"/>
        <pt x="253" y="72" on="0"/>
        <pt x="305" y="72" on="1"/>
        <pt x="343" y="72" on="0"/>
        <pt x="400" y="110" on="0"/>
        <pt x="413" y="141" on="1"/>
        <pt x="314" y="303" on="1"/>
        <pt x="258" y="303" on="0"/>
        <pt x="188" y="242" on="0"/>
      </contour>
      <contour>
        <pt x="506" y="194" on="1"/>
        <pt x="506" y="187" on="1"/>
        <pt x="506" y="167" on="0"/>
        <pt x="501" y="145" on="1"/>
        <pt x="520" y="115" on="0"/>
        <pt x="557" y="54" on="0"/>
        <pt x="576" y="24" on="1"/>
        <pt x="559" y="13" on="0"/>
        <pt x="528" y="-8" on="0"/>
        <pt x="511" y="-19" on="1"/>
        <pt x="498" y="1" on="0"/>
        <pt x="474" y="43" on="0"/>
        <pt x="461" y="63" on="1"/>
        <pt x="433" y="30" on="0"/>
        <pt x="353" y="-9" on="0"/>
        <pt x="305" y="-9" on="1"/>
        <pt x="263" y="-9" on="0"/>
        <pt x="190" y="22" on="0"/>
        <pt x="136" y="76" on="0"/>
        <pt x="105" y="147" on="0"/>
        <pt x="105" y="188" on="1"/>
        <pt x="105" y="224" on="0"/>
        <pt x="129" y="288" on="0"/>
        <pt x="173" y="339" on="0"/>
        <pt x="231" y="374" on="0"/>
        <pt x="266" y="380" on="1"/>
        <pt x="249" y="409" on="0"/>
        <pt x="213" y="467" on="0"/>
        <pt x="196" y="496" on="1"/>
        <pt x="178" y="526" on="0"/>
        <pt x="163" y="590" on="0"/>
        <pt x="173" y="651" on="0"/>
        <pt x="210" y="706" on="0"/>
        <pt x="243" y="726" on="1"/>
        <pt x="271" y="743" on="0"/>
        <pt x="330" y="750" on="0"/>
        <pt x="386" y="739" on="0"/>
        <pt x="435" y="717" on="0"/>
        <pt x="454" y="705" on="1"/>
        <pt x="446" y="688" on="0"/>
        <pt x="429" y="657" on="0"/>
        <pt x="421" y="640" on="1"/>
        <pt x="411" y="646" on="0"/>
        <pt x="380" y="661" on="0"/>
        <pt x="346" y="669" on="0"/>
        <pt x="312" y="669" on="0"/>
        <pt x="299" y="660" on="1"/>
        <pt x="258" y="634" on="0"/>
        <pt x="249" y="554" on="0"/>
        <pt x="273" y="515" on="1"/>
        <pt x="311" y="454" on="0"/>
        <pt x="384" y="334" on="0"/>
        <pt x="422" y="273" on="1"/>
        <pt x="423" y="290" on="0"/>
        <pt x="427" y="315" on="0"/>
        <pt x="430" y="326" on="1"/>
        <pt x="437" y="348" on="0"/>
        <pt x="463" y="369" on="0"/>
        <pt x="496" y="376" on="0"/>
        <pt x="534" y="375" on="0"/>
        <pt x="554" y="375" on="1"/>
        <pt x="601" y="375" on="1"/>
        <pt x="601" y="294" on="1"/>
        <pt x="557" y="294" on="1"/>
        <pt x="542" y="294" on="0"/>
        <pt x="522" y="287" on="0"/>
        <pt x="510" y="266" on="0"/>
        <pt x="506" y="226" on="0"/>
      </contour>
    </TTGlyph>
    <TTGlyph name="aring" xMin="49" yMin="-9" xMax="450" yMax="627">
      <contour>
        <pt x="218" y="539" on="1"/>
        <pt x="218" y="525" on="0"/>
        <pt x="236" y="507" on="0"/>
        <pt x="250" y="507" on="1"/>
        <pt x="264" y="507" on="0"/>
        <pt x="283" y="525" on="0"/>
        <pt x="283" y="539" on="1"/>
        <pt x="283" y="553" on="0"/>
        <pt x="264" y="572" on="0"/>
        <pt x="250" y="572" on="1"/>
        <pt x="236" y="572" on="0"/>
        <pt x="218" y="553" on="0"/>
      </contour>
      <contour>
        <pt x="163" y="540" on="1"/>
        <pt x="163" y="558" on="0"/>
        <pt x="177" y="589" on="0"/>
        <pt x="201" y="613" on="0"/>
        <pt x="232" y="627" on="0"/>
        <pt x="250" y="627" on="1"/>
        <pt x="268" y="627" on="0"/>
        <pt x="299" y="613" on="0"/>
        <pt x="323" y="589" on="0"/>
        <pt x="337" y="558" on="0"/>
        <pt x="337" y="540" on="1"/>
        <pt x="337" y="522" on="0"/>
        <pt x="323" y="491" on="0"/>
        <pt x="299" y="467" on="0"/>
        <pt x="268" y="453" on="0"/>
        <pt x="250" y="453" on="1"/>
        <pt x="232" y="453" on="0"/>
        <pt x="201" y="467" on="0"/>
        <pt x="177" y="491" on="0"/>
        <pt x="163" y="522" on="0"/>
      </contour>
      <contour>
        <pt x="133" y="188" on="1"/>
        <pt x="133" y="139" on="0"/>
        <pt x="198" y="72" on="0"/>
        <pt x="250" y="72" on="1"/>
        <pt x="302" y="72" on="0"/>
        <pt x="367" y="139" on="0"/>
        <pt x="367" y="188" on="1"/>
        <pt x="367" y="238" on="0"/>
        <pt x="302" y="303" on="0"/>
        <pt x="250" y="303" on="1"/>
        <pt x="198" y="303" on="0"/>
        <pt x="133" y="238" on="0"/>
      </contour>
      <contour>
        <pt x="49" y="187" on="1"/>
        <pt x="49" y="226" on="0"/>
        <pt x="80" y="298" on="0"/>
        <pt x="134" y="352" on="0"/>
        <pt x="208" y="384" on="0"/>
        <pt x="250" y="384" on="1"/>
        <pt x="277" y="384" on="0"/>
        <pt x="323" y="368" on="0"/>
        <pt x="357" y="349" on="0"/>
        <pt x="377" y="331" on="0"/>
        <pt x="377" y="328" on="1"/>
        <pt x="377" y="339" on="0"/>
        <pt x="381" y="363" on="0"/>
        <pt x="381" y="375" on="1"/>
        <pt x="450" y="375" on="1"/>
        <pt x="450" y="0" on="1"/>
        <pt x="377" y="0" on="1"/>
        <pt x="377" y="32" on="1"/>
        <pt x="377" y="41" on="1"/>
        <pt x="377" y="38" on="0"/>
        <pt x="359" y="22" on="0"/>
        <pt x="327" y="5" on="0"/>
        <pt x="280" y="-9" on="0"/>
        <pt x="250" y="-9" on="1"/>
        <pt x="208" y="-9" on="0"/>
        <pt x="134" y="22" on="0"/>
        <pt x="80" y="76" on="0"/>
        <pt x="49" y="147" on="0"/>
      </contour>
    </TTGlyph>
    <TTGlyph name="asciicircum" xMin="112" yMin="479" xMax="352" yMax="660">
      <contour>
        <pt x="232" y="660" on="1"/>
        <pt x="262" y="615" on="0"/>
        <pt x="322" y="524" on="0"/>
        <pt x="352" y="479" on="1"/>
        <pt x="293" y="479" on="1"/>
        <pt x="278" y="497" on="0"/>
        <pt x="247" y="533" on="0"/>
        <pt x="232" y="551" on="1"/>
        <pt x="217" y="533" on="0"/>
        <pt x="186" y="497" on="0"/>
        <pt x="171" y="479" on="1"/>
        <pt x="112" y="479" on="1"/>
        <pt x="142" y="524" on="0"/>
        <pt x="202" y="615" on="0"/>
      </contour>
    </TTGlyph>
    <TTGlyph name="asciitilde" xMin="121" yMin="449" xMax="439" yMax="552">
      <contour>
        <pt x="271" y="481" on="1"/>
        <pt x="256" y="497" on="0"/>
        <pt x="233" y="507" on="0"/>
        <pt x="219" y="507" on="1"/>
        <pt x="205" y="507" on="0"/>
        <pt x="169" y="489" on="0"/>
        <pt x="166" y="461" on="1"/>
        <pt x="121" y="464" on="1"/>
        <pt x="122" y="484" on="0"/>
        <pt x="140" y="517" on="0"/>
        <pt x="166" y="540" on="0"/>
        <pt x="197" y="552" on="0"/>
        <pt x="212" y="552" on="1"/>
        <pt x="235" y="552" on="0"/>
        <pt x="272" y="534" on="0"/>
        <pt x="289" y="519" on="1"/>
        <pt x="304" y="503" on="0"/>
        <pt x="327" y="493" on="0"/>
        <pt x="341" y="493" on="1"/>
        <pt x="348" y="493" on="0"/>
        <pt x="365" y="497" on="0"/>
        <pt x="381" y="507" on="0"/>
        <pt x="392" y="525" on="0"/>
        <pt x="394" y="539" on="1"/>
        <pt x="439" y="536" on="1"/>
        <pt x="438" y="516" on="0"/>
        <pt x="420" y="483" on="0"/>
        <pt x="394" y="461" on="0"/>
        <pt x="363" y="449" on="0"/>
        <pt x="348" y="449" on="1"/>
        <pt x="325" y="449" on="0"/>
        <pt x="288" y="467" on="0"/>
      </contour>
    </TTGlyph>
    <TTGlyph name="asterisk" xMin="25" yMin="434" xMax="315" yMax="720">
      <contour>
        <pt x="250" y="575" on="1"/>
        <pt x="313" y="539" on="1"/>
        <pt x="302" y="521" on="0"/>
        <pt x="282" y="484" on="0"/>
        <pt x="271" y="466" on="1"/>
        <pt x="255" y="475" on="0"/>
        <pt x="225" y="494" on="0"/>
        <pt x="209" y="503" on="1"/>
        <pt x="209" y="486" on="0"/>
        <pt x="208" y="451" on="0"/>
        <pt x="208" y="434" on="1"/>
        <pt x="128" y="434" on="1"/>
        <pt x="128" y="504" on="1"/>
        <pt x="113" y="495" on="0"/>
        <pt x="82" y="478" on="0"/>
        <pt x="67" y="469" on="1"/>
        <pt x="56" y="487" on="0"/>
        <pt x="36" y="524" on="0"/>
        <pt x="25" y="542" on="1"/>
        <pt x="41" y="550" on="0"/>
        <pt x="71" y="568" on="0"/>
        <pt x="87" y="576" on="1"/>
        <pt x="72" y="585" on="0"/>
        <pt x="41" y="604" on="0"/>
        <pt x="26" y="613" on="1"/>
        <pt x="65" y="682" on="1"/>
        <pt x="81" y="673" on="0"/>
        <pt x="112" y="654" on="0"/>
        <pt x="128" y="645" on="1"/>
        <pt x="128" y="720" on="1"/>
        <pt x="212" y="720" on="1"/>
        <pt x="212" y="701" on="0"/>
        <pt x="211" y="664" on="0"/>
        <pt x="211" y="645" on="1"/>
        <pt x="227" y="654" on="0"/>
        <pt x="259" y="672" on="0"/>
        <pt x="275" y="681" on="1"/>
        <pt x="285" y="664" on="0"/>
        <pt x="305" y="629" on="0"/>
        <pt x="315" y="612" on="1"/>
        <pt x="298" y="603" on="0"/>
        <pt x="267" y="584" on="0"/>
      </contour>
    </TTGlyph>
    <TTGlyph name="at" xMin="65" yMin="-232" xMax="910" yMax="610">
      <contour>
        <pt x="368" y="188" on="1"/>
        <pt x="368" y="139" on="0"/>
        <pt x="433" y="72" on="0"/>
        <pt x="485" y="72" on="1"/>
        <pt x="537" y="72" on="0"/>
        <pt x="602" y="139" on="0"/>
        <pt x="602" y="188" on="1"/>
        <pt x="602" y="238" on="0"/>
        <pt x="537" y="303" on="0"/>
        <pt x="485" y="303" on="1"/>
        <pt x="433" y="303" on="0"/>
        <pt x="368" y="238" on="0"/>
      </contour>
      <contour>
        <pt x="910" y="188" on="1"/>
        <pt x="906" y="135" on="0"/>
        <pt x="865" y="64" on="0"/>
        <pt x="809" y="19" on="0"/>
        <pt x="745" y="0" on="0"/>
        <pt x="718" y="0" on="1"/>
        <pt x="612" y="0" on="1"/>
        <pt x="612" y="20" on="1"/>
        <pt x="612" y="40" on="1"/>
        <pt x="611" y="37" on="0"/>
        <pt x="593" y="21" on="0"/>
        <pt x="560" y="5" on="0"/>
        <pt x="514" y="-9" on="0"/>
        <pt x="485" y="-9" on="1"/>
        <pt x="443" y="-9" on="0"/>
        <pt x="369" y="22" on="0"/>
        <pt x="315" y="76" on="0"/>
        <pt x="284" y="147" on="0"/>
        <pt x="284" y="187" on="1"/>
        <pt x="284" y="226" on="0"/>
        <pt x="315" y="297" on="0"/>
        <pt x="369" y="351" on="0"/>
        <pt x="443" y="382" on="0"/>
        <pt x="485" y="382" on="1"/>
        <pt x="511" y="382" on="0"/>
        <pt x="556" y="368" on="0"/>
        <pt x="590" y="349" on="0"/>
        <pt x="610" y="331" on="0"/>
        <pt x="612" y="328" on="1"/>
        <pt x="612" y="339" on="0"/>
        <pt x="616" y="363" on="0"/>
        <pt x="616" y="375" on="1"/>
        <pt x="685" y="375" on="1"/>
        <pt x="685" y="81" on="1"/>
        <pt x="718" y="81" on="1"/>
        <pt x="738" y="81" on="0"/>
        <pt x="776" y="92" on="0"/>
        <pt x="806" y="117" on="0"/>
        <pt x="824" y="158" on="0"/>
        <pt x="826" y="188" on="1"/>
        <pt x="826" y="259" on="0"/>
        <pt x="773" y="383" on="0"/>
        <pt x="681" y="476" on="0"/>
        <pt x="559" y="529" on="0"/>
        <pt x="489" y="529" on="1"/>
        <pt x="418" y="529" on="0"/>
        <pt x="295" y="476" on="0"/>
        <pt x="202" y="383" on="0"/>
        <pt x="149" y="259" on="0"/>
        <pt x="149" y="188" on="1"/>
        <pt x="149" y="117" on="0"/>
        <pt x="202" y="-6" on="0"/>
        <pt x="295" y="-98" on="0"/>
        <pt x="418" y="-151" on="0"/>
        <pt x="489" y="-151" on="1"/>
        <pt x="548" y="-151" on="0"/>
        <pt x="653" y="-116" on="0"/>
        <pt x="698" y="-85" on="1"/>
        <pt x="711" y="-100" on="0"/>
        <pt x="735" y="-129" on="0"/>
        <pt x="748" y="-144" on="1"/>
        <pt x="723" y="-166" on="0"/>
        <pt x="661" y="-199" on="0"/>
        <pt x="592" y="-221" on="0"/>
        <pt x="522" y="-232" on="0"/>
        <pt x="489" y="-232" on="1"/>
        <pt x="401" y="-232" on="0"/>
        <pt x="247" y="-166" on="0"/>
        <pt x="132" y="-52" on="0"/>
        <pt x="65" y="102" on="0"/>
        <pt x="65" y="189" on="1"/>
        <pt x="65" y="276" on="0"/>
        <pt x="132" y="430" on="0"/>
        <pt x="247" y="544" on="0"/>
        <pt x="401" y="610" on="0"/>
        <pt x="489" y="610" on="1"/>
        <pt x="576" y="610" on="0"/>
        <pt x="730" y="544" on="0"/>
        <pt x="844" y="430" on="0"/>
        <pt x="910" y="276" on="0"/>
      </contour>
    </TTGlyph>
    <TTGlyph name="atilde" xMin="49" yMin="-9" xMax="450" yMax="552">
      <component glyphName="a" x="0" y="0" flags="0x4"/>
      <component glyphName="asciitilde" x="-5" y="0" flags="0x4"/>
    </TTGlyph>
    <TTGlyph name="b" xMin="82" yMin="-9" xMax="483" yMax="750">
      <contour>
        <pt x="399" y="188" on="1"/>
        <pt x="399" y="238" on="0"/>
        <pt x="334" y="303" on="0"/>
        <pt x="282" y="303" on="1"/>
        <pt x="230" y="303" on="0"/>
        <pt x="165" y="238" on="0"/>
        <pt x="165" y="188" on="1"/>
        <pt x="165" y="139" on="0"/>
        <pt x="230" y="72" on="0"/>
        <pt x="282" y="72" on="1"/>
        <pt x="334" y="72" on="0"/>
        <pt x="399" y="139" on="0"/>
      </contour>
      <contour>
        <pt x="483" y="188" on="1"/>
        <pt x="483" y="148" on="0"/>
        <pt x="452" y="76" on="0"/>
        <pt x="398" y="22" on="0"/>
        <pt x="324" y="-9" on="0"/>
        <pt x="282" y="-9" on="1"/>
        <pt x="252" y="-9" on="0"/>
        <pt x="205" y="5" on="0"/>
        <pt x="173" y="22" on="0"/>
        <pt x="155" y="38" on="0"/>
        <pt x="155" y="41" on="1"/>
        <pt x="155" y="32" on="1"/>
        <pt x="155" y="0" on="1"/>
        <pt x="82" y="0" on="1"/>
        <pt x="82" y="750" on="1"/>
        <pt x="165" y="750" on="1"/>
        <pt x="165" y="362" on="1"/>
        <pt x="163" y="354" on="0"/>
        <pt x="157" y="338" on="0"/>
        <pt x="155" y="330" on="1"/>
        <pt x="155" y="333" on="0"/>
        <pt x="175" y="350" on="0"/>
        <pt x="209" y="369" on="0"/>
        <pt x="255" y="384" on="0"/>
        <pt x="282" y="384" on="1"/>
        <pt x="324" y="384" on="0"/>
        <pt x="398" y="353" on="0"/>
        <pt x="452" y="299" on="0"/>
        <pt x="483" y="228" on="0"/>
      </contour>
    </TTGlyph>
    <TTGlyph name="backslash" xMin="0" yMin="-19" xMax="372" yMax="736">
      <contour>
        <pt x="94" y="736" on="1"/>
        <pt x="164" y="546" on="0"/>
        <pt x="302" y="171" on="0"/>
        <pt x="372" y="-19" on="1"/>
        <pt x="278" y="-19" on="1"/>
        <pt x="208" y="171" on="0"/>
        <pt x="70" y="546" on="0"/>
        <pt x="0" y="736" on="1"/>
      </contour>
    </TTGlyph>
    <TTGlyph name="bar" xMin="91" yMin="-232" xMax="175" yMax="700">
      <contour>
        <pt x="91" y="-232" on="1"/>
        <pt x="91" y="700" on="1"/>
        <pt x="175" y="700" on="1"/>
        <pt x="175" y="-232" on="1"/>
      </contour>
    </TTGlyph>
    <TTGlyph name="braceleft" xMin="30" yMin="-149" xMax="290" yMax="746">
      <contour>
        <pt x="30" y="256" on="1"/>
        <pt x="30" y="337" on="1"/>
        <pt x="54" y="338" on="0"/>
        <pt x="85" y="365" on="0"/>
        <pt x="103" y="405" on="0"/>
        <pt x="109" y="452" on="0"/>
        <pt x="109" y="472" on="1"/>
        <pt x="109" y="628" on="1"/>
        <pt x="109" y="674" on="0"/>
        <pt x="128" y="723" on="0"/>
        <pt x="160" y="744" on="0"/>
        <pt x="203" y="746" on="0"/>
        <pt x="227" y="746" on="1"/>
        <pt x="290" y="746" on="1"/>
        <pt x="290" y="665" on="1"/>
        <pt x="246" y="665" on="1"/>
        <pt x="231" y="665" on="0"/>
        <pt x="211" y="657" on="0"/>
        <pt x="199" y="634" on="0"/>
        <pt x="194" y="594" on="0"/>
        <pt x="194" y="562" on="1"/>
        <pt x="194" y="433" on="1"/>
        <pt x="194" y="402" on="0"/>
        <pt x="181" y="357" on="0"/>
        <pt x="161" y="325" on="0"/>
        <pt x="139" y="304" on="0"/>
        <pt x="129" y="298" on="1"/>
        <pt x="139" y="292" on="0"/>
        <pt x="161" y="271" on="0"/>
        <pt x="181" y="238" on="0"/>
        <pt x="194" y="194" on="0"/>
        <pt x="194" y="164" on="1"/>
        <pt x="194" y="35" on="1"/>
        <pt x="194" y="3" on="0"/>
        <pt x="199" y="-38" on="0"/>
        <pt x="211" y="-60" on="0"/>
        <pt x="231" y="-68" on="0"/>
        <pt x="246" y="-68" on="1"/>
        <pt x="290" y="-68" on="1"/>
        <pt x="290" y="-149" on="1"/>
        <pt x="227" y="-149" on="1"/>
        <pt x="204" y="-149" on="0"/>
        <pt x="161" y="-147" on="0"/>
        <pt x="128" y="-126" on="0"/>
        <pt x="109" y="-78" on="0"/>
        <pt x="109" y="-31" on="1"/>
        <pt x="109" y="121" on="1"/>
        <pt x="109" y="141" on="0"/>
        <pt x="103" y="188" on="0"/>
        <pt x="85" y="228" on="0"/>
        <pt x="54" y="255" on="0"/>
      </contour>
    </TTGlyph>
    <TTGlyph name="braceright" xMin="30" yMin="-149" xMax="290" yMax="746">
      <contour>
        <pt x="290" y="337" on="1"/>
        <pt x="290" y="256" on="1"/>
        <pt x="266" y="255" on="0"/>
        <pt x="235" y="228" on="0"/>
        <pt x="218" y="188" on="0"/>
        <pt x="211" y="141" on="0"/>
        <pt x="211" y="121" on="1"/>
        <pt x="211" y="-31" on="1"/>
        <pt x="211" y="-78" on="0"/>
        <pt x="192" y="-126" on="0"/>
        <pt x="160" y="-147" on="0"/>
        <pt x="117" y="-149" on="0"/>
        <pt x="93" y="-149" on="1"/>
        <pt x="30" y="-149" on="1"/>
        <pt x="30" y="-68" on="1"/>
        <pt x="74" y="-68" on="1"/>
        <pt x="89" y="-68" on="0"/>
        <pt x="109" y="-60" on="0"/>
        <pt x="121" y="-38" on="0"/>
        <pt x="126" y="3" on="0"/>
        <pt x="126" y="35" on="1"/>
        <pt x="126" y="164" on="1"/>
        <pt x="126" y="194" on="0"/>
        <pt x="139" y="239" on="0"/>
        <pt x="159" y="271" on="0"/>
        <pt x="182" y="292" on="0"/>
        <pt x="191" y="298" on="1"/>
        <pt x="181" y="304" on="0"/>
        <pt x="158" y="325" on="0"/>
        <pt x="139" y="357" on="0"/>
        <pt x="126" y="402" on="0"/>
        <pt x="126" y="433" on="1"/>
        <pt x="126" y="562" on="1"/>
        <pt x="126" y="594" on="0"/>
        <pt x="121" y="634" on="0"/>
        <pt x="109" y="657" on="0"/>
        <pt x="89" y="665" on="0"/>
        <pt x="74" y="665" on="1"/>
        <pt x="30" y="665" on="1"/>
        <pt x="30" y="746" on="1"/>
        <pt x="93" y="746" on="1"/>
        <pt x="116" y="746" on="0"/>
        <pt x="159" y="744" on="0"/>
        <pt x="192" y="723" on="0"/>
        <pt x="211" y="675" on="0"/>
        <pt x="211" y="628" on="1"/>
        <pt x="211" y="472" on="1"/>
        <pt x="211" y="452" on="0"/>
        <pt x="218" y="405" on="0"/>
        <pt x="235" y="365" on="0"/>
        <pt x="266" y="338" on="0"/>
      </contour>
    </TTGlyph>
    <TTGlyph name="bracketleft" xMin="83" yMin="-149" xMax="275" yMax="746">
      <contour>
        <pt x="83" y="-149" on="1"/>
        <pt x="83" y="746" on="1"/>
        <pt x="275" y="746" on="1"/>
        <pt x="275" y="665" on="1"/>
        <pt x="166" y="665" on="1"/>
        <pt x="166" y="-68" on="1"/>
        <pt x="275" y="-68" on="1"/>
        <pt x="275" y="-149" on="1"/>
      </contour>
    </TTGlyph>
    <TTGlyph name="bracketright" xMin="59" yMin="-149" xMax="251" yMax="746">
      <contour>
        <pt x="251" y="746" on="1"/>
        <pt x="251" y="-149" on="1"/>
        <pt x="59" y="-149" on="1"/>
        <pt x="59" y="-68" on="1"/>
        <pt x="168" y="-68" on="1"/>
        <pt x="168" y="665" on="1"/>
        <pt x="59" y="665" on="1"/>
        <pt x="59" y="746" on="1"/>
      </contour>
    </TTGlyph>
    <TTGlyph name="brokenbar" xMin="69" yMin="-233" xMax="153" yMax="700">
      <contour>
        <pt x="153" y="-233" on="1"/>
        <pt x="69" y="-233" on="1"/>
        <pt x="69" y="117" on="1"/>
        <pt x="153" y="117" on="1"/>
      </contour>
      <contour>
        <pt x="153" y="350" on="1"/>
        <pt x="69" y="350" on="1"/>
        <pt x="69" y="700" on="1"/>
        <pt x="153" y="700" on="1"/>
      </contour>
    </TTGlyph>
    <TTGlyph name="bullet" xMin="113" yMin="174" xMax="367" yMax="428">
      <contour>
        <pt x="113" y="300" on="1"/>
        <pt x="113" y="327" on="0"/>
        <pt x="133" y="373" on="0"/>
        <pt x="167" y="408" on="0"/>
        <pt x="213" y="428" on="0"/>
        <pt x="239" y="428" on="1"/>
        <pt x="266" y="428" on="0"/>
        <pt x="312" y="408" on="0"/>
        <pt x="347" y="373" on="0"/>
        <pt x="367" y="327" on="0"/>
        <pt x="367" y="300" on="1"/>
        <pt x="367" y="273" on="0"/>
        <pt x="347" y="227" on="0"/>
        <pt x="312" y="193" on="0"/>
        <pt x="266" y="174" on="0"/>
        <pt x="239" y="174" on="1"/>
        <pt x="213" y="174" on="0"/>
        <pt x="167" y="193" on="0"/>
        <pt x="133" y="227" on="0"/>
        <pt x="113" y="273" on="0"/>
      </contour>
    </TTGlyph>
    <TTGlyph name="c" xMin="36" yMin="-9" xMax="363" yMax="384">
      <contour>
        <pt x="311" y="97" on="1"/>
        <pt x="324" y="81" on="0"/>
        <pt x="348" y="50" on="0"/>
        <pt x="361" y="34" on="1"/>
        <pt x="335" y="14" on="0"/>
        <pt x="272" y="-9" on="0"/>
        <pt x="236" y="-9" on="1"/>
        <pt x="194" y="-9" on="0"/>
        <pt x="121" y="22" on="0"/>
        <pt x="67" y="76" on="0"/>
        <pt x="36" y="147" on="0"/>
        <pt x="36" y="188" on="1"/>
        <pt x="36" y="228" on="0"/>
        <pt x="67" y="300" on="0"/>
        <pt x="121" y="353" on="0"/>
        <pt x="194" y="384" on="0"/>
        <pt x="236" y="384" on="1"/>
        <pt x="273" y="384" on="0"/>
        <pt x="337" y="361" on="0"/>
        <pt x="363" y="341" on="1"/>
        <pt x="350" y="325" on="0"/>
        <pt x="324" y="295" on="0"/>
        <pt x="311" y="279" on="1"/>
        <pt x="279" y="303" on="0"/>
        <pt x="236" y="303" on="1"/>
        <pt x="184" y="303" on="0"/>
        <pt x="119" y="238" on="0"/>
        <pt x="119" y="188" on="1"/>
        <pt x="119" y="139" on="0"/>
        <pt x="184" y="72" on="0"/>
        <pt x="236" y="72" on="1"/>
        <pt x="280" y="72" on="0"/>
      </contour>
    </TTGlyph>
    <TTGlyph name="ccedilla" xMin="36" yMin="-250" xMax="363" yMax="384">
      <contour>
        <pt x="311" y="97" on="1"/>
        <pt x="324" y="81" on="0"/>
        <pt x="348" y="50" on="0"/>
        <pt x="361" y="34" on="1"/>
        <pt x="335" y="14" on="0"/>
        <pt x="271" y="-9" on="0"/>
        <pt x="235" y="-9" on="1"/>
        <pt x="235" y="-23" on="0"/>
        <pt x="244" y="-39" on="0"/>
        <pt x="257" y="-50" on="0"/>
        <pt x="271" y="-57" on="0"/>
        <pt x="277" y="-61" on="1"/>
        <pt x="298" y="-77" on="0"/>
        <pt x="315" y="-117" on="0"/>
        <pt x="315" y="-142" on="1"/>
        <pt x="315" y="-176" on="0"/>
        <pt x="281" y="-233" on="0"/>
        <pt x="247" y="-244" on="1"/>
        <pt x="230" y="-250" on="0"/>
        <pt x="210" y="-250" on="1"/>
        <pt x="176" y="-250" on="0"/>
        <pt x="119" y="-213" on="0"/>
        <pt x="106" y="-175" on="1"/>
        <pt x="117" y="-169" on="0"/>
        <pt x="141" y="-157" on="0"/>
        <pt x="152" y="-151" on="1"/>
        <pt x="157" y="-167" on="0"/>
        <pt x="183" y="-188" on="0"/>
        <pt x="203" y="-188" on="1"/>
        <pt x="227" y="-188" on="0"/>
        <pt x="253" y="-156" on="0"/>
        <pt x="253" y="-132" on="1"/>
        <pt x="253" y="-112" on="0"/>
        <pt x="231" y="-89" on="0"/>
        <pt x="206" y="-71" on="0"/>
        <pt x="184" y="-51" on="0"/>
        <pt x="184" y="-34" on="1"/>
        <pt x="184" y="-2" on="1"/>
        <pt x="152" y="6" on="0"/>
        <pt x="97" y="42" on="0"/>
        <pt x="58" y="92" on="0"/>
        <pt x="36" y="154" on="0"/>
        <pt x="36" y="188" on="1"/>
        <pt x="36" y="228" on="0"/>
        <pt x="67" y="300" on="0"/>
        <pt x="121" y="353" on="0"/>
        <pt x="194" y="384" on="0"/>
        <pt x="236" y="384" on="1"/>
        <pt x="273" y="384" on="0"/>
        <pt x="337" y="361" on="0"/>
        <pt x="363" y="341" on="1"/>
        <pt x="350" y="325" on="0"/>
        <pt x="324" y="295" on="0"/>
        <pt x="311" y="279" on="1"/>
        <pt x="279" y="303" on="0"/>
        <pt x="236" y="303" on="1"/>
        <pt x="184" y="303" on="0"/>
        <pt x="119" y="238" on="0"/>
        <pt x="119" y="188" on="1"/>
        <pt x="119" y="139" on="0"/>
        <pt x="184" y="72" on="0"/>
        <pt x="236" y="72" on="1"/>
        <pt x="280" y="72" on="0"/>
      </contour>
    </TTGlyph>
    <TTGlyph name="cedilla" xMin="106" yMin="-250" xMax="315" yMax="0">
      <contour>
        <pt x="184" y="0" on="1"/>
        <pt x="235" y="0" on="1"/>
        <pt x="235" y="-7" on="1"/>
        <pt x="235" y="-21" on="0"/>
        <pt x="243" y="-38" on="0"/>
        <pt x="256" y="-49" on="0"/>
        <pt x="271" y="-56" on="0"/>
        <pt x="277" y="-61" on="1"/>
        <pt x="298" y="-77" on="0"/>
        <pt x="315" y="-117" on="0"/>
        <pt x="315" y="-142" on="1"/>
        <pt x="315" y="-163" on="0"/>
        <pt x="302" y="-202" on="0"/>
        <pt x="275" y="-232" on="0"/>
        <pt x="236" y="-250" on="0"/>
        <pt x="210" y="-250" on="1"/>
        <pt x="176" y="-250" on="0"/>
        <pt x="119" y="-213" on="0"/>
        <pt x="106" y="-175" on="1"/>
        <pt x="117" y="-169" on="0"/>
        <pt x="141" y="-157" on="0"/>
        <pt x="152" y="-151" on="1"/>
        <pt x="157" y="-167" on="0"/>
        <pt x="183" y="-188" on="0"/>
        <pt x="203" y="-188" on="1"/>
        <pt x="227" y="-188" on="0"/>
        <pt x="253" y="-156" on="0"/>
        <pt x="253" y="-132" on="1"/>
        <pt x="253" y="-112" on="0"/>
        <pt x="231" y="-89" on="0"/>
        <pt x="206" y="-71" on="0"/>
        <pt x="184" y="-51" on="0"/>
        <pt x="184" y="-34" on="1"/>
      </contour>
    </TTGlyph>
    <TTGlyph name="cent" xMin="36" yMin="-68" xMax="363" yMax="438">
      <contour>
        <pt x="119" y="188" on="1"/>
        <pt x="119" y="154" on="0"/>
        <pt x="151" y="100" on="0"/>
        <pt x="179" y="85" on="1"/>
        <pt x="179" y="289" on="1"/>
        <pt x="151" y="275" on="0"/>
        <pt x="119" y="222" on="0"/>
      </contour>
      <contour>
        <pt x="311" y="97" on="1"/>
        <pt x="324" y="81" on="0"/>
        <pt x="348" y="50" on="0"/>
        <pt x="361" y="34" on="1"/>
        <pt x="319" y="-1" on="0"/>
        <pt x="263" y="-7" on="1"/>
        <pt x="263" y="-68" on="1"/>
        <pt x="179" y="-68" on="1"/>
        <pt x="179" y="0" on="1"/>
        <pt x="148" y="9" on="0"/>
        <pt x="95" y="45" on="0"/>
        <pt x="57" y="94" on="0"/>
        <pt x="36" y="155" on="0"/>
        <pt x="36" y="188" on="1"/>
        <pt x="36" y="221" on="0"/>
        <pt x="57" y="281" on="0"/>
        <pt x="95" y="331" on="0"/>
        <pt x="148" y="367" on="0"/>
        <pt x="179" y="376" on="1"/>
        <pt x="179" y="438" on="1"/>
        <pt x="263" y="438" on="1"/>
        <pt x="263" y="382" on="1"/>
        <pt x="290" y="378" on="0"/>
        <pt x="343" y="358" on="0"/>
        <pt x="363" y="341" on="1"/>
        <pt x="350" y="325" on="0"/>
        <pt x="324" y="295" on="0"/>
        <pt x="311" y="279" on="1"/>
        <pt x="291" y="293" on="0"/>
        <pt x="263" y="300" on="1"/>
        <pt x="263" y="74" on="1"/>
        <pt x="276" y="77" on="0"/>
        <pt x="301" y="89" on="0"/>
      </contour>
    </TTGlyph>
    <TTGlyph name="colon" xMin="33" yMin="0" xMax="136" yMax="355">
      <contour>
        <pt x="33" y="302" on="1"/>
        <pt x="33" y="325" on="0"/>
        <pt x="65" y="355" on="0"/>
        <pt x="85" y="355" on="1"/>
        <pt x="104" y="355" on="0"/>
        <pt x="136" y="325" on="0"/>
        <pt x="136" y="302" on="1"/>
        <pt x="136" y="279" on="0"/>
        <pt x="104" y="250" on="0"/>
        <pt x="85" y="250" on="1"/>
        <pt x="65" y="250" on="0"/>
        <pt x="33" y="279" on="0"/>
      </contour>
      <contour>
        <pt x="33" y="52" on="1"/>
        <pt x="33" y="75" on="0"/>
        <pt x="65" y="105" on="0"/>
        <pt x="85" y="105" on="1"/>
        <pt x="104" y="105" on="0"/>
        <pt x="136" y="75" on="0"/>
        <pt x="136" y="52" on="1"/>
        <pt x="136" y="29" on="0"/>
        <pt x="104" y="0" on="0"/>
        <pt x="85" y="0" on="1"/>
        <pt x="65" y="0" on="0"/>
        <pt x="33" y="29" on="0"/>
      </contour>
    </TTGlyph>
    <TTGlyph name="comma" xMin="2" yMin="-120" xMax="163" yMax="86">
      <contour>
        <pt x="163" y="86" on="1"/>
        <pt x="141" y="34" on="0"/>
        <pt x="99" y="-68" on="0"/>
        <pt x="77" y="-120" on="1"/>
        <pt x="2" y="-120" on="1"/>
        <pt x="22" y="-68" on="0"/>
        <pt x="59" y="34" on="0"/>
        <pt x="79" y="86" on="1"/>
      </contour>
    </TTGlyph>
    <TTGlyph name="copyright" xMin="137" yMin="111" xMax="663" yMax="634">
      <contour>
        <pt x="400" y="148" on="1"/>
        <pt x="447" y="148" on="0"/>
        <pt x="529" y="182" on="0"/>
        <pt x="589" y="242" on="0"/>
        <pt x="623" y="324" on="0"/>
        <pt x="623" y="372" on="1"/>
        <pt x="623" y="421" on="0"/>
        <pt x="589" y="503" on="0"/>
        <pt x="529" y="563" on="0"/>
        <pt x="447" y="597" on="0"/>
        <pt x="400" y="597" on="1"/>
        <pt x="353" y="597" on="0"/>
        <pt x="271" y="563" on="0"/>
        <pt x="211" y="503" on="0"/>
        <pt x="177" y="421" on="0"/>
        <pt x="177" y="372" on="1"/>
        <pt x="177" y="324" on="0"/>
        <pt x="211" y="242" on="0"/>
        <pt x="271" y="182" on="0"/>
        <pt x="353" y="148" on="0"/>
      </contour>
      <contour>
        <pt x="400" y="111" on="1"/>
        <pt x="346" y="111" on="0"/>
        <pt x="250" y="151" on="0"/>
        <pt x="179" y="221" on="0"/>
        <pt x="137" y="316" on="0"/>
        <pt x="137" y="372" on="1"/>
        <pt x="137" y="429" on="0"/>
        <pt x="179" y="525" on="0"/>
        <pt x="250" y="595" on="0"/>
        <pt x="346" y="634" on="0"/>
        <pt x="400" y="634" on="1"/>
        <pt x="454" y="634" on="0"/>
        <pt x="550" y="595" on="0"/>
        <pt x="621" y="525" on="0"/>
        <pt x="663" y="429" on="0"/>
        <pt x="663" y="372" on="1"/>
        <pt x="663" y="316" on="0"/>
        <pt x="621" y="221" on="0"/>
        <pt x="550" y="151" on="0"/>
        <pt x="454" y="111" on="0"/>
      </contour>
      <contour>
        <pt x="468" y="266" on="1"/>
        <pt x="489" y="236" on="1"/>
        <pt x="471" y="225" on="0"/>
        <pt x="429" y="213" on="0"/>
        <pt x="406" y="213" on="1"/>
        <pt x="373" y="213" on="0"/>
        <pt x="314" y="239" on="0"/>
        <pt x="270" y="283" on="0"/>
        <pt x="245" y="342" on="0"/>
        <pt x="245" y="375" on="1"/>
        <pt x="245" y="409" on="0"/>
        <pt x="270" y="468" on="0"/>
        <pt x="314" y="512" on="0"/>
        <pt x="373" y="537" on="0"/>
        <pt x="406" y="537" on="1"/>
        <pt x="451" y="537" on="0"/>
        <pt x="489" y="515" on="1"/>
        <pt x="484" y="507" on="0"/>
        <pt x="473" y="492" on="0"/>
        <pt x="468" y="484" on="1"/>
        <pt x="439" y="502" on="0"/>
        <pt x="406" y="502" on="1"/>
        <pt x="380" y="502" on="0"/>
        <pt x="336" y="482" on="0"/>
        <pt x="302" y="447" on="0"/>
        <pt x="283" y="401" on="0"/>
        <pt x="283" y="375" on="1"/>
        <pt x="283" y="349" on="0"/>
        <pt x="302" y="303" on="0"/>
        <pt x="336" y="269" on="0"/>
        <pt x="380" y="249" on="0"/>
        <pt x="406" y="249" on="1"/>
        <pt x="440" y="249" on="0"/>
      </contour>
    </TTGlyph>
    <TTGlyph name="currency" xMin="85" yMin="196" xMax="411" yMax="522">
      <contour>
        <pt x="171" y="360" on="1"/>
        <pt x="171" y="328" on="0"/>
        <pt x="216" y="283" on="0"/>
        <pt x="248" y="283" on="1"/>
        <pt x="264" y="283" on="0"/>
        <pt x="293" y="295" on="0"/>
        <pt x="314" y="316" on="0"/>
        <pt x="326" y="344" on="0"/>
        <pt x="326" y="360" on="1"/>
        <pt x="326" y="392" on="0"/>
        <pt x="280" y="438" on="0"/>
        <pt x="248" y="438" on="1"/>
        <pt x="232" y="438" on="0"/>
        <pt x="204" y="426" on="0"/>
        <pt x="183" y="405" on="0"/>
        <pt x="171" y="376" on="0"/>
      </contour>
      <contour>
        <pt x="87" y="361" on="1"/>
        <pt x="87" y="383" on="0"/>
        <pt x="98" y="422" on="0"/>
        <pt x="108" y="439" on="1"/>
        <pt x="102" y="445" on="0"/>
        <pt x="91" y="457" on="0"/>
        <pt x="85" y="463" on="1"/>
        <pt x="144" y="522" on="1"/>
        <pt x="168" y="498" on="1"/>
        <pt x="187" y="507" on="0"/>
        <pt x="225" y="519" on="0"/>
        <pt x="247" y="519" on="1"/>
        <pt x="269" y="519" on="0"/>
        <pt x="309" y="508" on="0"/>
        <pt x="327" y="498" on="1"/>
        <pt x="351" y="522" on="1"/>
        <pt x="410" y="463" on="1"/>
        <pt x="388" y="441" on="1"/>
        <pt x="410" y="403" on="0"/>
        <pt x="410" y="361" on="1"/>
        <pt x="410" y="317" on="0"/>
        <pt x="387" y="280" on="1"/>
        <pt x="411" y="256" on="1"/>
        <pt x="352" y="197" on="1"/>
        <pt x="345" y="203" on="0"/>
        <pt x="333" y="216" on="0"/>
        <pt x="326" y="222" on="1"/>
        <pt x="291" y="202" on="0"/>
        <pt x="247" y="202" on="1"/>
        <pt x="205" y="202" on="0"/>
        <pt x="169" y="221" on="1"/>
        <pt x="144" y="196" on="1"/>
        <pt x="85" y="255" on="1"/>
        <pt x="109" y="279" on="1"/>
        <pt x="87" y="317" on="0"/>
      </contour>
    </TTGlyph>
    <TTGlyph name="d" xMin="49" yMin="-9" xMax="450" yMax="750">
      <contour>
        <pt x="133" y="188" on="1"/>
        <pt x="133" y="139" on="0"/>
        <pt x="198" y="72" on="0"/>
        <pt x="250" y="72" on="1"/>
        <pt x="302" y="72" on="0"/>
        <pt x="367" y="139" on="0"/>
        <pt x="367" y="188" on="1"/>
        <pt x="367" y="238" on="0"/>
        <pt x="302" y="303" on="0"/>
        <pt x="250" y="303" on="1"/>
        <pt x="198" y="303" on="0"/>
        <pt x="133" y="238" on="0"/>
      </contour>
      <contour>
        <pt x="49" y="188" on="1"/>
        <pt x="49" y="228" on="0"/>
        <pt x="80" y="299" on="0"/>
        <pt x="134" y="353" on="0"/>
        <pt x="208" y="384" on="0"/>
        <pt x="250" y="384" on="1"/>
        <pt x="277" y="384" on="0"/>
        <pt x="323" y="369" on="0"/>
        <pt x="357" y="350" on="0"/>
        <pt x="377" y="333" on="0"/>
        <pt x="377" y="330" on="1"/>
        <pt x="375" y="338" on="0"/>
        <pt x="369" y="354" on="0"/>
        <pt x="367" y="362" on="1"/>
        <pt x="367" y="750" on="1"/>
        <pt x="450" y="750" on="1"/>
        <pt x="450" y="0" on="1"/>
        <pt x="377" y="0" on="1"/>
        <pt x="377" y="32" on="1"/>
        <pt x="377" y="41" on="1"/>
        <pt x="377" y="38" on="0"/>
        <pt x="359" y="22" on="0"/>
        <pt x="327" y="5" on="0"/>
        <pt x="280" y="-9" on="0"/>
        <pt x="250" y="-9" on="1"/>
        <pt x="208" y="-9" on="0"/>
        <pt x="134" y="22" on="0"/>
        <pt x="80" y="76" on="0"/>
        <pt x="49" y="148" on="0"/>
      </contour>
    </TTGlyph>
    <TTGlyph name="degree" xMin="36" yMin="460" xMax="238" yMax="660">
      <contour>
        <pt x="138" y="511" on="1"/>
        <pt x="158" y="511" on="0"/>
        <pt x="187" y="539" on="0"/>
        <pt x="187" y="559" on="1"/>
        <pt x="187" y="579" on="0"/>
        <pt x="158" y="608" on="0"/>
        <pt x="138" y="608" on="1"/>
        <pt x="118" y="608" on="0"/>
        <pt x="90" y="579" on="0"/>
        <pt x="90" y="559" on="1"/>
        <pt x="90" y="539" on="0"/>
        <pt x="118" y="511" on="0"/>
      </contour>
      <contour>
        <pt x="36" y="560" on="1"/>
        <pt x="36" y="581" on="0"/>
        <pt x="52" y="617" on="0"/>
        <pt x="79" y="644" on="0"/>
        <pt x="117" y="660" on="0"/>
        <pt x="138" y="660" on="1"/>
        <pt x="159" y="660" on="0"/>
        <pt x="195" y="644" on="0"/>
        <pt x="222" y="617" on="0"/>
        <pt x="238" y="581" on="0"/>
        <pt x="238" y="560" on="1"/>
        <pt x="238" y="539" on="0"/>
        <pt x="222" y="502" on="0"/>
        <pt x="195" y="475" on="0"/>
        <pt x="159" y="460" on="0"/>
        <pt x="138" y="460" on="1"/>
        <pt x="117" y="460" on="0"/>
        <pt x="79" y="475" on="0"/>
        <pt x="52" y="502" on="0"/>
        <pt x="36" y="539" on="0"/>
      </contour>
    </TTGlyph>
    <TTGlyph name="dieresis" xMin="49" yMin="468" xMax="318" yMax="573">
      <contour>
        <pt x="215" y="520" on="1"/>
        <pt x="215" y="543" on="0"/>
        <pt x="247" y="573" on="0"/>
        <pt x="267" y="573" on="1"/>
        <pt x="286" y="573" on="0"/>
        <pt x="318" y="543" on="0"/>
        <pt x="318" y="520" on="1"/>
        <pt x="318" y="497" on="0"/>
        <pt x="286" y="468" on="0"/>
        <pt x="267" y="468" on="1"/>
        <pt x="247" y="468" on="0"/>
        <pt x="215" y="497" on="0"/>
      </contour>
      <contour>
        <pt x="49" y="520" on="1"/>
        <pt x="49" y="543" on="0"/>
        <pt x="81" y="573" on="0"/>
        <pt x="101" y="573" on="1"/>
        <pt x="120" y="573" on="0"/>
        <pt x="152" y="543" on="0"/>
        <pt x="152" y="520" on="1"/>
        <pt x="152" y="497" on="0"/>
        <pt x="120" y="468" on="0"/>
        <pt x="101" y="468" on="1"/>
        <pt x="81" y="468" on="0"/>
        <pt x="49" y="497" on="0"/>
      </contour>
    </TTGlyph>
    <TTGlyph name="divide" xMin="68" yMin="71" xMax="428" yMax="426">
      <contour>
        <pt x="428" y="206" on="1"/>
        <pt x="68" y="206" on="1"/>
        <pt x="68" y="287" on="1"/>
        <pt x="428" y="287" on="1"/>
      </contour>
      <contour>
        <pt x="199" y="373" on="1"/>
        <pt x="199" y="396" on="0"/>
        <pt x="231" y="426" on="0"/>
        <pt x="251" y="426" on="1"/>
        <pt x="270" y="426" on="0"/>
        <pt x="302" y="396" on="0"/>
        <pt x="302" y="373" on="1"/>
        <pt x="302" y="350" on="0"/>
        <pt x="270" y="321" on="0"/>
        <pt x="251" y="321" on="1"/>
        <pt x="231" y="321" on="0"/>
        <pt x="199" y="350" on="0"/>
      </contour>
      <contour>
        <pt x="199" y="123" on="1"/>
        <pt x="199" y="146" on="0"/>
        <pt x="231" y="176" on="0"/>
        <pt x="251" y="176" on="1"/>
        <pt x="270" y="176" on="0"/>
        <pt x="302" y="146" on="0"/>
        <pt x="302" y="123" on="1"/>
        <pt x="302" y="100" on="0"/>
        <pt x="270" y="71" on="0"/>
        <pt x="251" y="71" on="1"/>
        <pt x="231" y="71" on="0"/>
        <pt x="199" y="100" on="0"/>
      </contour>
    </TTGlyph>
    <TTGlyph name="dollar" xMin="46" yMin="-68" xMax="484" yMax="764">
      <contour>
        <pt x="157" y="514" on="1"/>
        <pt x="157" y="481" on="0"/>
        <pt x="185" y="443" on="0"/>
        <pt x="208" y="432" on="1"/>
        <pt x="213" y="429" on="0"/>
        <pt x="226" y="424" on="0"/>
        <pt x="232" y="422" on="1"/>
        <pt x="232" y="620" on="1"/>
        <pt x="194" y="609" on="0"/>
        <pt x="157" y="551" on="0"/>
      </contour>
      <contour>
        <pt x="401" y="188" on="1"/>
        <pt x="401" y="234" on="0"/>
        <pt x="350" y="285" on="0"/>
        <pt x="316" y="301" on="1"/>
        <pt x="316" y="78" on="1"/>
        <pt x="352" y="89" on="0"/>
        <pt x="401" y="143" on="0"/>
      </contour>
      <contour>
        <pt x="449" y="631" on="1"/>
        <pt x="437" y="616" on="0"/>
        <pt x="414" y="586" on="0"/>
        <pt x="402" y="571" on="1"/>
        <pt x="389" y="582" on="0"/>
        <pt x="345" y="611" on="0"/>
        <pt x="316" y="619" on="1"/>
        <pt x="316" y="391" on="1"/>
        <pt x="346" y="379" on="0"/>
        <pt x="406" y="344" on="0"/>
        <pt x="454" y="295" on="0"/>
        <pt x="484" y="230" on="0"/>
        <pt x="484" y="187" on="1"/>
        <pt x="484" y="148" on="0"/>
        <pt x="458" y="82" on="0"/>
        <pt x="413" y="32" on="0"/>
        <pt x="351" y="1" on="0"/>
        <pt x="316" y="-5" on="1"/>
        <pt x="316" y="-68" on="1"/>
        <pt x="232" y="-68" on="1"/>
        <pt x="232" y="-4" on="1"/>
        <pt x="200" y="1" on="0"/>
        <pt x="143" y="24" on="0"/>
        <pt x="95" y="54" on="0"/>
        <pt x="57" y="89" on="0"/>
        <pt x="46" y="106" on="1"/>
        <pt x="98" y="158" on="1"/>
        <pt x="121" y="134" on="0"/>
        <pt x="187" y="83" on="0"/>
        <pt x="232" y="74" on="1"/>
        <pt x="232" y="332" on="1"/>
        <pt x="227" y="334" on="0"/>
        <pt x="213" y="340" on="0"/>
        <pt x="205" y="344" on="1"/>
        <pt x="186" y="353" on="0"/>
        <pt x="141" y="378" on="0"/>
        <pt x="102" y="419" on="0"/>
        <pt x="75" y="476" on="0"/>
        <pt x="74" y="517" on="1"/>
        <pt x="73" y="547" on="0"/>
        <pt x="89" y="607" on="0"/>
        <pt x="126" y="659" on="0"/>
        <pt x="187" y="695" on="0"/>
        <pt x="232" y="701" on="1"/>
        <pt x="232" y="764" on="1"/>
        <pt x="316" y="764" on="1"/>
        <pt x="316" y="700" on="1"/>
        <pt x="345" y="694" on="0"/>
        <pt x="411" y="663" on="0"/>
      </contour>
    </TTGlyph>
    <TTGlyph name="e" xMin="36" yMin="-9" xMax="412" yMax="384">
      <contour>
        <pt x="236" y="303" on="1"/>
        <pt x="196" y="303" on="0"/>
        <pt x="138" y="263" on="0"/>
        <pt x="126" y="231" on="1"/>
        <pt x="121" y="216" on="0"/>
        <pt x="119" y="196" on="1"/>
        <pt x="166" y="213" on="0"/>
        <pt x="259" y="248" on="0"/>
        <pt x="306" y="265" on="1"/>
        <pt x="292" y="282" on="0"/>
        <pt x="257" y="303" on="0"/>
      </contour>
      <contour>
        <pt x="412" y="218" on="1"/>
        <pt x="344" y="193" on="0"/>
        <pt x="209" y="143" on="0"/>
        <pt x="141" y="118" on="1"/>
        <pt x="156" y="97" on="0"/>
        <pt x="205" y="72" on="0"/>
        <pt x="236" y="72" on="1"/>
        <pt x="282" y="72" on="0"/>
        <pt x="312" y="104" on="1"/>
        <pt x="363" y="44" on="1"/>
        <pt x="338" y="19" on="0"/>
        <pt x="274" y="-9" on="0"/>
        <pt x="236" y="-9" on="1"/>
        <pt x="194" y="-9" on="0"/>
        <pt x="121" y="22" on="0"/>
        <pt x="67" y="76" on="0"/>
        <pt x="36" y="147" on="0"/>
        <pt x="36" y="188" on="1"/>
        <pt x="36" y="228" on="0"/>
        <pt x="67" y="300" on="0"/>
        <pt x="121" y="353" on="0"/>
        <pt x="194" y="384" on="0"/>
        <pt x="236" y="384" on="1"/>
        <pt x="267" y="384" on="0"/>
        <pt x="324" y="359" on="0"/>
        <pt x="369" y="315" on="0"/>
        <pt x="403" y="254" on="0"/>
      </contour>
    </TTGlyph>
    <TTGlyph name="eacute" xMin="36" yMin="-9" xMax="412" yMax="612">
      <component glyphName="e" x="0" y="0" flags="0x204"/>
      <component glyphName="acute" x="119" y="0" flags="0x4"/>
    </TTGlyph>
    <TTGlyph name="ecircumflex" xMin="36" yMin="-9" xMax="412" yMax="660">
      <component glyphName="e" x="0" y="0" flags="0x204"/>
      <component glyphName="asciicircum" x="0" y="0" flags="0x4"/>
    </TTGlyph>
    <TTGlyph name="edieresis" xMin="36" yMin="-9" xMax="412" yMax="573">
      <component glyphName="e" x="0" y="0" flags="0x204"/>
      <component glyphName="dieresis" x="46" y="0" flags="0x4"/>
    </TTGlyph>
    <TTGlyph name="egrave" xMin="36" yMin="-9" xMax="412" yMax="612">
      <component glyphName="e" x="0" y="0" flags="0x204"/>
      <component glyphName="grave" x="109" y="0" flags="0x4"/>
    </TTGlyph>
    <TTGlyph name="eight" xMin="36" yMin="-8" xMax="472" yMax="658">
      <contour>
        <pt x="180" y="498" on="1"/>
        <pt x="180" y="466" on="0"/>
        <pt x="224" y="424" on="0"/>
        <pt x="255" y="424" on="1"/>
        <pt x="287" y="424" on="0"/>
        <pt x="330" y="466" on="0"/>
        <pt x="330" y="498" on="1"/>
        <pt x="330" y="530" on="0"/>
        <pt x="287" y="577" on="0"/>
        <pt x="255" y="577" on="1"/>
        <pt x="224" y="577" on="0"/>
        <pt x="180" y="530" on="0"/>
      </contour>
      <contour>
        <pt x="122" y="209" on="1"/>
        <pt x="122" y="181" on="0"/>
        <pt x="142" y="132" on="0"/>
        <pt x="178" y="95" on="0"/>
        <pt x="226" y="73" on="0"/>
        <pt x="253" y="73" on="1"/>
        <pt x="281" y="73" on="0"/>
        <pt x="330" y="95" on="0"/>
        <pt x="367" y="132" on="0"/>
        <pt x="389" y="181" on="0"/>
        <pt x="389" y="209" on="1"/>
        <pt x="389" y="236" on="0"/>
        <pt x="368" y="284" on="0"/>
        <pt x="333" y="320" on="0"/>
        <pt x="285" y="342" on="0"/>
        <pt x="258" y="343" on="1"/>
        <pt x="229" y="343" on="0"/>
        <pt x="179" y="322" on="0"/>
        <pt x="143" y="286" on="0"/>
        <pt x="122" y="237" on="0"/>
      </contour>
      <contour>
        <pt x="36" y="209" on="1"/>
        <pt x="36" y="267" on="0"/>
        <pt x="92" y="362" on="0"/>
        <pt x="138" y="391" on="1"/>
        <pt x="118" y="411" on="0"/>
        <pt x="95" y="466" on="0"/>
        <pt x="95" y="498" on="1"/>
        <pt x="95" y="531" on="0"/>
        <pt x="120" y="589" on="0"/>
        <pt x="163" y="633" on="0"/>
        <pt x="220" y="658" on="0"/>
        <pt x="253" y="658" on="1"/>
        <pt x="286" y="658" on="0"/>
        <pt x="344" y="633" on="0"/>
        <pt x="388" y="589" on="0"/>
        <pt x="413" y="531" on="0"/>
        <pt x="413" y="498" on="1"/>
        <pt x="413" y="466" on="0"/>
        <pt x="389" y="411" on="0"/>
        <pt x="369" y="391" on="1"/>
        <pt x="415" y="362" on="0"/>
        <pt x="472" y="267" on="0"/>
        <pt x="472" y="209" on="1"/>
        <pt x="472" y="164" on="0"/>
        <pt x="437" y="85" on="0"/>
        <pt x="377" y="26" on="0"/>
        <pt x="298" y="-8" on="0"/>
        <pt x="253" y="-8" on="1"/>
        <pt x="208" y="-8" on="0"/>
        <pt x="129" y="26" on="0"/>
        <pt x="70" y="85" on="0"/>
        <pt x="36" y="164" on="0"/>
      </contour>
    </TTGlyph>
    <TTGlyph name="emdash" xMin="99" yMin="174" xMax="601" yMax="255">
      <contour>
        <pt x="99" y="174" on="1"/>
        <pt x="99" y="255" on="1"/>
        <pt x="601" y="255" on="1"/>
        <pt x="601" y="174" on="1"/>
      </contour>
    </TTGlyph>
    <TTGlyph name="endash" xMin="100" yMin="174" xMax="401" yMax="255">
      <contour>
        <pt x="100" y="174" on="1"/>
        <pt x="100" y="255" on="1"/>
        <pt x="401" y="255" on="1"/>
        <pt x="401" y="174" on="1"/>
      </contour>
    </TTGlyph>
    <TTGlyph name="equal" xMin="100" yMin="112" xMax="606" yMax="387">
      <contour>
        <pt x="606" y="193" on="1"/>
        <pt x="606" y="112" on="1"/>
        <pt x="100" y="112" on="1"/>
        <pt x="100" y="193" on="1"/>
      </contour>
      <contour>
        <pt x="606" y="387" on="1"/>
        <pt x="606" y="306" on="1"/>
        <pt x="100" y="306" on="1"/>
        <pt x="100" y="387" on="1"/>
      </contour>
    </TTGlyph>
    <TTGlyph name="eth" xMin="51" yMin="-7" xMax="454" yMax="738">
      <contour>
        <pt x="136" y="188" on="1"/>
        <pt x="136" y="163" on="0"/>
        <pt x="155" y="121" on="0"/>
        <pt x="186" y="91" on="0"/>
        <pt x="230" y="74" on="0"/>
        <pt x="256" y="75" on="1"/>
        <pt x="282" y="76" on="0"/>
        <pt x="324" y="95" on="0"/>
        <pt x="354" y="127" on="0"/>
        <pt x="370" y="170" on="0"/>
        <pt x="370" y="194" on="1"/>
        <pt x="369" y="219" on="0"/>
        <pt x="350" y="261" on="0"/>
        <pt x="319" y="291" on="0"/>
        <pt x="275" y="307" on="0"/>
        <pt x="250" y="306" on="1"/>
        <pt x="197" y="304" on="0"/>
        <pt x="134" y="238" on="0"/>
      </contour>
      <contour>
        <pt x="131" y="531" on="1"/>
        <pt x="145" y="546" on="0"/>
        <pt x="173" y="576" on="0"/>
        <pt x="187" y="591" on="1"/>
        <pt x="143" y="642" on="0"/>
        <pt x="95" y="683" on="1"/>
        <pt x="110" y="697" on="0"/>
        <pt x="141" y="724" on="0"/>
        <pt x="156" y="738" on="1"/>
        <pt x="201" y="703" on="0"/>
        <pt x="246" y="655" on="1"/>
        <pt x="257" y="668" on="0"/>
        <pt x="280" y="692" on="0"/>
        <pt x="291" y="705" on="1"/>
        <pt x="305" y="692" on="0"/>
        <pt x="335" y="667" on="0"/>
        <pt x="349" y="654" on="1"/>
        <pt x="335" y="639" on="0"/>
        <pt x="309" y="610" on="0"/>
        <pt x="295" y="595" on="1"/>
        <pt x="326" y="554" on="0"/>
        <pt x="383" y="456" on="0"/>
        <pt x="427" y="352" on="0"/>
        <pt x="453" y="246" on="0"/>
        <pt x="453" y="197" on="1"/>
        <pt x="454" y="156" on="0"/>
        <pt x="425" y="84" on="0"/>
        <pt x="373" y="29" on="0"/>
        <pt x="301" y="-5" on="0"/>
        <pt x="259" y="-6" on="1"/>
        <pt x="217" y="-7" on="0"/>
        <pt x="143" y="22" on="0"/>
        <pt x="87" y="74" on="0"/>
        <pt x="53" y="144" on="0"/>
        <pt x="52" y="185" on="1"/>
        <pt x="51" y="225" on="0"/>
        <pt x="80" y="298" on="0"/>
        <pt x="133" y="352" on="0"/>
        <pt x="205" y="385" on="0"/>
        <pt x="247" y="386" on="1"/>
        <pt x="279" y="387" on="0"/>
        <pt x="311" y="378" on="1"/>
        <pt x="298" y="418" on="0"/>
        <pt x="259" y="493" on="0"/>
        <pt x="235" y="528" on="1"/>
        <pt x="224" y="515" on="0"/>
        <pt x="200" y="491" on="0"/>
        <pt x="189" y="478" on="1"/>
        <pt x="175" y="492" on="0"/>
        <pt x="145" y="517" on="0"/>
      </contour>
    </TTGlyph>
    <TTGlyph name="exclam" xMin="48" yMin="0" xMax="151" yMax="750">
      <contour>
        <pt x="100" y="0" on="1"/>
        <pt x="80" y="0" on="0"/>
        <pt x="48" y="30" on="0"/>
        <pt x="48" y="53" on="1"/>
        <pt x="48" y="76" on="0"/>
        <pt x="80" y="105" on="0"/>
        <pt x="100" y="105" on="1"/>
        <pt x="119" y="105" on="0"/>
        <pt x="151" y="76" on="0"/>
        <pt x="151" y="53" on="1"/>
        <pt x="151" y="30" on="0"/>
        <pt x="119" y="0" on="0"/>
        <pt x="100" y="0" on="1"/>
      </contour>
      <contour>
        <pt x="58" y="750" on="1"/>
        <pt x="141" y="750" on="1"/>
        <pt x="141" y="166" on="1"/>
        <pt x="58" y="166" on="1"/>
      </contour>
    </TTGlyph>
    <TTGlyph name="exclamdown" xMin="48" yMin="-210" xMax="151" yMax="540">
      <component glyphName="exclam" x="0" y="540" scalex="1.0" scaley="-0.999938964844" flags="0x4"/>
    </TTGlyph>
    <TTGlyph name="f" xMin="22" yMin="0" xMax="327" yMax="751">
      <contour>
        <pt x="22" y="303" on="1"/>
        <pt x="22" y="384" on="1"/>
        <pt x="86" y="384" on="1"/>
        <pt x="86" y="517" on="1"/>
        <pt x="86" y="573" on="0"/>
        <pt x="123" y="659" on="0"/>
        <pt x="187" y="718" on="0"/>
        <pt x="276" y="749" on="0"/>
        <pt x="327" y="751" on="1"/>
        <pt x="327" y="672" on="1"/>
        <pt x="258" y="668" on="0"/>
        <pt x="169" y="588" on="0"/>
        <pt x="169" y="514" on="1"/>
        <pt x="169" y="384" on="1"/>
        <pt x="286" y="384" on="1"/>
        <pt x="286" y="303" on="1"/>
        <pt x="169" y="303" on="1"/>
        <pt x="169" y="0" on="1"/>
        <pt x="86" y="0" on="1"/>
        <pt x="86" y="303" on="1"/>
      </contour>
    </TTGlyph>
    <TTGlyph name="five" xMin="103" yMin="-8" xMax="472" yMax="650">
      <contour>
        <pt x="143" y="292" on="1"/>
        <pt x="143" y="650" on="1"/>
        <pt x="430" y="650" on="1"/>
        <pt x="430" y="569" on="1"/>
        <pt x="227" y="569" on="1"/>
        <pt x="227" y="422" on="1"/>
        <pt x="233" y="423" on="0"/>
        <pt x="246" y="424" on="0"/>
        <pt x="253" y="424" on="1"/>
        <pt x="298" y="424" on="0"/>
        <pt x="377" y="391" on="0"/>
        <pt x="437" y="332" on="0"/>
        <pt x="472" y="254" on="0"/>
        <pt x="472" y="209" on="1"/>
        <pt x="472" y="164" on="0"/>
        <pt x="437" y="85" on="0"/>
        <pt x="377" y="26" on="0"/>
        <pt x="298" y="-8" on="0"/>
        <pt x="253" y="-8" on="1"/>
        <pt x="209" y="-8" on="0"/>
        <pt x="132" y="24" on="0"/>
        <pt x="103" y="53" on="1"/>
        <pt x="118" y="67" on="0"/>
        <pt x="149" y="95" on="0"/>
        <pt x="164" y="109" on="1"/>
        <pt x="181" y="92" on="0"/>
        <pt x="227" y="73" on="0"/>
        <pt x="253" y="73" on="1"/>
        <pt x="281" y="73" on="0"/>
        <pt x="330" y="95" on="0"/>
        <pt x="367" y="132" on="0"/>
        <pt x="389" y="181" on="0"/>
        <pt x="389" y="209" on="1"/>
        <pt x="389" y="237" on="0"/>
        <pt x="367" y="286" on="0"/>
        <pt x="330" y="322" on="0"/>
        <pt x="281" y="343" on="0"/>
        <pt x="253" y="343" on="1"/>
        <pt x="218" y="343" on="0"/>
        <pt x="160" y="320" on="0"/>
      </contour>
    </TTGlyph>
    <TTGlyph name="four" xMin="37" yMin="0" xMax="500" yMax="658">
      <contour>
        <pt x="319" y="413" on="1"/>
        <pt x="290" y="375" on="0"/>
        <pt x="234" y="302" on="0"/>
        <pt x="205" y="264" on="1"/>
        <pt x="319" y="264" on="1"/>
      </contour>
      <contour>
        <pt x="37" y="183" on="1"/>
        <pt x="129" y="302" on="0"/>
        <pt x="311" y="539" on="0"/>
        <pt x="403" y="658" on="1"/>
        <pt x="403" y="264" on="1"/>
        <pt x="500" y="264" on="1"/>
        <pt x="500" y="183" on="1"/>
        <pt x="403" y="183" on="1"/>
        <pt x="403" y="0" on="1"/>
        <pt x="319" y="0" on="1"/>
        <pt x="319" y="183" on="1"/>
      </contour>
    </TTGlyph>
    <TTGlyph name="g" xMin="49" yMin="-250" xMax="450" yMax="384">
      <contour>
        <pt x="133" y="188" on="1"/>
        <pt x="133" y="139" on="0"/>
        <pt x="198" y="72" on="0"/>
        <pt x="250" y="72" on="1"/>
        <pt x="302" y="72" on="0"/>
        <pt x="367" y="139" on="0"/>
        <pt x="367" y="188" on="1"/>
        <pt x="367" y="238" on="0"/>
        <pt x="302" y="303" on="0"/>
        <pt x="250" y="303" on="1"/>
        <pt x="198" y="303" on="0"/>
        <pt x="133" y="238" on="0"/>
      </contour>
      <contour>
        <pt x="381" y="375" on="1"/>
        <pt x="450" y="375" on="1"/>
        <pt x="450" y="-16" on="1"/>
        <pt x="450" y="-60" on="1"/>
        <pt x="450" y="-100" on="0"/>
        <pt x="419" y="-169" on="0"/>
        <pt x="365" y="-220" on="0"/>
        <pt x="293" y="-250" on="0"/>
        <pt x="251" y="-250" on="1"/>
        <pt x="206" y="-250" on="0"/>
        <pt x="122" y="-211" on="0"/>
        <pt x="92" y="-190" on="1"/>
        <pt x="106" y="-173" on="0"/>
        <pt x="133" y="-139" on="0"/>
        <pt x="147" y="-122" on="1"/>
        <pt x="167" y="-137" on="0"/>
        <pt x="220" y="-164" on="0"/>
        <pt x="249" y="-164" on="1"/>
        <pt x="275" y="-164" on="0"/>
        <pt x="318" y="-146" on="0"/>
        <pt x="350" y="-115" on="0"/>
        <pt x="367" y="-72" on="0"/>
        <pt x="367" y="-47" on="1"/>
        <pt x="367" y="20" on="1"/>
        <pt x="369" y="25" on="0"/>
        <pt x="374" y="34" on="0"/>
        <pt x="376" y="39" on="1"/>
        <pt x="373" y="35" on="0"/>
        <pt x="353" y="19" on="0"/>
        <pt x="321" y="4" on="0"/>
        <pt x="277" y="-8" on="0"/>
        <pt x="250" y="-8" on="1"/>
        <pt x="208" y="-8" on="0"/>
        <pt x="134" y="23" on="0"/>
        <pt x="80" y="76" on="0"/>
        <pt x="49" y="147" on="0"/>
        <pt x="49" y="187" on="1"/>
        <pt x="49" y="226" on="0"/>
        <pt x="80" y="298" on="0"/>
        <pt x="134" y="352" on="0"/>
        <pt x="208" y="384" on="0"/>
        <pt x="250" y="384" on="1"/>
        <pt x="277" y="384" on="0"/>
        <pt x="323" y="368" on="0"/>
        <pt x="357" y="349" on="0"/>
        <pt x="377" y="331" on="0"/>
        <pt x="377" y="328" on="1"/>
        <pt x="377" y="339" on="0"/>
        <pt x="381" y="363" on="0"/>
      </contour>
    </TTGlyph>
    <TTGlyph name="germandbls" xMin="9" yMin="-9" xMax="502" yMax="657">
      <contour>
        <pt x="197" y="9" on="1"/>
        <pt x="205" y="28" on="0"/>
        <pt x="223" y="64" on="0"/>
        <pt x="231" y="83" on="1"/>
        <pt x="256" y="72" on="0"/>
        <pt x="283" y="72" on="1"/>
        <pt x="311" y="72" on="0"/>
        <pt x="360" y="94" on="0"/>
        <pt x="397" y="131" on="0"/>
        <pt x="419" y="180" on="0"/>
        <pt x="419" y="208" on="1"/>
        <pt x="419" y="236" on="0"/>
        <pt x="397" y="285" on="0"/>
        <pt x="359" y="321" on="0"/>
        <pt x="310" y="342" on="0"/>
        <pt x="282" y="342" on="1"/>
        <pt x="281" y="342" on="1"/>
        <pt x="281" y="352" on="0"/>
        <pt x="280" y="371" on="0"/>
        <pt x="280" y="382" on="1"/>
        <pt x="280" y="423" on="1"/>
        <pt x="314" y="423" on="0"/>
        <pt x="360" y="462" on="0"/>
        <pt x="360" y="497" on="1"/>
        <pt x="360" y="513" on="0"/>
        <pt x="348" y="542" on="0"/>
        <pt x="328" y="564" on="0"/>
        <pt x="300" y="576" on="0"/>
        <pt x="284" y="576" on="1"/>
        <pt x="227" y="573" on="0"/>
        <pt x="156" y="492" on="0"/>
        <pt x="156" y="418" on="1"/>
        <pt x="156" y="0" on="1"/>
        <pt x="73" y="0" on="1"/>
        <pt x="73" y="334" on="1"/>
        <pt x="9" y="334" on="1"/>
        <pt x="9" y="415" on="1"/>
        <pt x="73" y="415" on="1"/>
        <pt x="73" y="423" on="1"/>
        <pt x="73" y="477" on="0"/>
        <pt x="108" y="564" on="0"/>
        <pt x="166" y="625" on="0"/>
        <pt x="242" y="657" on="0"/>
        <pt x="283" y="657" on="1"/>
        <pt x="316" y="657" on="0"/>
        <pt x="374" y="632" on="0"/>
        <pt x="418" y="588" on="0"/>
        <pt x="443" y="530" on="0"/>
        <pt x="443" y="497" on="1"/>
        <pt x="443" y="465" on="0"/>
        <pt x="419" y="410" on="0"/>
        <pt x="399" y="390" on="1"/>
        <pt x="445" y="361" on="0"/>
        <pt x="502" y="266" on="0"/>
        <pt x="502" y="208" on="1"/>
        <pt x="502" y="163" on="0"/>
        <pt x="467" y="84" on="0"/>
        <pt x="407" y="25" on="0"/>
        <pt x="328" y="-9" on="0"/>
        <pt x="283" y="-9" on="1"/>
        <pt x="236" y="-9" on="0"/>
      </contour>
    </TTGlyph>
    <TTGlyph name="grave" xMin="-51" yMin="479" xMax="123" yMax="612">
      <contour>
        <pt x="33" y="612" on="1"/>
        <pt x="56" y="579" on="0"/>
        <pt x="100" y="512" on="0"/>
        <pt x="123" y="479" on="1"/>
        <pt x="64" y="479" on="1"/>
        <pt x="35" y="512" on="0"/>
        <pt x="-22" y="579" on="0"/>
        <pt x="-51" y="612" on="1"/>
      </contour>
    </TTGlyph>
    <TTGlyph name="greater" xMin="116" yMin="-14" xMax="553" yMax="490">
      <contour>
        <pt x="116" y="-14" on="1"/>
        <pt x="116" y="99" on="1"/>
        <pt x="176" y="134" on="0"/>
        <pt x="297" y="203" on="0"/>
        <pt x="357" y="238" on="1"/>
        <pt x="297" y="273" on="0"/>
        <pt x="176" y="342" on="0"/>
        <pt x="116" y="377" on="1"/>
        <pt x="116" y="490" on="1"/>
        <pt x="226" y="427" on="0"/>
        <pt x="443" y="301" on="0"/>
        <pt x="553" y="238" on="1"/>
        <pt x="443" y="175" on="0"/>
        <pt x="226" y="49" on="0"/>
      </contour>
    </TTGlyph>
    <TTGlyph name="guillemotleft" xMin="117" yMin="77" xMax="459" yMax="400">
      <contour>
        <pt x="459" y="77" on="1"/>
        <pt x="288" y="239" on="1"/>
        <pt x="331" y="280" on="0"/>
        <pt x="416" y="359" on="0"/>
        <pt x="459" y="400" on="1"/>
        <pt x="459" y="306" on="1"/>
        <pt x="442" y="289" on="0"/>
        <pt x="411" y="256" on="0"/>
        <pt x="394" y="239" on="1"/>
        <pt x="411" y="222" on="0"/>
        <pt x="442" y="189" on="0"/>
        <pt x="459" y="172" on="1"/>
      </contour>
      <contour>
        <pt x="288" y="77" on="1"/>
        <pt x="117" y="239" on="1"/>
        <pt x="160" y="280" on="0"/>
        <pt x="245" y="359" on="0"/>
        <pt x="288" y="400" on="1"/>
        <pt x="288" y="305" on="1"/>
        <pt x="271" y="288" on="0"/>
        <pt x="240" y="256" on="0"/>
        <pt x="223" y="239" on="1"/>
        <pt x="240" y="222" on="0"/>
        <pt x="271" y="189" on="0"/>
        <pt x="288" y="172" on="1"/>
      </contour>
    </TTGlyph>
    <TTGlyph name="guillemotright" xMin="117" yMin="77" xMax="459" yMax="400">
      <component glyphName="guillemotleft" x="576" y="0" scalex="-0.999938964844" scaley="1.0" flags="0x4"/>
    </TTGlyph>
    <TTGlyph name="guilsinglleft" xMin="117" yMin="77" xMax="288" yMax="400">
      <contour>
        <pt x="288" y="77" on="1"/>
        <pt x="117" y="239" on="1"/>
        <pt x="160" y="280" on="0"/>
        <pt x="245" y="359" on="0"/>
        <pt x="288" y="400" on="1"/>
        <pt x="288" y="305" on="1"/>
        <pt x="271" y="288" on="0"/>
        <pt x="240" y="256" on="0"/>
        <pt x="223" y="239" on="1"/>
        <pt x="240" y="222" on="0"/>
        <pt x="271" y="189" on="0"/>
        <pt x="288" y="172" on="1"/>
      </contour>
    </TTGlyph>
    <TTGlyph name="guilsinglright" xMin="117" yMin="77" xMax="288" yMax="400">
      <component glyphName="guilsinglleft" x="405" y="0" scalex="-0.999938964844" scaley="1.0" flags="0x4"/>
    </TTGlyph>
    <TTGlyph name="h" xMin="82" yMin="0" xMax="454" yMax="750">
      <contour>
        <pt x="82" y="750" on="1"/>
        <pt x="165" y="750" on="1"/>
        <pt x="165" y="324" on="1"/>
        <pt x="162" y="279" on="1"/>
        <pt x="184" y="328" on="0"/>
        <pt x="268" y="381" on="0"/>
        <pt x="325" y="384" on="1"/>
        <pt x="384" y="384" on="0"/>
        <pt x="452" y="322" on="0"/>
        <pt x="454" y="272" on="1"/>
        <pt x="454" y="0" on="1"/>
        <pt x="371" y="0" on="1"/>
        <pt x="371" y="234" on="1"/>
        <pt x="369" y="261" on="0"/>
        <pt x="334" y="300" on="0"/>
        <pt x="296" y="302" on="1"/>
        <pt x="270" y="302" on="0"/>
        <pt x="223" y="284" on="0"/>
        <pt x="187" y="252" on="0"/>
        <pt x="165" y="208" on="0"/>
        <pt x="165" y="182" on="1"/>
        <pt x="165" y="0" on="1"/>
        <pt x="82" y="0" on="1"/>
      </contour>
    </TTGlyph>
    <TTGlyph name="hyphen" xMin="53" yMin="147" xMax="237" yMax="228">
      <contour>
        <pt x="53" y="147" on="1"/>
        <pt x="53" y="228" on="1"/>
        <pt x="237" y="228" on="1"/>
        <pt x="237" y="147" on="1"/>
      </contour>
    </TTGlyph>
    <TTGlyph name="i" xMin="49" yMin="0" xMax="152" yMax="573">
      <contour>
        <pt x="49" y="520" on="1"/>
        <pt x="49" y="543" on="0"/>
        <pt x="81" y="573" on="0"/>
        <pt x="101" y="573" on="1"/>
        <pt x="120" y="573" on="0"/>
        <pt x="152" y="543" on="0"/>
        <pt x="152" y="520" on="1"/>
        <pt x="152" y="497" on="0"/>
        <pt x="120" y="468" on="0"/>
        <pt x="101" y="468" on="1"/>
        <pt x="81" y="468" on="0"/>
        <pt x="49" y="497" on="0"/>
      </contour>
      <contour>
        <pt x="141" y="0" on="1"/>
        <pt x="58" y="0" on="1"/>
        <pt x="58" y="375" on="1"/>
        <pt x="141" y="375" on="1"/>
      </contour>
    </TTGlyph>
    <TTGlyph name="iacute" xMin="58" yMin="0" xMax="256" yMax="612">
      <contour>
        <pt x="141" y="0" on="1"/>
        <pt x="58" y="0" on="1"/>
        <pt x="58" y="375" on="1"/>
        <pt x="141" y="375" on="1"/>
      </contour>
      <contour>
        <pt x="82" y="479" on="1"/>
        <pt x="105" y="512" on="0"/>
        <pt x="149" y="579" on="0"/>
        <pt x="172" y="612" on="1"/>
        <pt x="256" y="612" on="1"/>
        <pt x="227" y="579" on="0"/>
        <pt x="170" y="512" on="0"/>
        <pt x="141" y="479" on="1"/>
      </contour>
    </TTGlyph>
    <TTGlyph name="icircumflex" xMin="-4" yMin="0" xMax="236" yMax="660">
      <contour>
        <pt x="158" y="0" on="1"/>
        <pt x="75" y="0" on="1"/>
        <pt x="75" y="375" on="1"/>
        <pt x="158" y="375" on="1"/>
      </contour>
      <contour>
        <pt x="116" y="660" on="1"/>
        <pt x="146" y="615" on="0"/>
        <pt x="206" y="524" on="0"/>
        <pt x="236" y="479" on="1"/>
        <pt x="177" y="479" on="1"/>
        <pt x="162" y="497" on="0"/>
        <pt x="131" y="533" on="0"/>
        <pt x="116" y="551" on="1"/>
        <pt x="101" y="533" on="0"/>
        <pt x="70" y="497" on="0"/>
        <pt x="55" y="479" on="1"/>
        <pt x="-4" y="479" on="1"/>
        <pt x="26" y="524" on="0"/>
        <pt x="86" y="615" on="0"/>
      </contour>
    </TTGlyph>
    <TTGlyph name="idieresis" xMin="6" yMin="0" xMax="275" yMax="573">
      <contour>
        <pt x="182" y="0" on="1"/>
        <pt x="99" y="0" on="1"/>
        <pt x="99" y="375" on="1"/>
        <pt x="182" y="375" on="1"/>
      </contour>
      <contour>
        <pt x="172" y="520" on="1"/>
        <pt x="172" y="543" on="0"/>
        <pt x="204" y="573" on="0"/>
        <pt x="224" y="573" on="1"/>
        <pt x="243" y="573" on="0"/>
        <pt x="275" y="543" on="0"/>
        <pt x="275" y="520" on="1"/>
        <pt x="275" y="497" on="0"/>
        <pt x="243" y="468" on="0"/>
        <pt x="224" y="468" on="1"/>
        <pt x="204" y="468" on="0"/>
        <pt x="172" y="497" on="0"/>
      </contour>
      <contour>
        <pt x="6" y="520" on="1"/>
        <pt x="6" y="543" on="0"/>
        <pt x="38" y="573" on="0"/>
        <pt x="58" y="573" on="1"/>
        <pt x="77" y="573" on="0"/>
        <pt x="109" y="543" on="0"/>
        <pt x="109" y="520" on="1"/>
        <pt x="109" y="497" on="0"/>
        <pt x="77" y="468" on="0"/>
        <pt x="58" y="468" on="1"/>
        <pt x="38" y="468" on="0"/>
        <pt x="6" y="497" on="0"/>
      </contour>
    </TTGlyph>
    <TTGlyph name="igrave" xMin="-57" yMin="0" xMax="141" yMax="612">
      <contour>
        <pt x="141" y="0" on="1"/>
        <pt x="58" y="0" on="1"/>
        <pt x="58" y="375" on="1"/>
        <pt x="141" y="375" on="1"/>
      </contour>
      <contour>
        <pt x="27" y="612" on="1"/>
        <pt x="50" y="579" on="0"/>
        <pt x="94" y="512" on="0"/>
        <pt x="117" y="479" on="1"/>
        <pt x="58" y="479" on="1"/>
        <pt x="29" y="512" on="0"/>
        <pt x="-28" y="579" on="0"/>
        <pt x="-57" y="612" on="1"/>
      </contour>
    </TTGlyph>
    <TTGlyph name="j" xMin="21" yMin="-181" xMax="171" yMax="573">
      <contour>
        <pt x="68" y="520" on="1"/>
        <pt x="68" y="543" on="0"/>
        <pt x="100" y="573" on="0"/>
        <pt x="120" y="573" on="1"/>
        <pt x="139" y="573" on="0"/>
        <pt x="171" y="543" on="0"/>
        <pt x="171" y="520" on="1"/>
        <pt x="171" y="497" on="0"/>
        <pt x="139" y="468" on="0"/>
        <pt x="120" y="468" on="1"/>
        <pt x="100" y="468" on="0"/>
        <pt x="68" y="497" on="0"/>
      </contour>
      <contour>
        <pt x="78" y="-181" on="1"/>
        <pt x="64" y="-165" on="0"/>
        <pt x="35" y="-135" on="0"/>
        <pt x="21" y="-119" on="1"/>
        <pt x="47" y="-99" on="0"/>
        <pt x="75" y="-39" on="0"/>
        <pt x="75" y="3" on="1"/>
        <pt x="75" y="376" on="1"/>
        <pt x="96" y="376" on="0"/>
        <pt x="137" y="375" on="0"/>
        <pt x="158" y="375" on="1"/>
        <pt x="158" y="0" on="1"/>
        <pt x="158" y="-61" on="0"/>
        <pt x="116" y="-152" on="0"/>
      </contour>
    </TTGlyph>
    <TTGlyph name="k" xMin="58" yMin="0" xMax="404" yMax="750">
      <contour>
        <pt x="327" y="384" on="1"/>
        <pt x="376" y="335" on="1"/>
        <pt x="342" y="303" on="0"/>
        <pt x="282" y="246" on="0"/>
        <pt x="248" y="214" on="1"/>
        <pt x="287" y="160" on="0"/>
        <pt x="365" y="54" on="0"/>
        <pt x="404" y="0" on="1"/>
        <pt x="308" y="0" on="1"/>
        <pt x="279" y="40" on="0"/>
        <pt x="219" y="120" on="0"/>
        <pt x="190" y="160" on="1"/>
        <pt x="178" y="149" on="0"/>
        <pt x="153" y="125" on="0"/>
        <pt x="141" y="114" on="1"/>
        <pt x="141" y="0" on="1"/>
        <pt x="58" y="0" on="1"/>
        <pt x="58" y="750" on="1"/>
        <pt x="141" y="750" on="1"/>
        <pt x="141" y="211" on="1"/>
        <pt x="189" y="256" on="0"/>
        <pt x="279" y="339" on="0"/>
      </contour>
    </TTGlyph>
    <TTGlyph name="l" xMin="58" yMin="0" xMax="141" yMax="750">
      <contour>
        <pt x="141" y="0" on="1"/>
        <pt x="58" y="0" on="1"/>
        <pt x="58" y="750" on="1"/>
        <pt x="141" y="750" on="1"/>
      </contour>
    </TTGlyph>
    <TTGlyph name="less" xMin="116" yMin="-14" xMax="553" yMax="490">
      <contour>
        <pt x="553" y="99" on="1"/>
        <pt x="553" y="-14" on="1"/>
        <pt x="443" y="49" on="0"/>
        <pt x="226" y="175" on="0"/>
        <pt x="116" y="238" on="1"/>
        <pt x="226" y="301" on="0"/>
        <pt x="443" y="427" on="0"/>
        <pt x="553" y="490" on="1"/>
        <pt x="553" y="377" on="1"/>
        <pt x="493" y="342" on="0"/>
        <pt x="372" y="273" on="0"/>
        <pt x="312" y="238" on="1"/>
        <pt x="372" y="203" on="0"/>
        <pt x="493" y="134" on="0"/>
      </contour>
    </TTGlyph>
    <TTGlyph name="logicalnot" xMin="100" yMin="148" xMax="460" yMax="248">
      <contour>
        <pt x="376" y="148" on="1"/>
        <pt x="376" y="188" on="1"/>
        <pt x="100" y="188" on="1"/>
        <pt x="100" y="248" on="1"/>
        <pt x="460" y="248" on="1"/>
        <pt x="460" y="148" on="1"/>
      </contour>
    </TTGlyph>
    <TTGlyph name="m" xMin="82" yMin="0" xMax="743" yMax="384">
      <contour>
        <pt x="82" y="375" on="1"/>
        <pt x="155" y="375" on="1"/>
        <pt x="155" y="366" on="1"/>
        <pt x="157" y="342" on="0"/>
        <pt x="160" y="303" on="0"/>
        <pt x="162" y="279" on="1"/>
        <pt x="183" y="327" on="0"/>
        <pt x="268" y="382" on="0"/>
        <pt x="325" y="384" on="1"/>
        <pt x="380" y="384" on="0"/>
        <pt x="447" y="329" on="0"/>
        <pt x="453" y="284" on="1"/>
        <pt x="475" y="330" on="0"/>
        <pt x="559" y="382" on="0"/>
        <pt x="614" y="384" on="1"/>
        <pt x="673" y="384" on="0"/>
        <pt x="741" y="322" on="0"/>
        <pt x="743" y="272" on="1"/>
        <pt x="743" y="0" on="1"/>
        <pt x="660" y="0" on="1"/>
        <pt x="660" y="234" on="1"/>
        <pt x="658" y="261" on="0"/>
        <pt x="623" y="300" on="0"/>
        <pt x="585" y="302" on="1"/>
        <pt x="559" y="302" on="0"/>
        <pt x="512" y="284" on="0"/>
        <pt x="476" y="252" on="0"/>
        <pt x="454" y="208" on="0"/>
        <pt x="454" y="182" on="1"/>
        <pt x="454" y="0" on="1"/>
        <pt x="371" y="0" on="1"/>
        <pt x="371" y="234" on="1"/>
        <pt x="369" y="261" on="0"/>
        <pt x="334" y="300" on="0"/>
        <pt x="296" y="302" on="1"/>
        <pt x="270" y="302" on="0"/>
        <pt x="223" y="284" on="0"/>
        <pt x="187" y="252" on="0"/>
        <pt x="165" y="208" on="0"/>
        <pt x="165" y="182" on="1"/>
        <pt x="165" y="0" on="1"/>
        <pt x="82" y="0" on="1"/>
      </contour>
    </TTGlyph>
    <TTGlyph name="macron" xMin="85" yMin="478" xMax="315" yMax="531">
      <contour>
        <pt x="85" y="478" on="1"/>
        <pt x="85" y="531" on="1"/>
        <pt x="315" y="531" on="1"/>
        <pt x="315" y="478" on="1"/>
      </contour>
    </TTGlyph>
    <TTGlyph name="mu" xMin="82" yMin="-201" xMax="454" yMax="375">
      <contour>
        <pt x="454" y="-9" on="1"/>
        <pt x="371" y="-9" on="1"/>
        <pt x="371" y="51" on="1"/>
        <pt x="374" y="96" on="1"/>
        <pt x="353" y="48" on="0"/>
        <pt x="268" y="-7" on="0"/>
        <pt x="211" y="-9" on="1"/>
        <pt x="186" y="-9" on="0"/>
        <pt x="165" y="-3" on="1"/>
        <pt x="165" y="-201" on="1"/>
        <pt x="82" y="-201" on="1"/>
        <pt x="82" y="375" on="1"/>
        <pt x="165" y="375" on="1"/>
        <pt x="165" y="141" on="1"/>
        <pt x="167" y="114" on="0"/>
        <pt x="202" y="75" on="0"/>
        <pt x="240" y="73" on="1"/>
        <pt x="266" y="73" on="0"/>
        <pt x="313" y="91" on="0"/>
        <pt x="349" y="123" on="0"/>
        <pt x="371" y="167" on="0"/>
        <pt x="371" y="193" on="1"/>
        <pt x="371" y="375" on="1"/>
        <pt x="454" y="375" on="1"/>
      </contour>
    </TTGlyph>
    <TTGlyph name="multiply" xMin="109" yMin="0" xMax="423" yMax="314">
      <contour>
        <pt x="364" y="0" on="1"/>
        <pt x="339" y="25" on="0"/>
        <pt x="290" y="73" on="0"/>
        <pt x="265" y="98" on="1"/>
        <pt x="168" y="1" on="1"/>
        <pt x="154" y="15" on="0"/>
        <pt x="124" y="44" on="0"/>
        <pt x="110" y="58" on="1"/>
        <pt x="208" y="156" on="1"/>
        <pt x="109" y="255" on="1"/>
        <pt x="168" y="314" on="1"/>
        <pt x="267" y="215" on="1"/>
        <pt x="365" y="313" on="1"/>
        <pt x="379" y="299" on="0"/>
        <pt x="408" y="269" on="0"/>
        <pt x="422" y="255" on="1"/>
        <pt x="325" y="158" on="1"/>
        <pt x="350" y="133" on="0"/>
        <pt x="398" y="84" on="0"/>
        <pt x="423" y="59" on="1"/>
      </contour>
    </TTGlyph>
    <TTGlyph name="n" xMin="82" yMin="0" xMax="454" yMax="384">
      <contour>
        <pt x="82" y="375" on="1"/>
        <pt x="155" y="375" on="1"/>
        <pt x="155" y="366" on="1"/>
        <pt x="157" y="342" on="0"/>
        <pt x="160" y="303" on="0"/>
        <pt x="162" y="279" on="1"/>
        <pt x="182" y="327" on="0"/>
        <pt x="271" y="384" on="0"/>
        <pt x="325" y="384" on="1"/>
        <pt x="384" y="384" on="0"/>
        <pt x="452" y="322" on="0"/>
        <pt x="454" y="272" on="1"/>
        <pt x="454" y="0" on="1"/>
        <pt x="371" y="0" on="1"/>
        <pt x="371" y="234" on="1"/>
        <pt x="369" y="261" on="0"/>
        <pt x="334" y="300" on="0"/>
        <pt x="296" y="302" on="1"/>
        <pt x="270" y="302" on="0"/>
        <pt x="223" y="284" on="0"/>
        <pt x="187" y="252" on="0"/>
        <pt x="165" y="208" on="0"/>
        <pt x="165" y="182" on="1"/>
        <pt x="165" y="0" on="1"/>
        <pt x="82" y="0" on="1"/>
      </contour>
    </TTGlyph>
    <TTGlyph name="nine" xMin="26" yMin="-9" xMax="462" yMax="636">
      <contour>
        <pt x="376" y="419" on="1"/>
        <pt x="376" y="447" on="0"/>
        <pt x="356" y="496" on="0"/>
        <pt x="320" y="533" on="0"/>
        <pt x="272" y="555" on="0"/>
        <pt x="245" y="555" on="1"/>
        <pt x="217" y="555" on="0"/>
        <pt x="168" y="533" on="0"/>
        <pt x="131" y="496" on="0"/>
        <pt x="109" y="447" on="0"/>
        <pt x="109" y="419" on="1"/>
        <pt x="109" y="391" on="0"/>
        <pt x="131" y="342" on="0"/>
        <pt x="168" y="306" on="0"/>
        <pt x="217" y="285" on="0"/>
        <pt x="245" y="285" on="1"/>
        <pt x="272" y="285" on="0"/>
        <pt x="320" y="306" on="0"/>
        <pt x="356" y="342" on="0"/>
        <pt x="376" y="391" on="0"/>
      </contour>
      <contour>
        <pt x="462" y="419" on="1"/>
        <pt x="462" y="351" on="0"/>
        <pt x="399" y="229" on="0"/>
        <pt x="301" y="122" on="0"/>
        <pt x="185" y="30" on="0"/>
        <pt x="131" y="-9" on="1"/>
        <pt x="118" y="7" on="0"/>
        <pt x="92" y="39" on="0"/>
        <pt x="79" y="55" on="1"/>
        <pt x="144" y="98" on="0"/>
        <pt x="234" y="173" on="0"/>
        <pt x="266" y="205" on="1"/>
        <pt x="261" y="204" on="0"/>
        <pt x="250" y="204" on="0"/>
        <pt x="245" y="204" on="1"/>
        <pt x="200" y="204" on="0"/>
        <pt x="121" y="237" on="0"/>
        <pt x="61" y="296" on="0"/>
        <pt x="26" y="374" on="0"/>
        <pt x="26" y="419" on="1"/>
        <pt x="26" y="464" on="0"/>
        <pt x="61" y="543" on="0"/>
        <pt x="121" y="602" on="0"/>
        <pt x="200" y="636" on="0"/>
        <pt x="245" y="636" on="1"/>
        <pt x="290" y="636" on="0"/>
        <pt x="369" y="601" on="0"/>
        <pt x="428" y="542" on="0"/>
        <pt x="462" y="463" on="0"/>
      </contour>
    </TTGlyph>
    <TTGlyph name="ntilde" xMin="82" yMin="0" xMax="454" yMax="546">
      <component glyphName="n" x="0" y="0" flags="0x4"/>
      <component glyphName="asciitilde" x="6" y="-6" flags="0x4"/>
    </TTGlyph>
    <TTGlyph name="numbersign" xMin="25" yMin="0" xMax="518" yMax="643">
      <contour>
        <pt x="223" y="371" on="1"/>
        <pt x="211" y="269" on="1"/>
        <pt x="311" y="269" on="1"/>
        <pt x="323" y="371" on="1"/>
      </contour>
      <contour>
        <pt x="279" y="0" on="1"/>
        <pt x="284" y="48" on="0"/>
        <pt x="296" y="140" on="0"/>
        <pt x="301" y="188" on="1"/>
        <pt x="201" y="188" on="1"/>
        <pt x="196" y="140" on="0"/>
        <pt x="184" y="48" on="0"/>
        <pt x="179" y="0" on="1"/>
        <pt x="95" y="0" on="1"/>
        <pt x="100" y="48" on="0"/>
        <pt x="112" y="140" on="0"/>
        <pt x="117" y="188" on="1"/>
        <pt x="25" y="188" on="1"/>
        <pt x="27" y="208" on="0"/>
        <pt x="33" y="249" on="0"/>
        <pt x="35" y="269" on="1"/>
        <pt x="127" y="269" on="1"/>
        <pt x="139" y="371" on="1"/>
        <pt x="48" y="371" on="1"/>
        <pt x="50" y="391" on="0"/>
        <pt x="54" y="432" on="0"/>
        <pt x="56" y="452" on="1"/>
        <pt x="148" y="452" on="1"/>
        <pt x="154" y="500" on="0"/>
        <pt x="166" y="595" on="0"/>
        <pt x="172" y="643" on="1"/>
        <pt x="256" y="643" on="1"/>
        <pt x="250" y="595" on="0"/>
        <pt x="238" y="500" on="0"/>
        <pt x="232" y="452" on="1"/>
        <pt x="332" y="452" on="1"/>
        <pt x="338" y="500" on="0"/>
        <pt x="350" y="595" on="0"/>
        <pt x="356" y="643" on="1"/>
        <pt x="440" y="643" on="1"/>
        <pt x="434" y="595" on="0"/>
        <pt x="422" y="500" on="0"/>
        <pt x="416" y="452" on="1"/>
        <pt x="518" y="452" on="1"/>
        <pt x="516" y="432" on="0"/>
        <pt x="512" y="391" on="0"/>
        <pt x="510" y="371" on="1"/>
        <pt x="407" y="371" on="1"/>
        <pt x="395" y="269" on="1"/>
        <pt x="497" y="269" on="1"/>
        <pt x="495" y="249" on="0"/>
        <pt x="489" y="208" on="0"/>
        <pt x="487" y="188" on="1"/>
        <pt x="385" y="188" on="1"/>
        <pt x="380" y="140" on="0"/>
        <pt x="368" y="48" on="0"/>
        <pt x="363" y="0" on="1"/>
      </contour>
    </TTGlyph>
    <TTGlyph name="o" xMin="36" yMin="-9" xMax="437" yMax="384">
      <contour>
        <pt x="36" y="188" on="1"/>
        <pt x="36" y="228" on="0"/>
        <pt x="67" y="300" on="0"/>
        <pt x="121" y="353" on="0"/>
        <pt x="194" y="384" on="0"/>
        <pt x="236" y="384" on="1"/>
        <pt x="278" y="384" on="0"/>
        <pt x="352" y="353" on="0"/>
        <pt x="406" y="300" on="0"/>
        <pt x="437" y="228" on="0"/>
        <pt x="437" y="188" on="1"/>
        <pt x="437" y="147" on="0"/>
        <pt x="406" y="76" on="0"/>
        <pt x="352" y="22" on="0"/>
        <pt x="278" y="-9" on="0"/>
        <pt x="236" y="-9" on="1"/>
        <pt x="194" y="-9" on="0"/>
        <pt x="121" y="22" on="0"/>
        <pt x="67" y="76" on="0"/>
        <pt x="36" y="147" on="0"/>
      </contour>
      <contour>
        <pt x="119" y="187" on="1"/>
        <pt x="119" y="163" on="0"/>
        <pt x="137" y="121" on="0"/>
        <pt x="168" y="90" on="0"/>
        <pt x="210" y="72" on="0"/>
        <pt x="234" y="72" on="1"/>
        <pt x="258" y="72" on="0"/>
        <pt x="300" y="90" on="0"/>
        <pt x="332" y="121" on="0"/>
        <pt x="350" y="163" on="0"/>
        <pt x="350" y="187" on="1"/>
        <pt x="350" y="211" on="0"/>
        <pt x="332" y="253" on="0"/>
        <pt x="300" y="285" on="0"/>
        <pt x="258" y="303" on="0"/>
        <pt x="234" y="303" on="1"/>
        <pt x="210" y="303" on="0"/>
        <pt x="168" y="285" on="0"/>
        <pt x="137" y="253" on="0"/>
        <pt x="119" y="211" on="0"/>
      </contour>
    </TTGlyph>
    <TTGlyph name="oacute" xMin="36" yMin="-9" xMax="437" yMax="612">
      <component glyphName="o" x="0" y="0" flags="0x4"/>
      <component glyphName="acute" x="131" y="0" flags="0x4"/>
    </TTGlyph>
    <TTGlyph name="ocircumflex" xMin="36" yMin="-9" xMax="437" yMax="660">
      <component glyphName="o" x="0" y="0" flags="0x4"/>
      <component glyphName="asciicircum" x="0" y="0" flags="0x4"/>
    </TTGlyph>
    <TTGlyph name="odieresis" xMin="36" yMin="-9" xMax="437" yMax="573">
      <component glyphName="o" x="0" y="0" flags="0x4"/>
      <component glyphName="dieresis" x="52" y="0" flags="0x4"/>
    </TTGlyph>
    <TTGlyph name="ograve" xMin="36" yMin="-9" xMax="437" yMax="612">
      <component glyphName="o" x="0" y="0" flags="0x4"/>
      <component glyphName="grave" x="120" y="0" flags="0x4"/>
    </TTGlyph>
    <TTGlyph name="one" xMin="34" yMin="0" xMax="186" yMax="650">
      <contour>
        <pt x="34" y="569" on="1"/>
        <pt x="34" y="650" on="1"/>
        <pt x="186" y="650" on="1"/>
        <pt x="186" y="0" on="1"/>
        <pt x="102" y="0" on="1"/>
        <pt x="102" y="569" on="1"/>
      </contour>
    </TTGlyph>
    <TTGlyph name="onehalf" xMin="121" yMin="-19" xMax="861" yMax="736">
      <component glyphName="one" x="97" y="234" scalex="0.709899902344" scaley="0.709716796875" flags="0x4"/>
      <component glyphName="two" x="510" y="0" scalex="0.708312988281" scaley="0.709716796875" flags="0x4"/>
      <component glyphName="slash" x="239" y="0" flags="0x4"/>
    </TTGlyph>
    <TTGlyph name="onequarter" xMin="121" yMin="-19" xMax="845" yMax="736">
      <component glyphName="slash" x="239" y="0" flags="0x4"/>
      <component glyphName="four" x="474" y="0" scalex="0.742980957031" scaley="0.744689941406" flags="0x4"/>
      <component glyphName="one" x="97" y="234" scalex="0.709899902344" scaley="0.709716796875" flags="0x4"/>
    </TTGlyph>
    <TTGlyph name="onesuperior" xMin="57" yMin="401" xMax="127" yMax="700">
      <component glyphName="one" x="42" y="401" scalex="0.460510253906" scaley="0.460021972656" flags="0x4"/>
    </TTGlyph>
    <TTGlyph name="ordfeminine" xMin="93" yMin="299" xMax="382" yMax="582">
      <component glyphName="a" x="58" y="306" scalex="0.721374511719" scaley="0.721252441406" flags="0x4"/>
    </TTGlyph>
    <TTGlyph name="ordmasculine" xMin="90" yMin="299" xMax="380" yMax="582">
      <component glyphName="o" x="65" y="306" scale="0.721252441406" flags="0x4"/>
    </TTGlyph>
    <TTGlyph name="oslash" xMin="36" yMin="-26" xMax="437" yMax="401">
      <contour>
        <pt x="119" y="188" on="1"/>
        <pt x="119" y="153" on="0"/>
        <pt x="136" y="125" on="1"/>
        <pt x="173" y="168" on="0"/>
        <pt x="245" y="252" on="0"/>
        <pt x="282" y="295" on="1"/>
        <pt x="260" y="303" on="0"/>
        <pt x="236" y="303" on="1"/>
        <pt x="184" y="303" on="0"/>
        <pt x="119" y="238" on="0"/>
      </contour>
      <contour>
        <pt x="236" y="72" on="1"/>
        <pt x="288" y="72" on="0"/>
        <pt x="353" y="139" on="0"/>
        <pt x="353" y="188" on="1"/>
        <pt x="353" y="208" on="0"/>
        <pt x="341" y="245" on="0"/>
        <pt x="330" y="259" on="1"/>
        <pt x="180" y="85" on="1"/>
        <pt x="206" y="72" on="0"/>
      </contour>
      <contour>
        <pt x="36" y="188" on="1"/>
        <pt x="36" y="228" on="0"/>
        <pt x="67" y="300" on="0"/>
        <pt x="121" y="353" on="0"/>
        <pt x="194" y="384" on="0"/>
        <pt x="236" y="384" on="1"/>
        <pt x="292" y="384" on="0"/>
        <pt x="336" y="358" on="1"/>
        <pt x="345" y="369" on="0"/>
        <pt x="364" y="390" on="0"/>
        <pt x="373" y="401" on="1"/>
        <pt x="384" y="391" on="0"/>
        <pt x="407" y="371" on="0"/>
        <pt x="418" y="361" on="1"/>
        <pt x="410" y="351" on="0"/>
        <pt x="392" y="331" on="0"/>
        <pt x="384" y="321" on="1"/>
        <pt x="409" y="295" on="0"/>
        <pt x="437" y="226" on="0"/>
        <pt x="437" y="188" on="1"/>
        <pt x="437" y="147" on="0"/>
        <pt x="406" y="76" on="0"/>
        <pt x="352" y="22" on="0"/>
        <pt x="278" y="-9" on="0"/>
        <pt x="236" y="-9" on="1"/>
        <pt x="205" y="-9" on="0"/>
        <pt x="150" y="8" on="0"/>
        <pt x="127" y="23" on="1"/>
        <pt x="116" y="11" on="0"/>
        <pt x="96" y="-14" on="0"/>
        <pt x="85" y="-26" on="1"/>
        <pt x="74" y="-16" on="0"/>
        <pt x="50" y="2" on="0"/>
        <pt x="39" y="12" on="1"/>
        <pt x="50" y="25" on="0"/>
        <pt x="71" y="49" on="0"/>
        <pt x="82" y="62" on="1"/>
        <pt x="60" y="88" on="0"/>
        <pt x="36" y="152" on="0"/>
      </contour>
    </TTGlyph>
    <TTGlyph name="otilde" xMin="36" yMin="-9" xMax="437" yMax="552">
      <component glyphName="o" x="0" y="0" flags="0x4"/>
      <component glyphName="asciitilde" x="-40" y="0" flags="0x4"/>
    </TTGlyph>
    <TTGlyph name="p" xMin="67" yMin="-250" xMax="468" yMax="384">
      <contour>
        <pt x="384" y="188" on="1"/>
        <pt x="384" y="238" on="0"/>
        <pt x="319" y="303" on="0"/>
        <pt x="267" y="303" on="1"/>
        <pt x="215" y="303" on="0"/>
        <pt x="150" y="238" on="0"/>
        <pt x="150" y="188" on="1"/>
        <pt x="150" y="139" on="0"/>
        <pt x="215" y="72" on="0"/>
        <pt x="267" y="72" on="1"/>
        <pt x="319" y="72" on="0"/>
        <pt x="384" y="139" on="0"/>
      </contour>
      <contour>
        <pt x="468" y="188" on="1"/>
        <pt x="468" y="148" on="0"/>
        <pt x="437" y="76" on="0"/>
        <pt x="383" y="22" on="0"/>
        <pt x="309" y="-9" on="0"/>
        <pt x="267" y="-9" on="1"/>
        <pt x="237" y="-9" on="0"/>
        <pt x="190" y="5" on="0"/>
        <pt x="158" y="22" on="0"/>
        <pt x="140" y="38" on="0"/>
        <pt x="140" y="41" on="1"/>
        <pt x="142" y="36" on="0"/>
        <pt x="148" y="24" on="0"/>
        <pt x="150" y="19" on="1"/>
        <pt x="150" y="-250" on="1"/>
        <pt x="67" y="-250" on="1"/>
        <pt x="67" y="375" on="1"/>
        <pt x="136" y="375" on="1"/>
        <pt x="136" y="363" on="0"/>
        <pt x="139" y="340" on="0"/>
        <pt x="140" y="328" on="1"/>
        <pt x="140" y="331" on="0"/>
        <pt x="160" y="349" on="0"/>
        <pt x="194" y="368" on="0"/>
        <pt x="240" y="384" on="0"/>
        <pt x="267" y="384" on="1"/>
        <pt x="309" y="384" on="0"/>
        <pt x="383" y="353" on="0"/>
        <pt x="437" y="299" on="0"/>
        <pt x="468" y="228" on="0"/>
      </contour>
    </TTGlyph>
    <TTGlyph name="paragraph" xMin="38" yMin="0" xMax="447" yMax="750">
      <contour>
        <pt x="284" y="0" on="1"/>
        <pt x="201" y="0" on="1"/>
        <pt x="201" y="423" on="1"/>
        <pt x="167" y="423" on="0"/>
        <pt x="107" y="448" on="0"/>
        <pt x="63" y="492" on="0"/>
        <pt x="38" y="552" on="0"/>
        <pt x="38" y="586" on="1"/>
        <pt x="38" y="620" on="0"/>
        <pt x="63" y="680" on="0"/>
        <pt x="107" y="724" on="0"/>
        <pt x="167" y="750" on="0"/>
        <pt x="201" y="750" on="1"/>
        <pt x="447" y="750" on="1"/>
        <pt x="447" y="0" on="1"/>
        <pt x="364" y="0" on="1"/>
        <pt x="364" y="669" on="1"/>
        <pt x="284" y="669" on="1"/>
      </contour>
    </TTGlyph>
    <TTGlyph name="parenleft" xMin="115" yMin="-164" xMax="353" yMax="746">
      <contour>
        <pt x="115" y="291" on="1"/>
        <pt x="115" y="366" on="0"/>
        <pt x="143" y="502" on="0"/>
        <pt x="189" y="618" on="0"/>
        <pt x="248" y="713" on="0"/>
        <pt x="280" y="746" on="1"/>
        <pt x="298" y="740" on="0"/>
        <pt x="335" y="729" on="0"/>
        <pt x="353" y="723" on="1"/>
        <pt x="324" y="690" on="0"/>
        <pt x="269" y="600" on="0"/>
        <pt x="225" y="490" on="0"/>
        <pt x="199" y="362" on="0"/>
        <pt x="199" y="291" on="1"/>
        <pt x="199" y="220" on="0"/>
        <pt x="225" y="92" on="0"/>
        <pt x="269" y="-18" on="0"/>
        <pt x="324" y="-108" on="0"/>
        <pt x="353" y="-141" on="1"/>
        <pt x="335" y="-147" on="0"/>
        <pt x="298" y="-158" on="0"/>
        <pt x="280" y="-164" on="1"/>
        <pt x="248" y="-131" on="0"/>
        <pt x="189" y="-36" on="0"/>
        <pt x="143" y="80" on="0"/>
        <pt x="115" y="216" on="0"/>
      </contour>
    </TTGlyph>
    <TTGlyph name="parenright" xMin="74" yMin="-167" xMax="312" yMax="743">
      <contour>
        <pt x="312" y="288" on="1"/>
        <pt x="312" y="213" on="0"/>
        <pt x="284" y="77" on="0"/>
        <pt x="238" y="-39" on="0"/>
        <pt x="178" y="-134" on="0"/>
        <pt x="147" y="-167" on="1"/>
        <pt x="129" y="-162" on="0"/>
        <pt x="92" y="-151" on="0"/>
        <pt x="74" y="-146" on="1"/>
        <pt x="103" y="-113" on="0"/>
        <pt x="158" y="-23" on="0"/>
        <pt x="202" y="87" on="0"/>
        <pt x="228" y="215" on="0"/>
        <pt x="228" y="286" on="1"/>
        <pt x="228" y="357" on="0"/>
        <pt x="202" y="485" on="0"/>
        <pt x="158" y="595" on="0"/>
        <pt x="103" y="685" on="0"/>
        <pt x="74" y="718" on="1"/>
        <pt x="92" y="724" on="0"/>
        <pt x="129" y="737" on="0"/>
        <pt x="147" y="743" on="1"/>
        <pt x="178" y="710" on="0"/>
        <pt x="238" y="615" on="0"/>
        <pt x="284" y="499" on="0"/>
        <pt x="312" y="363" on="0"/>
      </contour>
    </TTGlyph>
    <TTGlyph name="percent" xMin="90" yMin="-16" xMax="650" yMax="515">
      <contour>
        <pt x="478" y="111" on="1"/>
        <pt x="478" y="91" on="0"/>
        <pt x="502" y="65" on="0"/>
        <pt x="522" y="65" on="1"/>
        <pt x="542" y="65" on="0"/>
        <pt x="566" y="91" on="0"/>
        <pt x="566" y="111" on="1"/>
        <pt x="566" y="131" on="0"/>
        <pt x="542" y="156" on="0"/>
        <pt x="522" y="156" on="1"/>
        <pt x="502" y="156" on="0"/>
        <pt x="478" y="131" on="0"/>
      </contour>
      <contour>
        <pt x="522" y="-16" on="1"/>
        <pt x="496" y="-16" on="0"/>
        <pt x="449" y="4" on="0"/>
        <pt x="414" y="38" on="0"/>
        <pt x="394" y="84" on="0"/>
        <pt x="394" y="111" on="1"/>
        <pt x="394" y="137" on="0"/>
        <pt x="414" y="183" on="0"/>
        <pt x="449" y="217" on="0"/>
        <pt x="496" y="237" on="0"/>
        <pt x="522" y="237" on="1"/>
        <pt x="548" y="237" on="0"/>
        <pt x="594" y="217" on="0"/>
        <pt x="629" y="183" on="0"/>
        <pt x="650" y="137" on="0"/>
        <pt x="650" y="111" on="1"/>
        <pt x="650" y="84" on="0"/>
        <pt x="629" y="38" on="0"/>
        <pt x="594" y="4" on="0"/>
        <pt x="548" y="-16" on="0"/>
      </contour>
      <contour>
        <pt x="174" y="389" on="1"/>
        <pt x="174" y="369" on="0"/>
        <pt x="198" y="343" on="0"/>
        <pt x="218" y="343" on="1"/>
        <pt x="238" y="343" on="0"/>
        <pt x="262" y="369" on="0"/>
        <pt x="262" y="389" on="1"/>
        <pt x="262" y="409" on="0"/>
        <pt x="238" y="434" on="0"/>
        <pt x="218" y="434" on="1"/>
        <pt x="198" y="434" on="0"/>
        <pt x="174" y="409" on="0"/>
      </contour>
      <contour>
        <pt x="218" y="262" on="1"/>
        <pt x="192" y="262" on="0"/>
        <pt x="145" y="282" on="0"/>
        <pt x="110" y="316" on="0"/>
        <pt x="90" y="362" on="0"/>
        <pt x="90" y="389" on="1"/>
        <pt x="90" y="415" on="0"/>
        <pt x="110" y="461" on="0"/>
        <pt x="145" y="495" on="0"/>
        <pt x="192" y="515" on="0"/>
        <pt x="218" y="515" on="1"/>
        <pt x="244" y="515" on="0"/>
        <pt x="290" y="495" on="0"/>
        <pt x="325" y="461" on="0"/>
        <pt x="346" y="415" on="0"/>
        <pt x="346" y="389" on="1"/>
        <pt x="346" y="362" on="0"/>
        <pt x="325" y="316" on="0"/>
        <pt x="290" y="282" on="0"/>
        <pt x="244" y="262" on="0"/>
      </contour>
      <contour>
        <pt x="174" y="0" on="1"/>
        <pt x="249" y="126" on="0"/>
        <pt x="397" y="374" on="0"/>
        <pt x="472" y="500" on="1"/>
        <pt x="563" y="500" on="1"/>
        <pt x="488" y="374" on="0"/>
        <pt x="340" y="126" on="0"/>
        <pt x="265" y="0" on="1"/>
      </contour>
    </TTGlyph>
    <TTGlyph name="period" xMin="33" yMin="0" xMax="136" yMax="105">
      <contour>
        <pt x="33" y="52" on="1"/>
        <pt x="33" y="75" on="0"/>
        <pt x="65" y="105" on="0"/>
        <pt x="85" y="105" on="1"/>
        <pt x="104" y="105" on="0"/>
        <pt x="136" y="75" on="0"/>
        <pt x="136" y="52" on="1"/>
        <pt x="136" y="29" on="0"/>
        <pt x="104" y="0" on="0"/>
        <pt x="85" y="0" on="1"/>
        <pt x="65" y="0" on="0"/>
        <pt x="33" y="29" on="0"/>
      </contour>
    </TTGlyph>
    <TTGlyph name="periodcentered" xMin="34" yMin="230" xMax="137" yMax="335">
      <component glyphName="period" x="1" y="230" flags="0x4"/>
    </TTGlyph>
    <TTGlyph name="plus" xMin="86" yMin="51" xMax="446" yMax="411">
      <contour>
        <pt x="224" y="51" on="1"/>
        <pt x="224" y="190" on="1"/>
        <pt x="86" y="190" on="1"/>
        <pt x="86" y="271" on="1"/>
        <pt x="224" y="271" on="1"/>
        <pt x="224" y="411" on="1"/>
        <pt x="308" y="411" on="1"/>
        <pt x="308" y="271" on="1"/>
        <pt x="446" y="271" on="1"/>
        <pt x="446" y="190" on="1"/>
        <pt x="308" y="190" on="1"/>
        <pt x="308" y="51" on="1"/>
      </contour>
    </TTGlyph>
    <TTGlyph name="plusminus" xMin="86" yMin="100" xMax="446" yMax="571">
      <contour>
        <pt x="224" y="211" on="1"/>
        <pt x="224" y="350" on="1"/>
        <pt x="86" y="350" on="1"/>
        <pt x="86" y="431" on="1"/>
        <pt x="224" y="431" on="1"/>
        <pt x="224" y="571" on="1"/>
        <pt x="308" y="571" on="1"/>
        <pt x="308" y="431" on="1"/>
        <pt x="446" y="431" on="1"/>
        <pt x="446" y="350" on="1"/>
        <pt x="308" y="350" on="1"/>
        <pt x="308" y="211" on="1"/>
      </contour>
      <contour>
        <pt x="446" y="100" on="1"/>
        <pt x="86" y="100" on="1"/>
        <pt x="86" y="181" on="1"/>
        <pt x="446" y="181" on="1"/>
      </contour>
    </TTGlyph>
    <TTGlyph name="q" xMin="49" yMin="-250" xMax="450" yMax="384">
      <contour>
        <pt x="133" y="188" on="1"/>
        <pt x="133" y="139" on="0"/>
        <pt x="198" y="72" on="0"/>
        <pt x="250" y="72" on="1"/>
        <pt x="302" y="72" on="0"/>
        <pt x="367" y="139" on="0"/>
        <pt x="367" y="188" on="1"/>
        <pt x="367" y="238" on="0"/>
        <pt x="302" y="303" on="0"/>
        <pt x="250" y="303" on="1"/>
        <pt x="198" y="303" on="0"/>
        <pt x="133" y="238" on="0"/>
      </contour>
      <contour>
        <pt x="49" y="188" on="1"/>
        <pt x="49" y="228" on="0"/>
        <pt x="80" y="299" on="0"/>
        <pt x="134" y="353" on="0"/>
        <pt x="208" y="384" on="0"/>
        <pt x="250" y="384" on="1"/>
        <pt x="277" y="384" on="0"/>
        <pt x="323" y="368" on="0"/>
        <pt x="357" y="349" on="0"/>
        <pt x="377" y="331" on="0"/>
        <pt x="377" y="328" on="1"/>
        <pt x="378" y="340" on="0"/>
        <pt x="381" y="363" on="0"/>
        <pt x="381" y="375" on="1"/>
        <pt x="450" y="375" on="1"/>
        <pt x="450" y="-250" on="1"/>
        <pt x="367" y="-250" on="1"/>
        <pt x="367" y="19" on="1"/>
        <pt x="369" y="24" on="0"/>
        <pt x="375" y="36" on="0"/>
        <pt x="377" y="41" on="1"/>
        <pt x="377" y="38" on="0"/>
        <pt x="359" y="22" on="0"/>
        <pt x="327" y="5" on="0"/>
        <pt x="280" y="-9" on="0"/>
        <pt x="250" y="-9" on="1"/>
        <pt x="208" y="-9" on="0"/>
        <pt x="134" y="22" on="0"/>
        <pt x="80" y="76" on="0"/>
        <pt x="49" y="148" on="0"/>
      </contour>
    </TTGlyph>
    <TTGlyph name="question" xMin="41" yMin="0" xMax="437" yMax="732">
      <contour>
        <pt x="114" y="552" on="1"/>
        <pt x="96" y="559" on="0"/>
        <pt x="59" y="572" on="0"/>
        <pt x="41" y="579" on="1"/>
        <pt x="48" y="601" on="0"/>
        <pt x="74" y="654" on="0"/>
        <pt x="120" y="700" on="0"/>
        <pt x="190" y="732" on="0"/>
        <pt x="241" y="732" on="1"/>
        <pt x="282" y="732" on="0"/>
        <pt x="354" y="701" on="0"/>
        <pt x="407" y="648" on="0"/>
        <pt x="437" y="577" on="0"/>
        <pt x="437" y="537" on="1"/>
        <pt x="437" y="481" on="0"/>
        <pt x="384" y="398" on="0"/>
        <pt x="339" y="364" on="1"/>
        <pt x="325" y="354" on="0"/>
        <pt x="293" y="333" on="0"/>
        <pt x="265" y="306" on="0"/>
        <pt x="247" y="269" on="0"/>
        <pt x="247" y="242" on="1"/>
        <pt x="247" y="164" on="1"/>
        <pt x="163" y="164" on="1"/>
        <pt x="163" y="261" on="1"/>
        <pt x="163" y="293" on="0"/>
        <pt x="183" y="333" on="0"/>
        <pt x="217" y="364" on="0"/>
        <pt x="259" y="391" on="0"/>
        <pt x="282" y="409" on="1"/>
        <pt x="318" y="436" on="0"/>
        <pt x="352" y="500" on="0"/>
        <pt x="352" y="537" on="1"/>
        <pt x="352" y="586" on="0"/>
        <pt x="291" y="651" on="0"/>
        <pt x="241" y="651" on="1"/>
        <pt x="185" y="651" on="0"/>
        <pt x="129" y="601" on="0"/>
      </contour>
      <contour>
        <pt x="204" y="0" on="1"/>
        <pt x="184" y="0" on="0"/>
        <pt x="152" y="29" on="0"/>
        <pt x="152" y="52" on="1"/>
        <pt x="152" y="75" on="0"/>
        <pt x="184" y="105" on="0"/>
        <pt x="204" y="105" on="1"/>
        <pt x="223" y="105" on="0"/>
        <pt x="255" y="75" on="0"/>
        <pt x="255" y="52" on="1"/>
        <pt x="255" y="29" on="0"/>
        <pt x="223" y="0" on="0"/>
      </contour>
    </TTGlyph>
    <TTGlyph name="questiondown" xMin="31" yMin="-193" xMax="427" yMax="539">
      <component glyphName="question" x="468" y="539" scale="-0.999938964844" flags="0x4"/>
    </TTGlyph>
    <TTGlyph name="quotedbl" xMin="63" yMin="472" xMax="279" yMax="720">
      <contour>
        <pt x="196" y="472" on="1"/>
        <pt x="196" y="720" on="1"/>
        <pt x="279" y="720" on="1"/>
        <pt x="278" y="657" on="0"/>
        <pt x="276" y="535" on="0"/>
        <pt x="275" y="472" on="1"/>
      </contour>
      <contour>
        <pt x="63" y="472" on="1"/>
        <pt x="63" y="720" on="1"/>
        <pt x="146" y="720" on="1"/>
        <pt x="145" y="657" on="0"/>
        <pt x="143" y="535" on="0"/>
        <pt x="142" y="472" on="1"/>
      </contour>
    </TTGlyph>
    <TTGlyph name="quotedblbase" xMin="19" yMin="-53" xMax="216" yMax="92">
      <contour>
        <pt x="60" y="-53" on="1"/>
        <pt x="49" y="-47" on="0"/>
        <pt x="30" y="-35" on="0"/>
        <pt x="19" y="-29" on="1"/>
        <pt x="40" y="-9" on="0"/>
        <pt x="59" y="50" on="0"/>
        <pt x="52" y="85" on="1"/>
        <pt x="65" y="87" on="0"/>
        <pt x="91" y="90" on="0"/>
        <pt x="104" y="92" on="1"/>
        <pt x="112" y="50" on="0"/>
        <pt x="88" y="-25" on="0"/>
      </contour>
      <contour>
        <pt x="164" y="-53" on="1"/>
        <pt x="153" y="-47" on="0"/>
        <pt x="134" y="-35" on="0"/>
        <pt x="123" y="-29" on="1"/>
        <pt x="144" y="-9" on="0"/>
        <pt x="163" y="50" on="0"/>
        <pt x="156" y="85" on="1"/>
        <pt x="169" y="87" on="0"/>
        <pt x="195" y="90" on="0"/>
        <pt x="208" y="92" on="1"/>
        <pt x="216" y="50" on="0"/>
        <pt x="192" y="-25" on="0"/>
      </contour>
    </TTGlyph>
    <TTGlyph name="quotedblleft" xMin="23" yMin="566" xMax="220" yMax="711">
      <contour>
        <pt x="220" y="590" on="1"/>
        <pt x="209" y="584" on="0"/>
        <pt x="190" y="572" on="0"/>
        <pt x="179" y="566" on="1"/>
        <pt x="151" y="594" on="0"/>
        <pt x="127" y="669" on="0"/>
        <pt x="135" y="711" on="1"/>
        <pt x="148" y="709" on="0"/>
        <pt x="174" y="706" on="0"/>
        <pt x="187" y="704" on="1"/>
        <pt x="180" y="669" on="0"/>
        <pt x="199" y="610" on="0"/>
      </contour>
      <contour>
        <pt x="116" y="590" on="1"/>
        <pt x="105" y="584" on="0"/>
        <pt x="86" y="572" on="0"/>
        <pt x="75" y="566" on="1"/>
        <pt x="47" y="594" on="0"/>
        <pt x="23" y="669" on="0"/>
        <pt x="31" y="711" on="1"/>
        <pt x="44" y="709" on="0"/>
        <pt x="70" y="706" on="0"/>
        <pt x="83" y="704" on="1"/>
        <pt x="76" y="669" on="0"/>
        <pt x="95" y="610" on="0"/>
      </contour>
    </TTGlyph>
    <TTGlyph name="quotedblright" xMin="11" yMin="566" xMax="208" yMax="711">
      <contour>
        <pt x="52" y="566" on="1"/>
        <pt x="41" y="572" on="0"/>
        <pt x="22" y="584" on="0"/>
        <pt x="11" y="590" on="1"/>
        <pt x="32" y="610" on="0"/>
        <pt x="51" y="669" on="0"/>
        <pt x="44" y="704" on="1"/>
        <pt x="57" y="706" on="0"/>
        <pt x="83" y="709" on="0"/>
        <pt x="96" y="711" on="1"/>
        <pt x="104" y="669" on="0"/>
        <pt x="80" y="594" on="0"/>
      </contour>
      <contour>
        <pt x="156" y="566" on="1"/>
        <pt x="145" y="572" on="0"/>
        <pt x="126" y="584" on="0"/>
        <pt x="115" y="590" on="1"/>
        <pt x="136" y="610" on="0"/>
        <pt x="155" y="669" on="0"/>
        <pt x="148" y="704" on="1"/>
        <pt x="161" y="706" on="0"/>
        <pt x="187" y="709" on="0"/>
        <pt x="200" y="711" on="1"/>
        <pt x="208" y="669" on="0"/>
        <pt x="184" y="594" on="0"/>
      </contour>
    </TTGlyph>
    <TTGlyph name="quoteleft" xMin="23" yMin="566" xMax="116" yMax="711">
      <contour>
        <pt x="116" y="590" on="1"/>
        <pt x="105" y="584" on="0"/>
        <pt x="86" y="572" on="0"/>
        <pt x="75" y="566" on="1"/>
        <pt x="47" y="594" on="0"/>
        <pt x="23" y="669" on="0"/>
        <pt x="31" y="711" on="1"/>
        <pt x="44" y="709" on="0"/>
        <pt x="70" y="706" on="0"/>
        <pt x="83" y="704" on="1"/>
        <pt x="76" y="669" on="0"/>
        <pt x="95" y="610" on="0"/>
      </contour>
    </TTGlyph>
    <TTGlyph name="quoteright" xMin="35" yMin="566" xMax="128" yMax="711">
      <contour>
        <pt x="76" y="566" on="1"/>
        <pt x="65" y="572" on="0"/>
        <pt x="46" y="584" on="0"/>
        <pt x="35" y="590" on="1"/>
        <pt x="56" y="610" on="0"/>
        <pt x="75" y="669" on="0"/>
        <pt x="68" y="704" on="1"/>
        <pt x="81" y="706" on="0"/>
        <pt x="107" y="709" on="0"/>
        <pt x="120" y="711" on="1"/>
        <pt x="128" y="669" on="0"/>
        <pt x="104" y="594" on="0"/>
      </contour>
    </TTGlyph>
    <TTGlyph name="quotesinglbase" xMin="19" yMin="-53" xMax="112" yMax="92">
      <contour>
        <pt x="60" y="-53" on="1"/>
        <pt x="49" y="-47" on="0"/>
        <pt x="30" y="-35" on="0"/>
        <pt x="19" y="-29" on="1"/>
        <pt x="40" y="-9" on="0"/>
        <pt x="59" y="50" on="0"/>
        <pt x="52" y="85" on="1"/>
        <pt x="65" y="87" on="0"/>
        <pt x="91" y="90" on="0"/>
        <pt x="104" y="92" on="1"/>
        <pt x="112" y="50" on="0"/>
        <pt x="88" y="-25" on="0"/>
      </contour>
    </TTGlyph>
    <TTGlyph name="quotesingle" xMin="42" yMin="472" xMax="126" yMax="720">
      <contour>
        <pt x="42" y="472" on="1"/>
        <pt x="42" y="720" on="1"/>
        <pt x="126" y="720" on="1"/>
        <pt x="125" y="657" on="0"/>
        <pt x="123" y="535" on="0"/>
        <pt x="122" y="472" on="1"/>
      </contour>
    </TTGlyph>
    <TTGlyph name="r" xMin="82" yMin="0" xMax="306" yMax="384">
      <contour>
        <pt x="300" y="302" on="1"/>
        <pt x="239" y="302" on="0"/>
        <pt x="165" y="234" on="0"/>
        <pt x="165" y="182" on="1"/>
        <pt x="165" y="0" on="1"/>
        <pt x="82" y="0" on="1"/>
        <pt x="82" y="375" on="1"/>
        <pt x="155" y="375" on="1"/>
        <pt x="155" y="366" on="1"/>
        <pt x="157" y="342" on="0"/>
        <pt x="160" y="303" on="0"/>
        <pt x="162" y="279" on="1"/>
        <pt x="174" y="304" on="0"/>
        <pt x="211" y="343" on="0"/>
        <pt x="252" y="370" on="0"/>
        <pt x="291" y="384" on="0"/>
        <pt x="306" y="384" on="1"/>
      </contour>
    </TTGlyph>
    <TTGlyph name="registered" xMin="137" yMin="111" xMax="663" yMax="634">
      <contour>
        <pt x="400" y="148" on="1"/>
        <pt x="447" y="148" on="0"/>
        <pt x="529" y="182" on="0"/>
        <pt x="589" y="242" on="0"/>
        <pt x="623" y="324" on="0"/>
        <pt x="623" y="372" on="1"/>
        <pt x="623" y="421" on="0"/>
        <pt x="589" y="503" on="0"/>
        <pt x="529" y="563" on="0"/>
        <pt x="447" y="597" on="0"/>
        <pt x="400" y="597" on="1"/>
        <pt x="353" y="597" on="0"/>
        <pt x="271" y="563" on="0"/>
        <pt x="211" y="503" on="0"/>
        <pt x="177" y="421" on="0"/>
        <pt x="177" y="372" on="1"/>
        <pt x="177" y="324" on="0"/>
        <pt x="211" y="242" on="0"/>
        <pt x="271" y="182" on="0"/>
        <pt x="353" y="148" on="0"/>
      </contour>
      <contour>
        <pt x="400" y="111" on="1"/>
        <pt x="346" y="111" on="0"/>
        <pt x="250" y="151" on="0"/>
        <pt x="179" y="221" on="0"/>
        <pt x="137" y="316" on="0"/>
        <pt x="137" y="372" on="1"/>
        <pt x="137" y="429" on="0"/>
        <pt x="179" y="525" on="0"/>
        <pt x="250" y="595" on="0"/>
        <pt x="346" y="634" on="0"/>
        <pt x="400" y="634" on="1"/>
        <pt x="454" y="634" on="0"/>
        <pt x="550" y="595" on="0"/>
        <pt x="621" y="525" on="0"/>
        <pt x="663" y="429" on="0"/>
        <pt x="663" y="372" on="1"/>
        <pt x="663" y="316" on="0"/>
        <pt x="621" y="221" on="0"/>
        <pt x="550" y="151" on="0"/>
        <pt x="454" y="111" on="0"/>
      </contour>
      <contour>
        <pt x="360" y="395" on="1"/>
        <pt x="401" y="395" on="1"/>
        <pt x="422" y="395" on="0"/>
        <pt x="449" y="406" on="0"/>
        <pt x="466" y="422" on="0"/>
        <pt x="472" y="442" on="0"/>
        <pt x="472" y="451" on="1"/>
        <pt x="472" y="472" on="0"/>
        <pt x="431" y="504" on="0"/>
        <pt x="402" y="504" on="1"/>
        <pt x="360" y="504" on="1"/>
      </contour>
      <contour>
        <pt x="320" y="210" on="1"/>
        <pt x="320" y="541" on="1"/>
        <pt x="399" y="541" on="1"/>
        <pt x="415" y="541" on="0"/>
        <pt x="454" y="531" on="0"/>
        <pt x="488" y="509" on="0"/>
        <pt x="511" y="475" on="0"/>
        <pt x="511" y="451" on="1"/>
        <pt x="511" y="416" on="0"/>
        <pt x="475" y="368" on="0"/>
        <pt x="441" y="360" on="1"/>
        <pt x="459" y="322" on="0"/>
        <pt x="495" y="248" on="0"/>
        <pt x="512" y="210" on="1"/>
        <pt x="470" y="210" on="1"/>
        <pt x="453" y="247" on="0"/>
        <pt x="417" y="320" on="0"/>
        <pt x="400" y="358" on="1"/>
        <pt x="392" y="358" on="1"/>
        <pt x="360" y="358" on="1"/>
        <pt x="360" y="210" on="1"/>
      </contour>
    </TTGlyph>
    <TTGlyph name="s" xMin="57" yMin="-8" xMax="311" yMax="384">
      <contour>
        <pt x="296" y="342" on="1"/>
        <pt x="285" y="326" on="0"/>
        <pt x="261" y="296" on="0"/>
        <pt x="250" y="280" on="1"/>
        <pt x="245" y="285" on="0"/>
        <pt x="216" y="303" on="0"/>
        <pt x="192" y="303" on="1"/>
        <pt x="170" y="303" on="0"/>
        <pt x="150" y="284" on="0"/>
        <pt x="152" y="268" on="1"/>
        <pt x="154" y="256" on="0"/>
        <pt x="180" y="241" on="0"/>
        <pt x="215" y="227" on="0"/>
        <pt x="255" y="209" on="0"/>
        <pt x="289" y="182" on="0"/>
        <pt x="311" y="141" on="0"/>
        <pt x="311" y="110" on="1"/>
        <pt x="311" y="96" on="0"/>
        <pt x="300" y="56" on="0"/>
        <pt x="272" y="18" on="0"/>
        <pt x="222" y="-8" on="0"/>
        <pt x="182" y="-8" on="1"/>
        <pt x="145" y="-8" on="0"/>
        <pt x="77" y="17" on="0"/>
        <pt x="57" y="39" on="1"/>
        <pt x="70" y="54" on="0"/>
        <pt x="94" y="85" on="0"/>
        <pt x="107" y="100" on="1"/>
        <pt x="129" y="86" on="0"/>
        <pt x="159" y="73" on="0"/>
        <pt x="183" y="73" on="1"/>
        <pt x="184" y="73" on="0"/>
        <pt x="197" y="74" on="0"/>
        <pt x="213" y="81" on="0"/>
        <pt x="226" y="95" on="0"/>
        <pt x="227" y="109" on="1"/>
        <pt x="228" y="127" on="0"/>
        <pt x="206" y="146" on="0"/>
        <pt x="171" y="159" on="0"/>
        <pt x="129" y="172" on="0"/>
        <pt x="92" y="195" on="0"/>
        <pt x="68" y="237" on="0"/>
        <pt x="68" y="272" on="1"/>
        <pt x="68" y="303" on="0"/>
        <pt x="92" y="345" on="0"/>
        <pt x="128" y="372" on="0"/>
        <pt x="170" y="384" on="0"/>
        <pt x="187" y="384" on="1"/>
        <pt x="197" y="384" on="0"/>
        <pt x="226" y="380" on="0"/>
        <pt x="256" y="370" on="0"/>
        <pt x="285" y="354" on="0"/>
      </contour>
    </TTGlyph>
    <TTGlyph name="section" xMin="115" yMin="-50" xMax="403" yMax="762">
      <contour>
        <pt x="194" y="360" on="1"/>
        <pt x="194" y="333" on="0"/>
        <pt x="231" y="296" on="0"/>
        <pt x="258" y="296" on="1"/>
        <pt x="284" y="296" on="0"/>
        <pt x="322" y="333" on="0"/>
        <pt x="322" y="360" on="1"/>
        <pt x="322" y="386" on="0"/>
        <pt x="285" y="424" on="0"/>
        <pt x="258" y="424" on="1"/>
        <pt x="232" y="424" on="0"/>
        <pt x="194" y="387" on="0"/>
      </contour>
      <contour>
        <pt x="217" y="148" on="1"/>
        <pt x="189" y="192" on="0"/>
        <pt x="158" y="244" on="0"/>
        <pt x="142" y="271" on="0"/>
        <pt x="138" y="280" on="0"/>
        <pt x="138" y="282" on="1"/>
        <pt x="124" y="305" on="0"/>
        <pt x="115" y="358" on="0"/>
        <pt x="124" y="410" on="0"/>
        <pt x="149" y="456" on="0"/>
        <pt x="170" y="473" on="1"/>
        <pt x="199" y="496" on="0"/>
        <pt x="240" y="500" on="1"/>
        <pt x="229" y="517" on="0"/>
        <pt x="211" y="551" on="0"/>
        <pt x="200" y="569" on="1"/>
        <pt x="181" y="602" on="0"/>
        <pt x="169" y="649" on="0"/>
        <pt x="177" y="684" on="0"/>
        <pt x="200" y="708" on="0"/>
        <pt x="217" y="718" on="1"/>
        <pt x="235" y="729" on="0"/>
        <pt x="273" y="751" on="0"/>
        <pt x="291" y="762" on="1"/>
        <pt x="302" y="745" on="0"/>
        <pt x="322" y="709" on="0"/>
        <pt x="333" y="692" on="1"/>
        <pt x="323" y="687" on="0"/>
        <pt x="304" y="675" on="0"/>
        <pt x="294" y="670" on="1"/>
        <pt x="282" y="662" on="0"/>
        <pt x="269" y="648" on="0"/>
        <pt x="268" y="628" on="0"/>
        <pt x="278" y="601" on="0"/>
        <pt x="290" y="580" on="1"/>
        <pt x="291" y="580" on="1"/>
        <pt x="314" y="542" on="0"/>
        <pt x="357" y="469" on="0"/>
        <pt x="380" y="431" on="1"/>
        <pt x="394" y="408" on="0"/>
        <pt x="403" y="356" on="0"/>
        <pt x="393" y="305" on="0"/>
        <pt x="366" y="259" on="0"/>
        <pt x="345" y="243" on="1"/>
        <pt x="316" y="220" on="0"/>
        <pt x="275" y="214" on="1"/>
        <pt x="286" y="197" on="0"/>
        <pt x="306" y="161" on="0"/>
        <pt x="317" y="144" on="1"/>
        <pt x="336" y="111" on="0"/>
        <pt x="349" y="63" on="0"/>
        <pt x="341" y="28" on="0"/>
        <pt x="317" y="3" on="0"/>
        <pt x="301" y="-7" on="1"/>
        <pt x="283" y="-18" on="0"/>
        <pt x="246" y="-39" on="0"/>
        <pt x="228" y="-50" on="1"/>
        <pt x="217" y="-33" on="0"/>
        <pt x="197" y="3" on="0"/>
        <pt x="186" y="20" on="1"/>
        <pt x="196" y="26" on="0"/>
        <pt x="215" y="37" on="0"/>
        <pt x="225" y="43" on="1"/>
        <pt x="237" y="50" on="0"/>
        <pt x="250" y="66" on="0"/>
        <pt x="248" y="89" on="0"/>
        <pt x="233" y="122" on="0"/>
      </contour>
    </TTGlyph>
    <TTGlyph name="semicolon" xMin="-12" yMin="-120" xMax="167" yMax="355">
      <contour>
        <pt x="64" y="302" on="1"/>
        <pt x="64" y="325" on="0"/>
        <pt x="96" y="355" on="0"/>
        <pt x="116" y="355" on="1"/>
        <pt x="135" y="355" on="0"/>
        <pt x="167" y="325" on="0"/>
        <pt x="167" y="302" on="1"/>
        <pt x="167" y="279" on="0"/>
        <pt x="135" y="250" on="0"/>
        <pt x="116" y="250" on="1"/>
        <pt x="96" y="250" on="0"/>
        <pt x="64" y="279" on="0"/>
      </contour>
      <contour>
        <pt x="149" y="86" on="1"/>
        <pt x="127" y="34" on="0"/>
        <pt x="85" y="-68" on="0"/>
        <pt x="63" y="-120" on="1"/>
        <pt x="-12" y="-120" on="1"/>
        <pt x="8" y="-68" on="0"/>
        <pt x="45" y="34" on="0"/>
        <pt x="65" y="86" on="1"/>
      </contour>
    </TTGlyph>
    <TTGlyph name="seven" xMin="14" yMin="0" xMax="427" yMax="650">
      <contour>
        <pt x="14" y="568" on="1"/>
        <pt x="14" y="650" on="1"/>
        <pt x="427" y="650" on="1"/>
        <pt x="354" y="486" on="0"/>
        <pt x="208" y="164" on="0"/>
        <pt x="135" y="0" on="1"/>
        <pt x="40" y="0" on="1"/>
        <pt x="105" y="143" on="0"/>
        <pt x="232" y="425" on="0"/>
        <pt x="297" y="568" on="1"/>
      </contour>
    </TTGlyph>
    <TTGlyph name="six" xMin="48" yMin="-8" xMax="484" yMax="637">
      <contour>
        <pt x="134" y="209" on="1"/>
        <pt x="134" y="181" on="0"/>
        <pt x="154" y="132" on="0"/>
        <pt x="190" y="95" on="0"/>
        <pt x="238" y="73" on="0"/>
        <pt x="265" y="73" on="1"/>
        <pt x="293" y="73" on="0"/>
        <pt x="342" y="95" on="0"/>
        <pt x="379" y="132" on="0"/>
        <pt x="401" y="181" on="0"/>
        <pt x="401" y="209" on="1"/>
        <pt x="401" y="237" on="0"/>
        <pt x="379" y="286" on="0"/>
        <pt x="342" y="322" on="0"/>
        <pt x="293" y="343" on="0"/>
        <pt x="265" y="343" on="1"/>
        <pt x="238" y="343" on="0"/>
        <pt x="190" y="322" on="0"/>
        <pt x="154" y="286" on="0"/>
        <pt x="134" y="237" on="0"/>
      </contour>
      <contour>
        <pt x="48" y="197" on="1"/>
        <pt x="48" y="269" on="0"/>
        <pt x="109" y="394" on="0"/>
        <pt x="205" y="502" on="0"/>
        <pt x="323" y="596" on="0"/>
        <pt x="379" y="637" on="1"/>
        <pt x="392" y="621" on="0"/>
        <pt x="418" y="589" on="0"/>
        <pt x="431" y="573" on="1"/>
        <pt x="366" y="530" on="0"/>
        <pt x="276" y="455" on="0"/>
        <pt x="244" y="423" on="1"/>
        <pt x="249" y="423" on="0"/>
        <pt x="260" y="424" on="0"/>
        <pt x="265" y="424" on="1"/>
        <pt x="310" y="424" on="0"/>
        <pt x="389" y="391" on="0"/>
        <pt x="449" y="332" on="0"/>
        <pt x="484" y="254" on="0"/>
        <pt x="484" y="209" on="1"/>
        <pt x="484" y="164" on="0"/>
        <pt x="449" y="85" on="0"/>
        <pt x="389" y="26" on="0"/>
        <pt x="310" y="-8" on="0"/>
        <pt x="265" y="-8" on="1"/>
        <pt x="222" y="-8" on="0"/>
        <pt x="145" y="24" on="0"/>
        <pt x="86" y="79" on="0"/>
        <pt x="50" y="154" on="0"/>
      </contour>
    </TTGlyph>
    <TTGlyph name="slash" xMin="17" yMin="-19" xMax="379" yMax="736">
      <contour>
        <pt x="17" y="-19" on="1"/>
        <pt x="87" y="171" on="0"/>
        <pt x="225" y="546" on="0"/>
        <pt x="295" y="736" on="1"/>
        <pt x="379" y="736" on="1"/>
        <pt x="309" y="546" on="0"/>
        <pt x="171" y="171" on="0"/>
        <pt x="101" y="-19" on="1"/>
      </contour>
    </TTGlyph>
    <TTGlyph name="sterling" xMin="29" yMin="0" xMax="547" yMax="634">
      <contour>
        <pt x="188" y="81" on="1"/>
        <pt x="360" y="81" on="1"/>
        <pt x="392" y="81" on="0"/>
        <pt x="432" y="86" on="0"/>
        <pt x="455" y="98" on="0"/>
        <pt x="463" y="118" on="0"/>
        <pt x="463" y="133" on="1"/>
        <pt x="463" y="177" on="1"/>
        <pt x="484" y="177" on="0"/>
        <pt x="526" y="178" on="0"/>
        <pt x="547" y="178" on="1"/>
        <pt x="547" y="85" on="1"/>
        <pt x="547" y="67" on="0"/>
        <pt x="539" y="35" on="0"/>
        <pt x="513" y="13" on="0"/>
        <pt x="467" y="0" on="0"/>
        <pt x="429" y="0" on="1"/>
        <pt x="29" y="0" on="1"/>
        <pt x="29" y="81" on="1"/>
        <pt x="73" y="81" on="1"/>
        <pt x="89" y="81" on="0"/>
        <pt x="109" y="88" on="0"/>
        <pt x="121" y="110" on="0"/>
        <pt x="125" y="149" on="0"/>
        <pt x="125" y="181" on="1"/>
        <pt x="125" y="273" on="1"/>
        <pt x="60" y="273" on="1"/>
        <pt x="60" y="354" on="1"/>
        <pt x="125" y="354" on="1"/>
        <pt x="125" y="500" on="1"/>
        <pt x="125" y="569" on="0"/>
        <pt x="241" y="634" on="0"/>
        <pt x="346" y="634" on="1"/>
        <pt x="413" y="634" on="0"/>
        <pt x="493" y="574" on="0"/>
        <pt x="513" y="534" on="1"/>
        <pt x="497" y="525" on="0"/>
        <pt x="466" y="506" on="0"/>
        <pt x="450" y="497" on="1"/>
        <pt x="445" y="504" on="0"/>
        <pt x="432" y="523" on="0"/>
        <pt x="410" y="541" on="0"/>
        <pt x="374" y="553" on="0"/>
        <pt x="346" y="553" on="1"/>
        <pt x="278" y="553" on="0"/>
        <pt x="209" y="525" on="0"/>
        <pt x="209" y="478" on="1"/>
        <pt x="209" y="354" on="1"/>
        <pt x="326" y="354" on="1"/>
        <pt x="326" y="273" on="1"/>
        <pt x="209" y="273" on="1"/>
        <pt x="209" y="163" on="1"/>
        <pt x="209" y="134" on="0"/>
        <pt x="204" y="95" on="0"/>
      </contour>
    </TTGlyph>
    <TTGlyph name="t" xMin="24" yMin="0" xMax="289" yMax="619">
      <contour>
        <pt x="108" y="619" on="1"/>
        <pt x="191" y="619" on="1"/>
        <pt x="191" y="384" on="1"/>
        <pt x="289" y="384" on="1"/>
        <pt x="289" y="303" on="1"/>
        <pt x="191" y="303" on="1"/>
        <pt x="191" y="0" on="1"/>
        <pt x="108" y="0" on="1"/>
        <pt x="108" y="303" on="1"/>
        <pt x="24" y="303" on="1"/>
        <pt x="24" y="384" on="1"/>
        <pt x="108" y="384" on="1"/>
      </contour>
    </TTGlyph>
    <TTGlyph name="thorn" xMin="67" yMin="-250" xMax="468" yMax="750">
      <contour>
        <pt x="384" y="188" on="1"/>
        <pt x="384" y="238" on="0"/>
        <pt x="319" y="303" on="0"/>
        <pt x="267" y="303" on="1"/>
        <pt x="215" y="303" on="0"/>
        <pt x="150" y="238" on="0"/>
        <pt x="150" y="188" on="1"/>
        <pt x="150" y="139" on="0"/>
        <pt x="215" y="72" on="0"/>
        <pt x="267" y="72" on="1"/>
        <pt x="319" y="72" on="0"/>
        <pt x="384" y="139" on="0"/>
      </contour>
      <contour>
        <pt x="468" y="187" on="1"/>
        <pt x="468" y="147" on="0"/>
        <pt x="437" y="76" on="0"/>
        <pt x="383" y="22" on="0"/>
        <pt x="309" y="-9" on="0"/>
        <pt x="267" y="-9" on="1"/>
        <pt x="237" y="-9" on="0"/>
        <pt x="190" y="5" on="0"/>
        <pt x="158" y="22" on="0"/>
        <pt x="140" y="38" on="0"/>
        <pt x="140" y="41" on="1"/>
        <pt x="142" y="36" on="0"/>
        <pt x="148" y="24" on="0"/>
        <pt x="150" y="19" on="1"/>
        <pt x="150" y="-250" on="1"/>
        <pt x="67" y="-250" on="1"/>
        <pt x="67" y="750" on="1"/>
        <pt x="150" y="750" on="1"/>
        <pt x="150" y="360" on="1"/>
        <pt x="148" y="352" on="0"/>
        <pt x="142" y="336" on="0"/>
        <pt x="140" y="328" on="1"/>
        <pt x="140" y="331" on="0"/>
        <pt x="160" y="348" on="0"/>
        <pt x="194" y="367" on="0"/>
        <pt x="240" y="382" on="0"/>
        <pt x="267" y="382" on="1"/>
        <pt x="309" y="382" on="0"/>
        <pt x="383" y="351" on="0"/>
        <pt x="437" y="297" on="0"/>
        <pt x="468" y="226" on="0"/>
      </contour>
    </TTGlyph>
    <TTGlyph name="three" xMin="59" yMin="-8" xMax="438" yMax="650">
      <contour>
        <pt x="154" y="326" on="1"/>
        <pt x="189" y="387" on="0"/>
        <pt x="258" y="507" on="0"/>
        <pt x="293" y="568" on="1"/>
        <pt x="103" y="568" on="1"/>
        <pt x="103" y="650" on="1"/>
        <pt x="432" y="650" on="1"/>
        <pt x="396" y="590" on="0"/>
        <pt x="325" y="472" on="0"/>
        <pt x="289" y="412" on="1"/>
        <pt x="322" y="400" on="0"/>
        <pt x="376" y="361" on="0"/>
        <pt x="416" y="309" on="0"/>
        <pt x="438" y="245" on="0"/>
        <pt x="438" y="209" on="1"/>
        <pt x="438" y="164" on="0"/>
        <pt x="403" y="85" on="0"/>
        <pt x="343" y="26" on="0"/>
        <pt x="264" y="-8" on="0"/>
        <pt x="219" y="-8" on="1"/>
        <pt x="171" y="-8" on="0"/>
        <pt x="89" y="31" on="0"/>
        <pt x="59" y="63" on="1"/>
        <pt x="74" y="77" on="0"/>
        <pt x="105" y="106" on="0"/>
        <pt x="120" y="120" on="1"/>
        <pt x="138" y="98" on="0"/>
        <pt x="189" y="73" on="0"/>
        <pt x="219" y="73" on="1"/>
        <pt x="247" y="73" on="0"/>
        <pt x="296" y="95" on="0"/>
        <pt x="333" y="132" on="0"/>
        <pt x="355" y="181" on="0"/>
        <pt x="355" y="209" on="1"/>
        <pt x="355" y="237" on="0"/>
        <pt x="333" y="286" on="0"/>
        <pt x="296" y="322" on="0"/>
        <pt x="247" y="343" on="0"/>
        <pt x="219" y="343" on="1"/>
        <pt x="183" y="343" on="0"/>
      </contour>
    </TTGlyph>
    <TTGlyph name="threequarters" xMin="138" yMin="-19" xMax="1044" yMax="736">
      <component glyphName="three" x="93" y="205" scalex="0.773071289062" scaley="0.773559570312" flags="0x4"/>
      <component glyphName="slash" x="429" y="0" flags="0x4"/>
      <component glyphName="four" x="673" y="0" scalex="0.742980957031" scaley="0.744689941406" flags="0x4"/>
    </TTGlyph>
    <TTGlyph name="threesuperior" xMin="77" yMin="376" xMax="264" yMax="700">
      <component glyphName="three" x="48" y="380" scalex="0.493408203125" scaley="0.492431640625" flags="0x4"/>
    </TTGlyph>
    <TTGlyph name="two" xMin="44" yMin="0" xMax="496" yMax="658">
      <contour>
        <pt x="253" y="81" on="1"/>
        <pt x="496" y="81" on="1"/>
        <pt x="496" y="0" on="1"/>
        <pt x="53" y="0" on="1"/>
        <pt x="115" y="62" on="0"/>
        <pt x="231" y="179" on="0"/>
        <pt x="321" y="288" on="0"/>
        <pt x="375" y="391" on="0"/>
        <pt x="375" y="438" on="1"/>
        <pt x="375" y="475" on="0"/>
        <pt x="351" y="527" on="0"/>
        <pt x="314" y="561" on="0"/>
        <pt x="271" y="577" on="0"/>
        <pt x="253" y="577" on="1"/>
        <pt x="215" y="577" on="0"/>
        <pt x="167" y="551" on="0"/>
        <pt x="139" y="513" on="0"/>
        <pt x="128" y="471" on="0"/>
        <pt x="128" y="455" on="1"/>
        <pt x="128" y="422" on="0"/>
        <pt x="148" y="371" on="0"/>
        <pt x="167" y="351" on="1"/>
        <pt x="154" y="338" on="0"/>
        <pt x="130" y="313" on="0"/>
        <pt x="117" y="300" on="1"/>
        <pt x="100" y="311" on="0"/>
        <pt x="73" y="348" on="0"/>
        <pt x="54" y="391" on="0"/>
        <pt x="44" y="436" on="0"/>
        <pt x="44" y="455" on="1"/>
        <pt x="44" y="495" on="0"/>
        <pt x="71" y="569" on="0"/>
        <pt x="124" y="625" on="0"/>
        <pt x="202" y="658" on="0"/>
        <pt x="253" y="658" on="1"/>
        <pt x="299" y="658" on="0"/>
        <pt x="375" y="624" on="0"/>
        <pt x="429" y="567" on="0"/>
        <pt x="459" y="492" on="0"/>
        <pt x="459" y="450" on="1"/>
        <pt x="459" y="400" on="0"/>
        <pt x="424" y="307" on="0"/>
        <pt x="367" y="215" on="0"/>
        <pt x="293" y="126" on="0"/>
      </contour>
    </TTGlyph>
    <TTGlyph name="twosuperior" xMin="99" yMin="375" xMax="322" yMax="699">
      <component glyphName="two" x="78" y="375" scalex="0.493347167969" scaley="0.493896484375" flags="0x4"/>
    </TTGlyph>
    <TTGlyph name="u" xMin="82" yMin="-9" xMax="454" yMax="375">
      <contour>
        <pt x="454" y="-9" on="1"/>
        <pt x="371" y="-9" on="1"/>
        <pt x="371" y="51" on="1"/>
        <pt x="374" y="96" on="1"/>
        <pt x="354" y="48" on="0"/>
        <pt x="265" y="-9" on="0"/>
        <pt x="211" y="-9" on="1"/>
        <pt x="152" y="-9" on="0"/>
        <pt x="84" y="53" on="0"/>
        <pt x="82" y="103" on="1"/>
        <pt x="82" y="375" on="1"/>
        <pt x="165" y="375" on="1"/>
        <pt x="165" y="141" on="1"/>
        <pt x="167" y="114" on="0"/>
        <pt x="202" y="75" on="0"/>
        <pt x="240" y="73" on="1"/>
        <pt x="266" y="73" on="0"/>
        <pt x="313" y="91" on="0"/>
        <pt x="349" y="123" on="0"/>
        <pt x="371" y="167" on="0"/>
        <pt x="371" y="193" on="1"/>
        <pt x="371" y="375" on="1"/>
        <pt x="454" y="375" on="1"/>
      </contour>
    </TTGlyph>
    <TTGlyph name="uacute" xMin="82" yMin="-9" xMax="454" yMax="612">
      <component glyphName="u" x="0" y="0" flags="0x204"/>
      <component glyphName="acute" x="131" y="0" flags="0x4"/>
    </TTGlyph>
    <TTGlyph name="ucircumflex" xMin="82" yMin="-9" xMax="454" yMax="660">
      <component glyphName="u" x="0" y="0" flags="0x204"/>
      <component glyphName="asciicircum" x="34" y="0" flags="0x4"/>
    </TTGlyph>
    <TTGlyph name="udieresis" xMin="82" yMin="-9" xMax="454" yMax="573">
      <component glyphName="u" x="0" y="0" flags="0x204"/>
      <component glyphName="dieresis" x="79" y="0" flags="0x4"/>
    </TTGlyph>
    <TTGlyph name="ugrave" xMin="82" yMin="-9" xMax="454" yMax="612">
      <component glyphName="u" x="0" y="0" flags="0x204"/>
      <component glyphName="grave" x="177" y="0" flags="0x4"/>
    </TTGlyph>
    <TTGlyph name="underscore" xMin="100" yMin="0" xMax="500" yMax="81">
      <contour>
        <pt x="500" y="0" on="1"/>
        <pt x="100" y="0" on="1"/>
        <pt x="100" y="81" on="1"/>
        <pt x="500" y="81" on="1"/>
      </contour>
    </TTGlyph>
    <TTGlyph name="v" xMin="54" yMin="-23" xMax="486" yMax="375">
      <contour>
        <pt x="270" y="-23" on="1"/>
        <pt x="216" y="77" on="0"/>
        <pt x="108" y="275" on="0"/>
        <pt x="54" y="375" on="1"/>
        <pt x="137" y="375" on="1"/>
        <pt x="153" y="345" on="0"/>
        <pt x="191" y="281" on="0"/>
        <pt x="228" y="217" on="0"/>
        <pt x="259" y="152" on="0"/>
        <pt x="270" y="120" on="1"/>
        <pt x="280" y="152" on="0"/>
        <pt x="312" y="217" on="0"/>
        <pt x="349" y="281" on="0"/>
        <pt x="386" y="345" on="0"/>
        <pt x="403" y="375" on="1"/>
        <pt x="486" y="375" on="1"/>
        <pt x="432" y="275" on="0"/>
        <pt x="324" y="77" on="0"/>
      </contour>
    </TTGlyph>
    <TTGlyph name="w" xMin="54" yMin="-23" xMax="728" yMax="375">
      <contour>
        <pt x="349" y="328" on="1"/>
        <pt x="343" y="340" on="0"/>
        <pt x="332" y="363" on="0"/>
        <pt x="326" y="375" on="1"/>
        <pt x="409" y="375" on="1"/>
        <pt x="438" y="312" on="0"/>
        <pt x="505" y="185" on="0"/>
        <pt x="527" y="120" on="1"/>
        <pt x="549" y="185" on="0"/>
        <pt x="616" y="312" on="0"/>
        <pt x="645" y="375" on="1"/>
        <pt x="728" y="375" on="1"/>
        <pt x="677" y="275" on="0"/>
        <pt x="578" y="77" on="0"/>
        <pt x="527" y="-23" on="1"/>
        <pt x="493" y="45" on="0"/>
        <pt x="425" y="178" on="0"/>
        <pt x="391" y="246" on="1"/>
        <pt x="357" y="178" on="0"/>
        <pt x="289" y="45" on="0"/>
        <pt x="255" y="-23" on="1"/>
        <pt x="204" y="77" on="0"/>
        <pt x="105" y="275" on="0"/>
        <pt x="54" y="375" on="1"/>
        <pt x="137" y="375" on="1"/>
        <pt x="166" y="312" on="0"/>
        <pt x="233" y="185" on="0"/>
        <pt x="255" y="120" on="1"/>
        <pt x="273" y="174" on="0"/>
        <pt x="326" y="277" on="0"/>
      </contour>
    </TTGlyph>
    <TTGlyph name="x" xMin="21" yMin="0" xMax="442" yMax="375">
      <contour>
        <pt x="169" y="202" on="1"/>
        <pt x="137" y="246" on="0"/>
        <pt x="74" y="331" on="0"/>
        <pt x="42" y="375" on="1"/>
        <pt x="144" y="375" on="1"/>
        <pt x="169" y="342" on="0"/>
        <pt x="218" y="275" on="0"/>
        <pt x="243" y="242" on="1"/>
        <pt x="267" y="275" on="0"/>
        <pt x="316" y="342" on="0"/>
        <pt x="340" y="375" on="1"/>
        <pt x="442" y="375" on="1"/>
        <pt x="405" y="324" on="0"/>
        <pt x="332" y="224" on="0"/>
        <pt x="295" y="173" on="1"/>
        <pt x="327" y="129" on="0"/>
        <pt x="392" y="44" on="0"/>
        <pt x="424" y="0" on="1"/>
        <pt x="318" y="0" on="1"/>
        <pt x="293" y="33" on="0"/>
        <pt x="245" y="100" on="0"/>
        <pt x="220" y="133" on="1"/>
        <pt x="196" y="100" on="0"/>
        <pt x="147" y="33" on="0"/>
        <pt x="123" y="0" on="1"/>
        <pt x="21" y="0" on="1"/>
        <pt x="58" y="51" on="0"/>
        <pt x="132" y="151" on="0"/>
      </contour>
    </TTGlyph>
    <TTGlyph name="y" xMin="26" yMin="-250" xMax="487" yMax="375">
      <contour>
        <pt x="172" y="-250" on="1"/>
        <pt x="89" y="-250" on="1"/>
        <pt x="121" y="-187" on="0"/>
        <pt x="183" y="-63" on="0"/>
        <pt x="215" y="0" on="1"/>
        <pt x="26" y="375" on="1"/>
        <pt x="109" y="375" on="1"/>
        <pt x="146" y="302" on="0"/>
        <pt x="231" y="151" on="0"/>
        <pt x="257" y="74" on="1"/>
        <pt x="270" y="112" on="0"/>
        <pt x="305" y="189" on="0"/>
        <pt x="345" y="264" on="0"/>
        <pt x="386" y="339" on="0"/>
        <pt x="404" y="375" on="1"/>
        <pt x="487" y="375" on="1"/>
        <pt x="408" y="218" on="0"/>
        <pt x="251" y="-93" on="0"/>
      </contour>
    </TTGlyph>
    <TTGlyph name="yacute" xMin="26" yMin="-250" xMax="487" yMax="612">
      <component glyphName="y" x="0" y="0" flags="0x4"/>
      <component glyphName="acute" x="141" y="0" flags="0x4"/>
    </TTGlyph>
    <TTGlyph name="ydieresis" xMin="26" yMin="-250" xMax="487" yMax="573">
      <component glyphName="y" x="0" y="0" flags="0x4"/>
      <component glyphName="dieresis" x="71" y="0" flags="0x4"/>
    </TTGlyph>
    <TTGlyph name="yen" xMin="12" yMin="0" xMax="623" yMax="700">
      <contour>
        <pt x="483" y="181" on="1"/>
        <pt x="483" y="100" on="1"/>
        <pt x="369" y="100" on="1"/>
        <pt x="369" y="0" on="1"/>
        <pt x="267" y="0" on="1"/>
        <pt x="267" y="100" on="1"/>
        <pt x="150" y="100" on="1"/>
        <pt x="150" y="181" on="1"/>
        <pt x="267" y="181" on="1"/>
        <pt x="267" y="263" on="1"/>
        <pt x="150" y="263" on="1"/>
        <pt x="150" y="344" on="1"/>
        <pt x="223" y="344" on="1"/>
        <pt x="170" y="434" on="0"/>
        <pt x="65" y="610" on="0"/>
        <pt x="12" y="700" on="1"/>
        <pt x="114" y="700" on="1"/>
        <pt x="162" y="619" on="0"/>
        <pt x="258" y="458" on="0"/>
        <pt x="306" y="377" on="1"/>
        <pt x="309" y="369" on="0"/>
        <pt x="314" y="354" on="0"/>
        <pt x="317" y="346" on="1"/>
        <pt x="318" y="346" on="1"/>
        <pt x="321" y="354" on="0"/>
        <pt x="327" y="369" on="0"/>
        <pt x="330" y="377" on="1"/>
        <pt x="378" y="458" on="0"/>
        <pt x="473" y="619" on="0"/>
        <pt x="521" y="700" on="1"/>
        <pt x="623" y="700" on="1"/>
        <pt x="570" y="610" on="0"/>
        <pt x="466" y="434" on="0"/>
        <pt x="413" y="344" on="1"/>
        <pt x="483" y="344" on="1"/>
        <pt x="483" y="263" on="1"/>
        <pt x="369" y="263" on="1"/>
        <pt x="369" y="181" on="1"/>
      </contour>
    </TTGlyph>
    <TTGlyph name="z" xMin="42" yMin="0" xMax="407" yMax="410">
      <contour>
        <pt x="167" y="375" on="1"/>
        <pt x="384" y="375" on="1"/>
        <pt x="384" y="294" on="1"/>
        <pt x="352" y="266" on="0"/>
        <pt x="298" y="213" on="0"/>
        <pt x="245" y="161" on="0"/>
        <pt x="190" y="109" on="0"/>
        <pt x="159" y="81" on="1"/>
        <pt x="407" y="81" on="1"/>
        <pt x="407" y="0" on="1"/>
        <pt x="42" y="0" on="1"/>
        <pt x="42" y="81" on="1"/>
        <pt x="73" y="109" on="0"/>
        <pt x="128" y="162" on="0"/>
        <pt x="181" y="214" on="0"/>
        <pt x="235" y="268" on="0"/>
        <pt x="267" y="296" on="1"/>
        <pt x="128" y="296" on="1"/>
        <pt x="97" y="296" on="0"/>
        <pt x="54" y="332" on="0"/>
        <pt x="54" y="361" on="1"/>
        <pt x="54" y="410" on="1"/>
        <pt x="137" y="410" on="1"/>
        <pt x="137" y="398" on="1"/>
        <pt x="137" y="382" on="0"/>
        <pt x="150" y="375" on="0"/>
      </contour>
    </TTGlyph>
    <TTGlyph name="zero" xMin="37" yMin="-8" xMax="573" yMax="658">
      <contour>
        <pt x="37" y="327" on="1"/>
        <pt x="37" y="403" on="0"/>
        <pt x="80" y="526" on="0"/>
        <pt x="153" y="612" on="0"/>
        <pt x="251" y="658" on="0"/>
        <pt x="307" y="658" on="1"/>
        <pt x="363" y="658" on="0"/>
        <pt x="461" y="610" on="0"/>
        <pt x="533" y="523" on="0"/>
        <pt x="573" y="399" on="0"/>
        <pt x="573" y="323" on="1"/>
        <pt x="573" y="247" on="0"/>
        <pt x="526" y="125" on="0"/>
        <pt x="450" y="38" on="0"/>
        <pt x="354" y="-8" on="0"/>
        <pt x="303" y="-8" on="1"/>
        <pt x="252" y="-8" on="0"/>
        <pt x="156" y="40" on="0"/>
        <pt x="81" y="128" on="0"/>
        <pt x="37" y="251" on="0"/>
      </contour>
      <contour>
        <pt x="121" y="326" on="1"/>
        <pt x="121" y="273" on="0"/>
        <pt x="149" y="181" on="0"/>
        <pt x="199" y="113" on="0"/>
        <pt x="265" y="73" on="0"/>
        <pt x="303" y="73" on="1"/>
        <pt x="340" y="73" on="0"/>
        <pt x="408" y="111" on="0"/>
        <pt x="459" y="179" on="0"/>
        <pt x="489" y="271" on="0"/>
        <pt x="489" y="324" on="1"/>
        <pt x="489" y="360" on="0"/>
        <pt x="471" y="448" on="0"/>
        <pt x="428" y="525" on="0"/>
        <pt x="358" y="577" on="0"/>
        <pt x="307" y="577" on="1"/>
        <pt x="256" y="577" on="0"/>
        <pt x="185" y="526" on="0"/>
        <pt x="141" y="450" on="0"/>
        <pt x="121" y="362" on="0"/>
      </contour>
    </TTGlyph>
</ttFont>
